<?xml version="1.0" encoding="utf-8"?>
<svg xmlns="http://www.w3.org/2000/svg" xmlns:xlink="http://www.w3.org/1999/xlink" version= "1.1" width="720px" height="1424px" viewBox="0 0 720 1424">
<g id="layer1">
<g style="fill:rgb(105,208,255); fill-opacity:1.0; stroke-linejoin: miter">
<path d="M-179.36209,172.93433L347.07462,172.93483L873.51135,172.93535L873.51135,1225.8077Q347.07462,1225.8082,-179.36209,1225.8087Q-179.36209,699.3715,-179.36209,172.93433"/>
</g>
<g style="fill:rgb(0,0,0); fill-opacity:1.0; stroke-linejoin: miter">
<path d="M723.386,1222.9807L725.2418,1219.853Q738.17395,1197.9524,737.3544,1187.9736Q737.1113,1169.7963,717.4136,1143.2048Q724.3557,1132.3778,723.4509,1126.625L712.4387,1097.074L713.06116,1089.0212Q721.16455,1066.7499,721.90137,1058.3461Q723.33997,1052.3953,720.9568,1033.4406L694.0808,919.6714L681.0254,842.48865Q673.5541,821.2166,661.2871,814.3279Q652.5973,808.0989,642.2711,803.30963Q592.8091,782.87836,570.1885,771.5259L571.45215,775.75085Q369.26144,766.568,310.53284,767.48895Q227.46318,767.6358,194.57191,777.60736Q177.25073,782.5672,166.8565,789.786Q151.4245,800.7243,142.54121,815.9753Q132.26392,820.28876,86.40953,983.06573Q72.74356,1035.7714,85.67427,1061.4546Q50.590897,1102.0969,43.50522,1130.1084Q37.170326,1164.3273,68.05525,1210.7007L92.47333,1222.418Q113.93464,1225.292,126.033905,1224.0933Q142.8141,1224.9312,167.64682,1199.0522L161.54956,1221.3081L723.386,1222.9807"/>
</g>
<g style="fill:rgb(255,161,225); fill-opacity:1.0; stroke-linejoin: miter">
<path d="M368.32617,858.70325L364.81537,861.0388Q331.1893,887.3324,293.5974,861.5182Q279.67734,853.5344,252.51065,833.74585Q206.71867,776.2952,210.0943,772.7079Q209.60765,769.2855,211.01833,767.4906Q215.66875,764.10754,221.52203,753.502L224.2533,751.0929L238.93835,748.4844L246.74883,741.2007Q250.94179,740.12085,261.21152,742.3264Q255.37587,713.47406,257.50293,696.97156Q258.72974,680.83966,271.27307,644.4227Q232.49832,557.36566,238.20078,496.84824Q240.20584,466.30637,256.72943,439.45428Q263.53998,424.9799,296.90756,401.68604Q301.4692,397.6833,328.2776,386.66943Q339.1431,382.82654,349.94574,380.78476Q371.71368,376.57773,390.39117,380.9725Q422.5067,384.14566,473.07013,452.08655Q506.875,492.28662,520.8081,532.8741Q528.8979,554.5116,539.3992,613.56665Q560.76764,646.15796,562.64844,655.0231Q564.4199,662.55164,563.69666,663.3088L557.8486,679.06055Q557.0092,687.24866,557.9657,690.286Q555.48865,687.9289,574.3856,738.36255Q580.54987,759.2235,580.4592,763.29565Q581.8363,783.4022,579.61584,786.52844Q575.4915,800.6722,562.9872,811.34814Q550.4828,822.02423,532.9503,830.6195L470.41748,859.5731Q435.62833,875.5831,417.33417,875.03406Q398.62598,876.04114,368.32617,858.70325"/>
</g>
<g style="fill:rgb(0,0,0); fill-opacity:1.0; stroke-linejoin: miter">
<path d="M257.8557,592.96515L255.19693,581.9056Q246.56563,548.3769,243.82869,517.9972Q242.27695,497.88986,246.61954,480.9315Q253.42062,459.1058,267.28256,447.18192Q276.5982,438.55444,287.99234,432.8593Q301.35956,426.7279,307.6189,425.62378Q325.90845,420.80338,345.83676,425.38806Q368.45844,431.54224,386.12872,446.88528Q401.97485,459.3272,418.5202,485.35437Q430.513,505.43073,441.72363,537.84534L257.8557,592.96515"/>
</g>
<g style="fill:rgb(255,187,156); fill-opacity:1.0; stroke-linejoin: miter">
<path d="M411.10645,711.27185L410.15146,712.4384Q401.31293,723.33344,387.32535,726.57874Q367.84293,732.23505,352.60837,728.9784Q348.09534,727.6382,344.7087,725.34644Q339.71677,721.8345,335.67523,717.51965Q318.56287,707.1312,310.15002,700.5134Q295.24084,688.4203,290.06476,679.2976Q283.83002,673.3004,263.7047,616.3155Q255.78554,593.01154,253.2407,572.74835Q246.6314,525.9698,266.1296,501.69144Q278.14536,487.33395,307.63516,479.80725Q334.47458,473.148,360.17032,477.72144Q402.6004,487.67038,439.899,536.0486Q456.37323,559.9701,459.877,592.9822L460.53912,597.37885Q458.54797,618.4204,455.55173,637.82886Q451.70563,663.94867,442.00256,680.55164Q435.1162,693.639,411.10645,711.27185"/>
</g>
<g style="fill:rgb(255,255,255); fill-opacity:1.0; stroke-linejoin: miter">
<path d="M366.0654,562.4422L367.53632,560.8176Q371.94638,555.8184,376.3805,551.9475Q377.85944,550.699,379.34372,549.70123L380.82968,548.78174Q382.09167,548.00385,384.26294,547.2867Q387.0503,546.3467,391.35315,546.9617Q393.46396,547.32104,395.58206,548.02216Q398.7598,549.10046,401.94366,550.4671Q397.62634,554.3256,394.72992,556.1359Q391.76434,557.89996,391.01993,558.1515Q389.68747,558.7592,388.19495,559.2598Q386.6976,559.75714,385.0402,560.14734Q384.2897,560.3948,379.7806,561.12555Q375.20242,561.81006,366.0654,562.4422"/>
</g>
<g style="fill:rgb(0,0,0); fill-opacity:1.0; stroke-linejoin: miter">
<path d="M382.1949,560.9823L381.79492,560.8276Q379.12527,559.9181,378.0397,558.2344Q377.02045,556.8129,376.48032,551.899Q379.75076,548.653,381.87326,547.8171Q383.72223,546.8772,388.95465,546.46204Q392.92935,548.4757,393.76932,550.2483Q394.18912,550.8431,394.50153,552.6761Q394.69162,554.0074,394.6087,556.6876L387.9519,559.49493L382.1949,560.9823"/>
</g>
<g style="fill:rgb(0,0,0); fill-opacity:1.0; stroke-linejoin: miter">
<path d="M354.2022,615.0133L354.20224,615.0134L354.20227,615.01355L354.2022,615.0133"/>
</g>
<g style="fill:rgb(0,0,0); fill-opacity:1.0; stroke-linejoin: miter">
<path d="M355.37408,534.9782L356.96024,533.823Q361.67395,530.28076,366.79053,527.4283Q368.511,526.50305,370.32095,525.7311L372.15894,525.00696Q373.75412,524.38666,376.5442,523.7346Q379.60425,523.12933,381.25232,523.01495L383.3008,522.8591Q385.37302,522.7438,387.5211,522.7584Q392.8723,522.76245,403.0887,523.77Q386.43408,525.15814,377.9208,527.2231Q369.90088,528.9803,355.37408,534.9782"/>
</g>
<g style="fill:rgb(0,0,0); fill-opacity:1.0; stroke-linejoin: miter">
<path d="M397.44714,566.2516L397.4472,566.2517L397.44724,566.25183L397.44714,566.2516"/>
</g>
<g style="fill:rgb(255,255,255); fill-opacity:1.0; stroke-linejoin: miter">
<path d="M311.31006,578.23065L309.22934,577.5428Q302.92746,575.3684,297.16113,574.18756Q295.25882,573.8307,293.47552,573.6947L291.72937,573.6276Q290.2479,573.5732,288.0053,574.02Q285.11694,574.5769,281.6769,577.2338Q280.01788,578.58734,278.521,580.2419Q276.28824,582.7469,274.1924,585.5059Q279.851,586.7336,283.2635,586.8801Q286.71332,586.95233,287.48495,586.804Q288.94382,586.6756,290.48907,586.37506Q292.03696,586.06934,293.67123,585.59143Q294.44614,585.43665,298.72922,583.84875Q303.0496,582.1866,311.31006,578.23065"/>
</g>
<g style="fill:rgb(0,0,0); fill-opacity:1.0; stroke-linejoin: miter">
<path d="M296.5583,584.91473L296.8299,584.5828Q298.70386,582.47516,298.818,580.4751Q299.0037,578.7358,297.05032,574.19464Q292.6045,572.9836,290.3458,573.30304Q288.27377,573.3972,283.51712,575.6163Q281.05237,579.3282,281.19574,581.2845Q281.12384,582.009,281.756,583.7576Q282.24713,585.00946,283.64102,587.3003L290.81644,586.4598L296.5583,584.91473"/>
</g>
<g style="fill:rgb(0,0,0); fill-opacity:1.0; stroke-linejoin: miter">
<path d="M307.0674,549.06604L305.11786,548.8432Q299.27036,548.0863,293.41254,548.1279Q291.45956,548.1715,289.5043,548.39246L287.54825,548.6689Q285.8546,548.91595,283.10587,549.7246Q280.14523,550.707,278.65512,551.4202L276.79617,552.29486Q274.93658,553.21643,273.0751,554.28845Q268.4218,556.9308,260.0309,562.84546Q275.20416,555.84015,283.62854,553.43823Q291.47205,551.01196,307.0674,549.06604"/>
</g>
<g style="fill:rgb(0,0,0); fill-opacity:1.0; stroke-linejoin: miter">
<path d="M285.88806,597.0202L285.88806,597.0203L285.8881,597.02045L285.88806,597.0202"/>
</g>
<g style="fill:rgb(255,72,0); fill-opacity:0.15294118; stroke-linejoin: miter">
<path d="M317.57495,661.8115L319.4136,660.6096Q327.73624,654.54486,338.9899,649.85345Q342.9282,649.01086,345.2972,649.0177Q350.68097,649.4292,352.49103,650.0557Q356.85806,645.4959,367.55258,643.40735Q376.37384,641.6522,407.47256,638.9979Q396.9098,652.83295,384.3397,671.4778Q381.24713,675.23596,376.77756,678.4936Q368.00104,683.6048,361.511,684.4275Q357.1216,685.11597,353.52686,684.78174Q349.76367,684.4044,347.4187,683.6725Q341.29498,681.8729,334.61273,677.11237Q324.37503,669.19006,317.57495,661.8115"/>
</g>
<g style="fill:rgb(255,255,255); fill-opacity:1.0; stroke-linejoin: miter">
<path d="M324.93814,661.45886L327.36945,661.172Q345.93158,659.13464,356.41312,656.5543Q360.20074,655.6065,363.77377,654.5168Q376.27112,650.5419,383.03244,648.57776Q387.19995,647.3367,400.91324,643.4806Q384.4827,662.27435,377.2315,666.93646Q372.16034,670.51654,368.02512,672.0108Q363.63385,673.66943,359.3477,674.1468Q350.1349,675.0125,342.69843,672.2672Q334.19797,669.1716,324.93814,661.45886"/>
</g>
<g style="fill:rgb(255,255,255); fill-opacity:1.0; stroke-linejoin: miter">
<path d="M362.79926,672.38965L362.79926,672.3897L362.79922,672.3898L362.79926,672.38965"/>
</g>
<g style="fill:rgb(255,72,0); fill-opacity:0.16078432; stroke-linejoin: miter">
<path d="M319.80853,632.4466L319.80853,632.4471L340.7815,640.53503L362.93118,618.5581L339.7321,635.81384L319.80853,632.4466"/>
</g>
<g style="fill:rgb(255,72,0); fill-opacity:1.0; stroke-linejoin: miter">
<path d="M363.6246,643.36237L363.62463,643.3625L363.62463,643.3626L363.6246,643.36237"/>
</g>
<g style="fill:rgb(156,39,176); fill-opacity:1.0; stroke-linejoin: miter">
<path d="M-2.1514204,826.1359L18.606432,800.0604L102.46141,799.3581L256.4924,1133.6395L219.77995,1154.1555L-2.1514204,826.1359"/>
</g>
<g style="fill:rgb(255,235,59); fill-opacity:1.0; stroke-linejoin: miter">
<path d="M99.480644,1044.3901L-6.957939,831.42957L1.0709305,819.7079L69.49931,821.39954L233.97815,1150.7449L155.62915,1155.6862L99.480644,1044.3901"/>
</g>
<g style="fill:rgb(255,255,255); fill-opacity:1.0; stroke-linejoin: miter">
<path d="M0.01196289,826.64526L4.2086177,822.04126L68.178566,823.01276L232.50455,1150.0966L223.0781,1150.2301L60.24972,831.377L0.01196289,826.64526"/>
</g>
<g style="fill:rgb(255,255,255); fill-opacity:1.0; stroke-linejoin: miter">
<path d="M104.26434,931.6277L104.26437,931.62775L104.264404,931.6278L104.26434,931.6277"/>
</g>
<g style="fill:rgb(255,255,255); fill-opacity:1.0; stroke-linejoin: miter">
<path d="M13.4206085,813.63556L21.741928,802.3707L101.781296,801.94257L254.95174,1133.7941L238.20912,1143.9324L92.25111,814.5052L13.4206085,813.63556"/>
</g>
<g style="fill:rgb(255,255,255); fill-opacity:1.0; stroke-linejoin: miter">
<path d="M365.2011,1183.6289L365.2013,1183.6294L365.20148,1183.6299L365.2011,1183.6289"/>
</g>
<g style="fill:rgb(255,187,156); fill-opacity:1.0; stroke-linejoin: miter">
<path d="M220.78386,1223.3911L209.13538,1201.6628Q191.14447,1189.4526,187.18599,1175.732L183.49484,1164.2086L194.7468,1165.7224Q183.0823,1152.8141,181.76689,1147.8041Q179.76416,1141.9768,184.43619,1134.8895L212.21378,1139.862Q224.10162,1145.9863,233.8368,1147.3551Q242.89548,1149.0259,268.59528,1148.9807Q262.85745,1150.9685,257.3558,1147.425Q253.87836,1146.0693,243.2188,1132.1942Q238.60507,1126.3494,221.6139,1100.6292Q225.39507,1093.7474,227.09756,1094.2155Q228.21524,1094.1562,229.40697,1095.7814Q234.56906,1104.3263,237.54472,1107.485Q240.2865,1110.4974,244.1229,1113.1875Q249.34029,1117.8202,285.66458,1134.4019Q300.68323,1140.7506,311.68274,1144.1393L369.22534,1161.4263Q384.4723,1166.1069,420.93707,1178.212Q425.7896,1200.9923,415.67938,1221.7969L220.78386,1223.3911"/>
</g>
<g style="fill:rgb(255,187,156); fill-opacity:1.0; stroke-linejoin: miter">
<path d="M81.37063,1145.6498L68.99063,1106.495L89.94859,1056.1897L97.35106,1047.6057Q96.70681,1025.3486,104.237114,1007.0613Q113.19748,987.91644,124.778336,982.17535Q134.07126,977.3412,145.96222,980.06714Q153.5184,980.8078,179.63351,993.2468L187.00204,988.7016L210.3132,1012.4424L170.24008,1038.8112L209.71204,1013.1962L219.73778,1032.983L181.55533,1067.8657L219.6094,1035.793L227.87436,1061.8097L192.77069,1093.249L226.70392,1064.6151L230.9707,1083.7737Q218.97084,1101.4019,207.76999,1111.0978Q191.51761,1124.7571,172.77869,1126.5093Q156.88718,1126.7742,139.9368,1113.3402L113.11531,1163.0723L81.37063,1145.6498"/>
</g>
<g style="fill:rgb(255,255,255); fill-opacity:1.0; stroke-linejoin: miter">
<path d="M374.868,702.1025L374.86798,702.1028L374.86795,702.10315L374.868,702.1025"/>
</g>
<g style="fill:rgb(0,0,0); fill-opacity:0.14901961; stroke-linejoin: miter">
<path d="M443.55612,430.03876L443.55612,430.03876Q452.41653,475.974,456.24692,500.57935Q459.92685,525.066,460.33054,529.684Q461.48138,539.20886,462.28073,548.43835Q463.06943,557.65894,463.50665,566.5841L463.87195,575.449Q464.15738,584.24664,464.1872,592.8296Q464.3256,614.3405,462.60638,651.40625Q469.282,609.84906,470.87305,586.77094Q471.55896,577.5394,471.74985,568.3101L471.786,559.0815L471.51282,549.85425L470.89926,540.6284Q470.0949,531.40344,468.6099,522.1814L466.98566,512.96Q465.20673,503.7393,462.93277,494.5207Q455.86334,466.86606,446.56628,439.2211L443.56055,430.03876 Z M496.7321,511.4691L495.67984,521.4245Q492.5976,551.85065,488.6377,579.196Q485.09192,601.1208,484.12918,604.6158Q482.46585,612.52563,480.5343,619.49414Q478.59467,626.43414,476.3868,632.43274Q475.41394,635.892,469.28177,648.73846Q463.03378,661.17834,450.28552,678.2986Q465.929,663.4567,473.18723,651.8118Q480.2466,639.69507,481.22314,636.23865Q483.6262,630.3936,485.56876,623.45593Q487.4974,616.4851,488.9655,608.42163L490.33948,600.13464Q491.60876,591.5993,492.54318,582.2693Q494.96106,559.1605,496.73706,511.4691 Z M280.44864,678.9613Q287.35205,696.37146,291.55594,703.973Q295.81293,711.29034,296.77618,712.1234Q298.5871,714.4412,300.5163,716.09216Q302.4491,717.72296,304.50018,718.687L306.5755,719.51465Q308.67767,720.1908,310.8659,720.38196Q311.86923,720.4923,313.04285,720.4923Q318.24298,720.4923,326.7859,718.326Q317.0753,717.3439,311.8915,715.4755Q306.73697,713.4235,305.7702,712.6111Q303.77036,711.40186,301.83835,709.7674Q293.16812,702.2625,282.15158,681.97375L280.45145,678.9613 Z M527.89966,615.65015L525.13904,620.84534Q507.93594,655.21387,486.5567,675.05286Q468.22748,692.96906,412.9638,721.0314Q445.5265,708.75714,461.34222,700.3902Q476.84225,691.80835,479.251,689.6216Q484.78302,685.73425,489.58392,681.3494Q494.36264,676.94946,498.41022,672.05194Q500.79126,669.8463,509.24026,656.4661Q517.3681,642.8801,527.9049,615.65015 Z M316.7275,757.1122L316.7275,757.1122Q346.07675,773.913,362.0231,780.8594Q368.41174,783.69446,374.71603,785.97095L380.99396,788.07294Q387.24817,790.0178,393.38635,791.1946Q399.52103,792.3481,405.53973,792.7335L411.5347,792.96185Q412.10925,792.96704,412.683,792.96704Q418.06973,792.96704,423.38754,792.5108Q438.11795,791.38855,463.98227,785.06805L463.97763,785.06805Q437.18732,788.2703,422.1339,788.30475Q421.32892,788.3121,420.52322,788.3121Q415.30518,788.3121,410.05756,788.0059L403.9873,787.52496Q397.90594,786.9293,391.77036,785.77264Q385.6331,784.599,379.44156,782.8644Q376.3723,782.2712,360.7695,776.65326Q341.98645,769.29474,323.02576,760.1002L316.73068,757.1122 Z M265.81625,751.3835L265.81625,751.3835Q291.47574,808.9035,308.24362,825.26465Q312.3521,829.6195,316.72116,833.1538Q318.77838,835.3219,330.29614,842.2833Q341.9264,848.8904,364.32007,856.18774Q331.525,835.6791,315.10486,817.5029Q296.63403,797.70105,269.92053,757.4507L265.8189,751.3835 Z"/>
</g>
<g style="fill:rgb(0,0,0); fill-opacity:1.0; stroke-linejoin: miter">
<path d="M398.14886,849.5941L398.14905,849.59436L398.1492,849.5946L398.14886,849.5941"/>
</g>
</g>
</svg>