<?xml version='1.0' encoding='utf-8'?>
<svg xmlns="http://www.w3.org/2000/svg" version="1.1" id="Layer_1" x="0px" y="0px" viewBox="0 0 2465.607 3117.932" enable-background="new 0 0 2465.607 3117.932"> <g id="XMLID_1_"> <g> <g id="XMLID_2_"> <g> <path fill="#CF101A" d="M749.295,2770.457c0,0,41.81,64.81,23.77,119.1c-9.93-44.13-18.64-87.7-23.78-119.1H749.295z"/> <path fill="#FFFFFF" d="M1389.025,1192.337c24.08-30.8,38.15-70.38,36.5-123.75c27.7,5.79,52.44,12.49,73,20.5 C1474.545,1127.007,1435.445,1160.697,1389.025,1192.337z"/> <path d="M1572.275,996.387c-234.38-70.16-197.06-44.78-425.75-14.05C1317.645,917.017,1422.435,909.947,1572.275,996.387z"/> <path fill="#FEAEC9" d="M1316.585,1174.697c1.33,0.02,2.67-0.14,3.98-0.49c7.46-1.99,12.21-9.35,14.74-16.65 c4-11.53,4.22-23.96,5.26-36.13c1.04-12.16,3.12-24.74,10.13-34.73c7.02-9.99,20.24-16.55,31.73-12.42 c8.66,3.12,14.55,11.6,16.78,20.53s1.35,18.32,0.02,27.43c-3.32,22.62-9.97,45.98-26.2,62.09 c-14.75,14.64-36.78,21.53-57.25,18.02L1316.585,1174.697z"/> <path fill="#FFFFFF" d="M1247.025,1049.587c26.79-11.63,53.47-15.45,80-9.25c5.26,12.98,3.81,25.2-3.5,36.75 c-23.72,20.05-49.67,21.57-77.75,5.25L1247.025,1049.587z"/> <path fill="#FEAEC9" d="M1314.265,1202.067c-20.89-4.14-39.32-19.15-47.58-38.78c-3.93-9.33-5.61-19.42-6.27-29.47 c-0.33-5.1-0.41-10.2-0.39-15.3c0.01-3.22-0.42-6.58,2.5-8.63c4.06-2.85,9.93-4.64,14.81-5.2c6.58-0.75,13.93,1.44,17.48,7.03 c3.02,4.77,2.73,10.86,2.13,16.48c-0.71,6.79-1.7,13.6-1.32,20.43c0.38,6.82,2.26,13.78,6.67,19c3.53,4.18,8.89,7.01,14.29,7.07 l-0.81,27.65C1315.275,1202.257,1314.765,1202.167,1314.265,1202.067z"/> <path fill="#FFFFFF" d="M1227.275,1061.837c-2.81,61.28,11.09,104.8,41.5,130.75c-45.29-11.13-84.11-33.42-116.5-66.75 C1174.775,1099.687,1199.995,1078.767,1227.275,1061.837z"/> <path d="M1425.525,1068.587c1.65,53.37-12.42,92.95-36.5,123.75c46.42-31.64,85.52-65.33,109.5-103.25 C1477.965,1081.077,1453.225,1074.377,1425.525,1068.587z M1268.775,1192.587c-30.41-25.95-44.31-69.47-41.5-130.75 c-27.28,16.93-52.5,37.85-75,64C1184.665,1159.167,1223.485,1181.457,1268.775,1192.587z M1245.775,1082.337 c28.08,16.32,54.03,14.8,77.75-5.25c7.31-11.55,8.76-23.77,3.5-36.75c-26.53-6.2-53.21-2.38-80,9.25L1245.775,1082.337z M1372.275,1209.087c-68.46,21.09-147.99-14.12-232.75-81c48.22-69.31,105.04-106.01,168.75-107.25 c33.69-0.66,64.08,4.57,81.5,13c64.9,17.36,124.86,25.57,172.5,11c-16.6,22.73-34.12,43.07-52.75,60.5 c15.18-2.42,29.74-5.77,43.75-10C1479.525,1145.587,1430.785,1191.067,1372.275,1209.087z M1277.335,1104.687 c-4.88,0.56-10.75,2.35-14.81,5.2c-2.92,2.05-2.49,5.41-2.5,8.63c-0.02,5.1,0.06,10.2,0.39,15.3 c0.66,10.05,2.34,20.14,6.27,29.47c8.26,19.63,26.69,34.64,47.58,38.78c0.5,0.1,1.01,0.19,1.51,0.28 c20.47,3.51,42.5-3.38,57.25-18.02c16.23-16.11,22.88-39.47,26.2-62.09c1.33-9.11,2.21-18.5-0.02-27.43s-8.12-17.41-16.78-20.53 c-11.49-4.13-24.71,2.43-31.73,12.42c-7.01,9.99-9.09,22.57-10.13,34.73c-1.04,12.17-1.26,24.6-5.26,36.13 c-2.53,7.3-7.28,14.66-14.74,16.65c-1.31,0.35-2.65,0.51-3.98,0.49c-5.4-0.06-10.76-2.89-14.29-7.07 c-4.41-5.22-6.29-12.18-6.67-19c-0.38-6.83,0.61-13.64,1.32-20.43c0.6-5.62,0.89-11.71-2.13-16.48 C1291.265,1106.127,1283.915,1103.937,1277.335,1104.687z"/> <path fill="#CF101A" d="M1706.685,1383.287c-127.69,340.69-353.09,587.39-632.82,756.05l-0.87-0.05 c11.66-186.02,2.53-346.95,2.53-346.95c257.33-52.89,459.3-186.98,610.42-395.67c3.96-5.47,7.22-11.34,9.74-17.48 L1706.685,1383.287z"/> <path fill="#FFFCA7" d="M756.495,456.387c72.25-60.44,164.4-82.34,266.03-59.72c259.33,74.01,497.91,376.17,621.75,732.47 c-22.05-45.42-46.01-89.81-72-132.75C1399.365,710.537,1137.295,489.107,756.495,456.387z"/> <path fill="#FFFFFF" d="M802.365,955.167c7.65,15.52,8.34,32.02,3,48c-8.15,24.38-31.32,32.43-59.67,31.67 c-6.15-5.63-15.46-10.28-26.67-14.33c-2.2-30.2,3.16-56.89,22.67-77C766.355,944.147,786.405,948.167,802.365,955.167z"/> <path fill="#FEAEC9" d="M725.665,1098.467c-4-5.7-6.45-12.36-7.98-19.15c-2.43-10.79-4.25-19.29-2.73-29.19 c1.43-9.28,11.26-15.05,19.75-11.04c0.27,0.12,0.54,0.26,0.81,0.41c6.36,3.52,10.01,10.6,11.51,17.72 c1.5,7.11,1.2,14.45,1.68,21.7c0.55,8.49,2.34,17.32,8.65,23.43c2.98,2.88,6.83,4.78,10.96,4.98 c8.78,0.43,13.67-6.42,17.2-13.07c6.55-12.36,10.69-26,12.1-39.91c0.76-7.48,0.85-15.42,4.77-21.84 c2.99-4.91,8.15-8.46,13.82-9.49c5.66-1.03,11.74,0.46,16.28,4c5.42,4.23,8.41,11,9.31,17.82c0.9,6.82-0.08,13.74-1.37,20.49 c-2.49,13.08-6.24,26.16-13.52,37.31c-7.28,11.15-18.5,20.25-31.61,22.56c-10.03,1.78-20.31-0.45-30.09-3.26 C750.175,1117.627,734.655,1111.257,725.665,1098.467z"/> <path fill="#FFFDD7" d="M700.275,2610.877c1.42-2.59,4.74-7.88,9.02-9.81c4.4-1.99,9.81-0.43,15.23,11.27 c12.5,27,17.33,107.56,22.5,143.5c0.65,4.5,1.4,9.39,2.26,14.62c5.14,31.4,13.85,74.97,23.78,119.1 c17.26,76.72,38.19,155.13,50.46,174.28v8.17h-114.23c0,0-48.47-194.22-37.31-344.98c3.24-43.86,11.54-84.04,27.54-114.69 C699.525,2612.337,699.785,2611.767,700.275,2610.877z"/> <path fill="#FFFDD7" d="M1038.015,2812.597c0,0,70.25-152.21,152.51-137.26c10.85,1.97,28-5,21.5,38.5s-54,141-54,141 s-59.53,155.5-32.51,216.5v0.67h-301.99v-8.17c-12.27-19.15-33.2-97.56-50.46-174.28c18.04-54.29-23.77-119.1-23.77-119.1h-0.01 c-0.86-5.23-1.61-10.12-2.26-14.62c-5.17-35.94-10-116.5-22.5-143.5c-5.42-11.7-10.83-13.26-15.23-11.27 c0,0-5.78-38.13-0.82-72.56c2.84-19.74,9.21-38.27,22.22-47.71c7.42-5.39,17.79-4.27,24.06,2.42 c7.71,8.23,17.76,22.97,21.27,46.12c0.14,0.89,0.32,1.87,0.56,2.92c1.1-1.48,17.47-22.72,32.44-2.92c15.5,20.5,64,70,64,70 s20.65-11.99,51.61,20.56c6.98,7.34,14.48,16.94,22.39,29.44C973.785,2691.657,1010.425,2755.277,1038.015,2812.597z"/> <path fill="#ED1B24" d="M958.625,2619.867l-33.99,0.03c-30.96-32.55-51.61-20.56-51.61-20.56s-48.5-49.5-64-70 c-14.97-19.8-31.34,1.44-32.44,2.92c-0.24-1.05-0.42-2.03-0.56-2.92c-3.51-23.15-13.56-37.89-21.27-46.12 c-6.27-6.69-16.64-7.81-24.06-2.42c-13.01,9.44-19.38,27.97-22.22,47.71l-0.22-0.03c3.53-26.6-1.64-44.4-19.06-49.81 c-15.2,6.4-26.35,19.32-36,34.67c-33.44,4.08-79.1,23.63-128.5,47.92c55.79-130.78,153.54-439.08,167.83-558.92 c46.15-141.63,40.74-304.48,30.64-472.98c76.75,102,195.04,188.99,352.36,262.98c0,0,9.13,160.93-2.53,346.95 c-2.16,34.53-5.03,69.93-8.82,105.33C1048.655,2389.757,1017.865,2534.817,958.625,2619.867z"/> <path fill="#FFFFFF" d="M722.025,942.337c-17.66,22.5-40.33,95.5-13.16,153.33c-38.62-35.56-67.76-79.38-84.5-134 C624.365,961.667,707.195,940.337,722.025,942.337z"/> <path fill="#FFFDD7" d="M109.865,2855.337c47.21-56.77,93.48-107.06,137.33-140.67c93.53-63.09,181.57-116.84,252-140.66 c8.58-4.35,17.09-8.62,25.5-12.75c49.4-24.29,95.06-43.84,128.5-47.92c9.65-15.35,20.8-28.27,36-34.67 c17.42,5.41,22.59,23.21,19.06,49.81c-0.91,6.83-2.4,14.25-4.39,22.19l-34,67.34c0,0,15.95-12.35,30.41-7.13 c-0.49,0.89-0.75,1.46-0.75,1.46c-16,30.65-24.3,70.83-27.54,114.69c-20.76,49.92-50.51,99.78-81.96,152.81 c-40.49,68.28-67.97,135.59-78.16,192.17h-460c5.14-64.46,24.98-139.25,51.6-218.8L109.865,2855.337z"/> <path fill="#CF101A" d="M590.025,2879.837c31.45-53.03,61.2-102.89,81.96-152.81c-11.16,150.76,37.31,344.98,37.31,344.98 h-197.43C522.055,3015.427,549.535,2948.117,590.025,2879.837z"/> <path d="M976.865,982.337c-26.2-15.93-188.5-127.4-372.34-144.33C700.035,819.877,873.785,873.527,976.865,982.337z"/> <path fill="#FFFDD7" d="M792.195,932.337c-36.23-17.03-84.03-11.62-138.17-5.17c-9.82,1.17-19.22,1.8-28.04,1.9l-21.46-91.06 c183.84,16.93,346.14,128.4,372.34,144.33c-103.08-108.81-276.83-162.46-372.34-144.33v-53.34 c17.86-150.23,73.04-262.26,151.97-328.28c380.8,32.72,642.87,254.15,815.78,540c-149.84-86.44-254.63-79.37-425.75-14.05 c228.69-30.73,191.37-56.11,425.75,14.05c25.99,42.94,49.95,87.33,72,132.75c22.69,65.26,41.53,132.35,55.94,200.18 c3.58,16.85,1.91,34.22-4.53,49.87c-2.52,6.14-5.78,12.01-9.74,17.48c-151.12,208.69-353.09,342.78-610.42,395.67 c-157.32-73.99-275.61-160.98-352.36-262.98v-0.01c-75.24-99.97-110.57-214.34-103.64-345.01l16.89-142.54 c35.79,42.58,72.51,74.09,104.28,84.04c85,26.62,157.45,16.54,210.17-27.5C904.365,1025.507,856.115,962.387,792.195,932.337z M1308.275,1020.837c-63.71,1.24-120.53,37.94-168.75,107.25c84.76,66.88,164.29,102.09,232.75,81 c58.51-18.02,107.25-63.5,181-113.75c-14.01,4.23-28.57,7.58-43.75,10c18.63-17.43,36.15-37.77,52.75-60.5 c-47.64,14.57-107.6,6.36-172.5-11C1372.355,1025.407,1341.965,1020.177,1308.275,1020.837z M968.525,1373.007 c-11.44-35.56-8.66-71.11,8.34-106.67l-29.67,59L968.525,1373.007z"/> <path d="M741.695,943.507c-19.51,20.11-24.87,46.8-22.67,77c11.21,4.05,20.52,8.7,26.67,14.33 c28.35,0.76,51.52-7.29,59.67-31.67c5.34-15.98,4.65-32.48-3-48C786.405,948.167,766.355,944.147,741.695,943.507z M717.685,1079.317c1.53,6.79,3.98,13.45,7.98,19.15c8.99,12.79,24.51,19.16,39.54,23.47c9.78,2.81,20.06,5.04,30.09,3.26 c13.11-2.31,24.33-11.41,31.61-22.56c7.28-11.15,11.03-24.23,13.52-37.31c1.29-6.75,2.27-13.67,1.37-20.49 c-0.9-6.82-3.89-13.59-9.31-17.82c-4.54-3.54-10.62-5.03-16.28-4c-5.67,1.03-10.83,4.58-13.82,9.49 c-3.92,6.42-4.01,14.36-4.77,21.84c-1.41,13.91-5.55,27.55-12.1,39.91c-3.53,6.65-8.42,13.5-17.2,13.07 c-4.13-0.2-7.98-2.1-10.96-4.98c-6.31-6.11-8.1-14.94-8.65-23.43c-0.48-7.25-0.18-14.59-1.68-21.7 c-1.5-7.12-5.15-14.2-11.51-17.72c-0.27-0.15-0.54-0.29-0.81-0.41c-8.49-4.01-18.32,1.76-19.75,11.04 C713.435,1060.027,715.255,1068.527,717.685,1079.317z M654.025,927.167c54.14-6.45,101.94-11.86,138.17,5.17 c63.92,30.05,112.17,93.17,158.67,166c-52.72,44.04-125.17,54.12-210.17,27.5c-31.77-9.95-68.49-41.46-104.28-84.04 c-19.98-23.76-39.67-50.96-58.05-79.79l26,3.66l-37.84-49.5c11.46,8.77,32.81,13.23,59.46,12.9 C634.805,928.967,644.205,928.337,654.025,927.167z M708.865,1095.667c-27.17-57.83-4.5-130.83,13.16-153.33 c-14.83-2-97.66,19.33-97.66,19.33C641.105,1016.287,670.245,1060.107,708.865,1095.667z"/> <path fill="#ED1B24" d="M1190.525,2675.337c-82.26-14.95-152.51,137.26-152.51,137.26c-27.59-57.32-64.23-120.94-90.99-163.26 c-7.91-12.5-15.41-22.1-22.39-29.44l33.99-0.03c59.24-85.05,90.03-230.11,105.55-375.25c3.79-35.4,6.66-70.8,8.82-105.33 l0.87,0.05c279.73-168.66,505.13-415.36,632.82-756.05l-11-4.1c6.44-15.65,8.11-33.02,4.53-49.87 c-14.41-67.83-33.25-134.92-55.94-200.18c-123.84-356.3-362.42-658.46-621.75-732.47c-101.63-22.62-193.78-0.72-266.03,59.72 c-78.93,66.02-134.11,178.05-151.97,328.28v53.34l21.46,91.06c-26.65,0.33-48-4.13-59.46-12.9l37.84,49.5l-26-3.66 c18.38,28.83,38.07,56.03,58.05,79.79l-16.89,142.54c-2.66-37.03-18.65-67.15-38.5-98c-50.5-78.5-67.21-199.8-64-320 c5.52-206.27,81.7-368.71,218-503c123.55-121.72,277.54-224.76,513-217c275.74,9.09,488.97,128.19,629.5,339.5 c190.36,286.22,200.05,628.7,125,1003.5c-1.42,4.06-2.84,8.14-4.26,12.22h0.01c-30.28,164.94-54.84,330.76-64.93,497.35 c-4.93,148.42,82.62,279.74,125.18,307.19c239.13,154.24,238.82,203.15,267.62,267.62c17.95,40.19,64.52,127.18,87.38,202.62 c0.68,2.23,0.34,395.67,0.34,395.67h-1288.35v-0.67c-27.02-61,32.51-216.5,32.51-216.5s47.5-97.5,54-141 S1201.375,2677.307,1190.525,2675.337z"/> <path fill="#CF101A" d="M692.525,2002.337c-14.29,119.84-112.04,428.14-167.83,558.92c-8.41,4.13-16.92,8.4-25.5,12.75 c-70.43,23.82-158.47,77.57-252,140.66c-24.61-48.03-60.17-86.39-108.6-113.42l9.93-0.91c0.39-3.15,0.81-6.28,1.26-9.38 c16.43-114.86,69.86-200.78,153.74-260.62C501.035,2189.437,660.175,2101.627,692.525,2002.337z"/> <path fill="#FFFDD7" d="M95.195,2612.667c3.91-24.41,29.43-28.27,54.59-21.71c-0.45,3.1-0.87,6.23-1.26,9.38l-9.93,0.91 c48.43,27.03,83.99,65.39,108.6,113.42c-43.85,33.61-90.12,83.9-137.33,140.67l-6.4-2.13c0.13-0.4,0.27-0.8,0.4-1.2 C113.175,2791.117,87.195,2662.667,95.195,2612.667z"/> </g> <g> <path fill="none" stroke="#000000" stroke-width="5" stroke-miterlimit="10" d="M723.165,1529.357 c76.75,102,195.04,188.99,352.36,262.98c257.33-52.89,459.3-186.98,610.42-395.67c3.96-5.47,7.22-11.34,9.74-17.48 c6.44-15.65,8.11-33.02,4.53-49.87c-14.41-67.83-33.25-134.92-55.94-200.18c-123.84-356.3-362.42-658.46-621.75-732.47 c-101.63-22.62-193.78-0.72-266.03,59.72c-78.93,66.02-134.11,178.05-151.97,328.28v53.34l21.46,91.06"/> <path fill="none" stroke="#000000" stroke-width="5" stroke-miterlimit="10" d="M636.415,1041.797l-16.89,142.54 c-6.93,130.67,28.4,245.04,103.64,345.01"/> <path fill="none" stroke="#000000" stroke-width="5" stroke-linecap="round" stroke-miterlimit="10" d="M619.525,1184.337 c-2.66-37.03-18.65-67.15-38.5-98c-50.5-78.5-67.21-199.8-64-320c5.52-206.27,81.7-368.71,218-503 c123.55-121.72,277.54-224.76,513-217c275.74,9.09,488.97,128.19,629.5,339.5c190.36,286.22,200.05,628.7,125,1003.5 c-1.42,4.06-2.84,8.14-4.26,12.22c-96.67,278.07-195.93,594.84-208.74,939.78"/> <path fill="none" stroke="#000000" stroke-width="5" stroke-linecap="round" stroke-miterlimit="10" d="M1817.525,838.337 c-12.31,203.56-50.76,384.66-110.84,544.95c-127.69,340.69-353.09,587.39-632.82,756.05"/> <path fill="none" stroke="#000000" stroke-width="5" stroke-linecap="round" stroke-miterlimit="10" d="M1075.525,1792.337 c0,0,9.13,160.93-2.53,346.95c-2.16,34.53-5.03,69.93-8.82,105.33c-15.52,145.14-46.31,290.2-105.55,375.25"/> <path fill="none" stroke="#000000" stroke-width="5" stroke-linecap="round" stroke-miterlimit="10" d="M1064.175,2244.617 c0,0-120.54,144.26-204.54,207.25"/> <path fill="none" stroke="#000000" stroke-width="5" stroke-miterlimit="10" d="M756.495,456.387 c380.8,32.72,642.87,254.15,815.78,540c25.99,42.94,49.95,87.33,72,132.75"/> <path fill="none" stroke="#000000" stroke-width="5" stroke-linecap="round" stroke-miterlimit="10" d="M1998.275,1401.557 c-30.28,164.94-54.84,330.76-64.93,497.35c-15.16,250.19,2.34,502.12,82.18,755.43"/> <path fill="none" stroke="#000000" stroke-width="5" stroke-miterlimit="10" d="M723.165,1529.347v0.01 c10.1,168.5,15.51,331.35-30.64,472.98c-32.35,99.29-191.49,187.1-389,328c-83.88,59.84-137.31,145.76-153.74,260.62 c-0.45,3.1-0.87,6.23-1.26,9.38"/> <path fill="none" stroke="#000000" stroke-width="5" stroke-linecap="round" stroke-miterlimit="10" d="M1180.475,1509.117 c-11.28-2.06-22.26,3.77-33.01,7.74c-14.42,5.32-29.79,7.45-45.02,9.54c-5.08,0.69-10.17,1.39-15.3,1.42 c-11.16,0.05-22.04-3.06-32.93-5.47c-28.58-6.32-57.97-7.84-87.16-9.95c-4.97-0.35-9.98-0.74-14.79-2.03 c-7.92-2.12-14.96-6.6-21.87-11.02"/> <path fill="none" stroke="#000000" stroke-width="5" stroke-linecap="round" stroke-linejoin="round" stroke-miterlimit="10" d=" M976.865,1266.337l-29.67,59l21.33,47.67C957.085,1337.447,959.865,1301.897,976.865,1266.337z"/> <path fill="none" stroke="#000000" stroke-width="4" stroke-linecap="round" stroke-linejoin="round" stroke-miterlimit="10" d=" M633.525,914.667c57.28-6.47,110.74-5.93,158,6c66.5,22.17,104,96.92,160.67,158.67"/> <path fill="none" stroke="#000000" stroke-width="4" stroke-linecap="round" stroke-linejoin="round" stroke-miterlimit="10" d=" M1139.525,1111.837c35.45-51.24,82.88-89.86,151.25-96.75c41.32-4.16,77.33,2.37,106.5,10.75c38.84,11.15,76.49,14.4,105.5,14.5 "/> <path fill="none" stroke="#000000" stroke-width="3" stroke-miterlimit="10" d="M521.195,2569.337c1.14-2.61,2.31-5.31,3.5-8.08 c55.79-130.78,153.54-439.08,167.83-558.92c-33.62,133.98-93.62,251.12-180.66,351"/> <path fill="none" stroke="#000000" stroke-width="5" stroke-miterlimit="10" d="M151.195,2591.337 c-0.47-0.13-0.94-0.26-1.41-0.38c-25.16-6.56-50.68-2.7-54.59,21.71c-8,50,17.98,178.45,8.67,239.34c-0.13,0.4-0.27,0.8-0.4,1.2 c-26.62,79.55-46.46,154.34-51.6,218.8h460h197.43h114.23h301.99h1288.35c0,0,0.34-393.44-0.34-395.67 c-22.86-75.44-69.43-162.43-87.38-202.62c-28.8-64.47-28.49-113.38-267.62-267.62c-42.56-27.45-130.11-158.77-125.18-307.19"/> <path fill="none" stroke="#000000" stroke-width="5" stroke-linecap="round" stroke-miterlimit="10" d="M133.865,2598.667 c1.59,0.85,3.16,1.71,4.73,2.58c48.43,27.03,83.99,65.39,108.6,113.42c-43.85,33.61-90.12,83.9-137.33,140.67"/> <path fill="none" stroke="#000000" stroke-width="5" stroke-linecap="round" stroke-miterlimit="10" d="M247.195,2714.667 c93.53-63.09,181.57-116.84,252-140.66c8.58-4.35,17.09-8.62,25.5-12.75c49.4-24.29,95.06-43.84,128.5-47.92 c9.65-15.35,20.8-28.27,36-34.67c17.42,5.41,22.59,23.21,19.06,49.81c-0.91,6.83-2.4,14.25-4.39,22.19l-34,67.34 c-66.12,70.41-139.93,180.95-216,303.33"/> <path fill="none" stroke="#000000" stroke-width="5" stroke-linecap="round" stroke-miterlimit="10" d="M499.195,2574.007 c-8.82,9.93-18.84,18.8-30,26.66c-25.96,22.2-57.31,43.04-92.35,62.96c-27.68,15.74-51.48,37.47-69.9,63.46 c-21.98,31.01-44.15,65.39-66.42,101.58"/> <path fill="none" stroke="#000000" stroke-width="5" stroke-linecap="round" stroke-miterlimit="10" d="M653.195,2513.337 c-41.78,57.12-102.67,110.67-164.67,160c-23.69,18.85-41.38,34.78-54.66,55.33c-21.77,33.68-56.78,77.25-88,126.67"/> <path fill="none" stroke="#000000" stroke-width="5" stroke-miterlimit="10" d="M709.295,3072.007 c0,0-48.47-194.22-37.31-344.98c3.24-43.86,11.54-84.04,27.54-114.69c0,0,0.26-0.57,0.75-1.46c1.42-2.59,4.74-7.88,9.02-9.81 c4.4-1.99,9.81-0.43,15.23,11.27c12.5,27,17.33,107.56,22.5,143.5c0.65,4.5,1.4,9.39,2.26,14.62 c5.14,31.4,13.85,74.97,23.78,119.1c17.26,76.72,38.19,155.13,50.46,174.28"/> <path fill="none" stroke="#000000" stroke-width="5" stroke-miterlimit="10" d="M669.865,2618.007c0,0,15.95-12.35,30.41-7.13 c0.75,0.27,1.51,0.59,2.25,0.96"/> <path fill="none" stroke="#000000" stroke-width="5" stroke-miterlimit="10" d="M511.865,3072.007 c10.19-56.58,37.67-123.89,78.16-192.17c31.45-53.03,61.2-102.89,81.96-152.81c0-0.01,0.01-0.01,0.01-0.02"/> <path fill="none" stroke="#000000" stroke-width="5" stroke-miterlimit="10" d="M749.295,2770.457c0,0,41.81,64.81,23.77,119.1"/> <path fill="none" stroke="#000000" stroke-width="3" stroke-linecap="round" stroke-miterlimit="10" d="M903.525,2806.837 c0,0,32.5,201,32.5,229"/> <path fill="none" stroke="#000000" stroke-width="3" stroke-linecap="round" stroke-miterlimit="10" d="M1004.525,2855.337 c0,0,40.5,136.5,40.5,189"/> <path fill="none" stroke="#000000" stroke-width="5" stroke-linecap="round" stroke-miterlimit="10" d="M709.295,2601.067 c0,0-5.78-38.13-0.82-72.56c2.84-19.74,9.21-38.27,22.22-47.71c7.42-5.39,17.79-4.27,24.06,2.42 c7.71,8.23,17.76,22.97,21.27,46.12c0.14,0.89,0.32,1.87,0.56,2.92c10.23,45.42,112.44,234.08,112.44,234.08"/> <path fill="none" stroke="#000000" stroke-width="5" stroke-linecap="round" stroke-miterlimit="10" d="M776.525,2532.337 c0,0,0.02-0.03,0.06-0.08c1.1-1.48,17.47-22.72,32.44-2.92c15.5,20.5,64,70,64,70s90,168,115,200.5"/> <path fill="none" stroke="#000000" stroke-width="5" stroke-linecap="round" stroke-miterlimit="10" d="M873.025,2599.337 c0,0,20.65-11.99,51.61,20.56c6.98,7.34,14.48,16.94,22.39,29.44c26.76,42.32,63.4,105.94,90.99,163.26 c16.74,34.79,30.16,67.26,36.01,91.24"/> <path fill="none" stroke="#000000" stroke-width="5" stroke-linecap="round" stroke-miterlimit="10" d="M1038.015,2812.597 c0,0,70.25-152.21,152.51-137.26c10.85,1.97,28-5,21.5,38.5s-54,141-54,141s-59.53,155.5-32.51,216.5"/> <path fill="none" stroke="#000000" stroke-width="3" stroke-linecap="round" stroke-miterlimit="10" d="M1091.525,2957.667 c0,0,19,73.34,23.34,103.67"/> </g> </g> </g> </g> </svg>