<?xml version="1.0" encoding="utf-8"?>
<svg xmlns="http://www.w3.org/2000/svg" xmlns:xlink="http://www.w3.org/1999/xlink" version= "1.1" width="1173px" height="1172px" viewBox="1149 1265 1173 1172">
<g id="layer1" opacity="0.0">
<g style="fill:rgb(0,0,0); fill-opacity:1.0; stroke-linejoin: miter">
<path d="M1147.3527,1266.1188L1735.5,1266.1193L2323.6475,1266.1198Q2323.6475,1854.2667,2323.6475,2442.4136Q1735.5,2442.4143,1147.3527,2442.4148Q1147.3527,1854.2668,1147.3527,1266.1188"/>
</g>
</g>
<g id="layer2">
<g style="fill:rgb(0,188,233); fill-opacity:0.99607843; stroke-linejoin: miter">
<path d="M1146.1309,1249.1588L1749.1675,1249.1593L2352.204,1249.1597Q2352.204,1852.196,2352.204,2455.2324Q1749.1675,2455.233,1146.1309,2455.2334Q1146.1309,1852.196,1146.1309,1249.1588"/>
</g>
<g style="fill:rgb(0,0,0); fill-opacity:0.16862746; stroke-linejoin: miter">
<path d="M1146.1309,2011.4181Q1146.1309,2233.3257,1146.1309,2455.2334Q1749.1675,2455.233,2352.204,2455.2324Q2352.204,2233.3262,2352.204,2011.4208L2352.2356,2011.4222L2352.204,2011.4193Q2352.204,2011.42,2352.204,2011.4208L2352.204,2011.4222L1980.0681,2011.4188L1980.0544,2011.4196L1980.0544,2011.421L1980.0684,2011.4203L1980.0671,2011.4215L1980.0405,2011.4203L1980.0405,2011.4215L1980.0393,2011.4203Q1980.0393,2011.4203,1980.0393,2011.4203L1980.0405,2011.4215L1980.0544,2011.4196L1980.0544,2011.421L1980.0405,2011.4188Q1980.0398,2011.4196,1980.0393,2011.4203L1980.0393,2011.4215L1970.5181,2011.4188L1970.4905,2011.4203L1970.5181,2011.4215L1734.8506,2011.4186L1146.1501,2011.4181 Z"/>
</g>
<g style="fill:rgb(227,237,242); fill-opacity:1.0; stroke-linejoin: miter">
<path d="M1406.1902,2307.4292L1316.8516,2259.8196L1227.513,2212.21Q1413.8762,2157.3945,1600.2395,2102.579L1929.1858,2043.3048Q1988.3418,2069.8848,2047.4978,2096.4648L1406.1902,2307.4292"/>
</g>
<g style="fill:rgb(99,112,121); fill-opacity:1.0; stroke-linejoin: miter">
<path d="M2123.5056,2114.36L2272.9546,2182.9934L2055.66,2246.9539L1805.2556,2323.4492L1595.862,2234.227L2021.3564,2093.7773L2123.5056,2114.36"/>
</g>
<g style="fill:rgb(255,184,165); fill-opacity:1.0; stroke-linejoin: miter">
<path d="M1643.0898,1971.0563L1613.8828,1984.4237Q1591.8257,2002.1804,1578.7051,2008.869Q1567.3713,2014.8108,1557.0571,2012.8025Q1547.9954,2010.3164,1542.1973,2002.9703Q1534.9448,1994.2551,1534.8269,1985.9545Q1535.3181,1980.3303,1540.9534,1977.3583Q1545.3472,1974.7268,1556.7888,1971.8163Q1532.4292,1973.124,1519.315,1969.5188Q1513.0042,1967.6713,1510.2971,1964.4832Q1508.5352,1962.4164,1508.8071,1960.574Q1509.6658,1958.4745,1510.5378,1958.3096Q1512.6052,1957.0742,1518.0728,1957.0924Q1519.8694,1956.853,1544.1189,1958.8871Q1546.8523,1959.079,1553.4917,1959.3005Q1566.4204,1959.6901,1589.2839,1959.2301L1624.4009,1939.193L1643.0898,1971.0563"/>
</g>
<g style="fill:rgb(0,0,0); fill-opacity:0.99607843; stroke-linejoin: miter">
<path d="M1740.1187,1538.4277L1737.0337,1537.3027Q1723.0803,1532.2717,1718.4282,1527.9397Q1714.0608,1523.4664,1714.013,1522.1624Q1713.0679,1519.9741,1712.9575,1517.3762Q1712.2578,1501.6688,1737.5894,1476.3942Q1756.5916,1459.7491,1774.7046,1455.9684Q1798.3918,1450.3982,1820.0271,1458.6224Q1839.0481,1466.9044,1848.5259,1480.7272Q1861.4622,1498.4469,1866.1206,1521.9353Q1868.7056,1540.9214,1867.7002,1544.5109Q1867.2693,1551.8916,1865.395,1558.6921Q1859.1663,1578.7234,1842.6926,1593.6604Q1826.219,1608.5975,1806.3306,1621.8367L1740.1187,1538.4277"/>
</g>
<g style="fill:rgb(255,255,255); fill-opacity:1.0; stroke-linejoin: miter">
<path d="M1924.1672,2059.8584L1917.7168,2124.0781Q1753.7095,2176.597,1713.8364,2165.8652Q1709.321,2165.7197,1692.4526,2160.753Q1648.845,2141.9402,1641.1797,2141.2944L1574.2192,2132.2273Q1556.6836,2128.266,1550.5068,2124.6646Q1516.7219,2109.0034,1516.2034,2065.4202Q1520.4827,2045.2922,1528.9353,2037.071Q1539.5554,2022.6255,1570.8318,2001.9558Q1599.012,1984.4736,1621.7537,1974.7152Q1726.2808,1933.919,1733.8457,1928.1936Q1758.9299,1915.3391,1768.6355,1900.0612Q1784.2039,1879.9867,1797.8948,1806.5334L1784.5481,1790.1846Q1762.5334,1855.2278,1738.1428,1888.522Q1716.1406,1921.6786,1645.3679,1989.5366L1611.1318,1942.513Q1681.6233,1863.1655,1705.9995,1815.7284Q1716.1992,1794.7661,1719.4243,1776.2644Q1721.7454,1769.2512,1724.967,1718.643Q1725.8425,1711.4043,1727.71,1704.7072Q1729.5635,1694.2313,1744.0996,1674.0867Q1754.9878,1659.9105,1781.0938,1637.1328L1871.98,1590.0327L1878.6975,1615.3761Q1931.9436,1616.4668,1971.5908,1653.2266Q1993.2415,1678.6385,1998.2512,1734.499Q2003.3833,1781.9937,1996.3682,1826.4408Q1995.8386,1832.3363,1989.1157,1855.2192Q1965.9275,1914.0842,1967.1091,1919.6082Q1966.1165,1922.7546,1967.0032,1937.1733L1972.0051,1970.629Q1972.3789,1984.5582,1971.1506,1987.4797Q1968.239,2010.1239,1924.1672,2059.8584"/>
</g>
<g style="fill:rgb(255,184,165); fill-opacity:1.0; stroke-linejoin: miter">
<path d="M1816.9792,1700.4308L1806.4839,1649.4446Q1778.6638,1658.0345,1773.2981,1654.6471Q1770.709,1653.3357,1769.4739,1650.9213L1766.2737,1643.4336Q1765.6824,1642.2693,1764.8762,1641.3201L1762.1577,1638.8903L1756.7927,1635.7031L1755.4282,1634.387Q1754.613,1632.3524,1759.3105,1629.0421Q1752.8147,1631.093,1751.5535,1628.6371Q1750.302,1626.3585,1750.7803,1619.6577Q1737.5371,1621.926,1735.4602,1617.0712Q1732.8533,1611.5078,1741.0823,1589.2184L1732.1489,1553.0934Q1730.8425,1546.7565,1730.9534,1540.5623Q1731.6692,1527.4221,1740.9141,1521.8418Q1756.2925,1512.005,1768.3184,1518.0433Q1770.6694,1519.4437,1772.3489,1525.0477Q1773.4661,1527.7255,1772.4524,1539.3116Q1772.4314,1541.3923,1773.4827,1542.7087Q1775.2163,1544.168,1776.0898,1544.2194Q1788.9038,1546.4777,1789.7441,1547.2374Q1793.6377,1548.5818,1796.8721,1551.6796Q1803.9329,1558.9827,1810.2231,1578.2205L1816.9685,1575.1915Q1810.449,1555.4231,1817.1084,1547.4523Q1828.4836,1537.1359,1840.625,1543.713Q1846.2732,1547.9581,1849.5161,1557.1023L1864.5527,1608.9625L1824.8,1645.7384L1816.9792,1700.4308"/>
</g>
<g style="fill:rgb(255,184,165); fill-opacity:1.0; stroke-linejoin: miter">
<path d="M1789.1868,2004.5521L1776.3662,2018.2924Q1772.6584,2039.0665,1766.7212,2047.3644Q1761.6523,2053.6978,1751.5713,2056.8982Q1747.8911,2059.9546,1744.2449,2063.601Q1740.5989,2067.2476,1737.0552,2072.665Q1726.4421,2091.5005,1724.6663,2092.988Q1719.8313,2099.31,1713.7246,2100.522Q1706.8799,2100.7917,1711.158,2089.8901Q1713.4822,2082.671,1732.3105,2052.6543Q1721.3755,2063.4797,1714.7554,2071.1301Q1712.4377,2073.2227,1697.102,2094.0928Q1693.0784,2098.9053,1692.342,2099.3923Q1688.123,2103.5552,1684.1199,2103.1223Q1680.4792,2101.766,1680.7971,2097.9375Q1680.6707,2092.664,1687.0327,2082.121Q1694.3154,2070.0178,1713.5977,2045.0061Q1687.5684,2081.244,1675.7332,2093.7827Q1664.0901,2105.7925,1662.4038,2098.0442Q1662.0693,2093.6357,1665.5747,2085.864Q1669.5317,2076.9634,1680.1658,2059.3345L1704.9004,2034.7207Q1676.0193,2075.638,1668.8174,2082.925Q1659.133,2093.8352,1657.3809,2087.8857Q1656.4453,2067.1978,1690.0217,2029.5566Q1697.9712,2021.0769,1706.9502,2015.2721Q1714.7922,2010.1736,1727.8047,2004.0154L1742.4136,1995.0126L1760.043,1978.8002L1789.1868,2004.5521"/>
</g>
<g style="fill:rgb(255,184,165); fill-opacity:1.0; stroke-linejoin: miter">
<path d="M1595.9238,1985.872L1595.9238,1985.8729Q1587.1406,2001.7596,1582.1226,2008.0319Q1580.1187,2010.6005,1578.0823,2012.5719L1576.0356,2014.3568L1573.969,2015.7687L1571.8799,2016.7699Q1569.4417,2017.7653,1566.0349,2017.3634L1564.2107,2016.9889Q1562.3799,2016.4922,1560.5271,2015.5948Q1556.8496,2014.3121,1545.5034,2004.6796L1595.9238,1985.872"/>
</g>
<g style="fill:rgb(255,54,0); fill-opacity:0.10980392; stroke-linejoin: miter">
<path d="M1579.5613,1994.4258L1577.939,1995.0785Q1570.6445,1998.0312,1566.3435,1999.0006Q1564.6316,1999.4108,1562.8682,1999.6823Q1561.594,1999.9338,1558.3008,2000.0956Q1554.0571,2000.3005,1549.6743,1999.1075Q1548.4111,1998.7025,1547.5334,1998.127L1546.7827,1997.5076Q1546.1438,1996.8448,1546.0752,1996.0046Q1546.0063,1995.1644,1546.6311,1994.1417L1547.5493,1992.9647L1548.8843,1991.6858Q1550.4277,1990.3557,1552.6533,1988.8588Q1556.2329,1986.0782,1576.8264,1975.3253Q1554.064,1985.2552,1550.1025,1988.1802Q1547.6406,1989.6937,1545.9319,1991.1273L1544.4531,1992.5365L1543.4346,1993.8967L1542.9082,1995.1837L1542.8257,1996.4093L1543.1443,1997.564L1543.821,1998.638L1544.8125,1999.6217Q1545.9614,2000.5603,1547.5681,2001.2799L1549.2463,2001.935Q1551.0171,2002.5306,1552.9875,2002.8492Q1554.7771,2003.1693,1557.3174,2003.1683Q1559.3237,2003.1323,1561.2595,2002.7766L1563.1809,2002.3556Q1565.0864,2001.8619,1566.9407,2001.1357Q1571.5889,1999.3785,1579.5613,1994.4258"/>
</g>
<g style="fill:rgb(0,0,0); fill-opacity:1.0; stroke-linejoin: miter">
<path d="M2091.9995,2143.2617L2093.6855,2143.1792Q2104.515,2142.3372,2106.3835,2148.731Q2108.9893,2154.1714,2105.2322,2179.8696L2115.2861,2203.8706Q2084.11,2213.0376,2039.0146,2215.9521Q1962.2854,2220.8342,1923.0,2207.572Q1910.2051,2203.2256,1901.1577,2197.03Q1890.7339,2188.9155,1889.8528,2186.7795Q1887.7063,2185.1343,1883.1321,2174.7175Q1880.21,2166.0881,1880.8645,2157.3298Q1881.519,2148.5715,1885.1465,2141.1775Q1887.2375,2134.942,1897.8447,2126.9294Q1904.303,2122.8564,1912.1438,2120.45Q1912.4338,2119.7969,1943.5183,2112.8447Q1952.4407,2109.211,1955.0044,2104.9595Q1958.843,2100.1917,1960.7646,2091.318L1962.3105,2081.5586L1965.5938,2047.252Q1967.8123,2033.3698,1968.8506,2031.3401Q1973.7339,2014.1475,1991.6528,2000.9565L2001.592,1993.9846L2069.3662,1994.7833L2106.0884,1986.719Q2116.7163,2036.1842,2112.1274,2084.1687Q2109.9502,2109.7378,2105.296,2123.6602Q2102.0415,2134.7551,2091.9995,2143.2617"/>
</g>
<g style="fill:rgb(255,184,165); fill-opacity:1.0; stroke-linejoin: miter">
<path d="M2019.1287,2158.808L2010.9668,2161.6592Q2003.5164,2170.7966,2000.6802,2171.4937Q1997.6226,2172.8862,1992.6067,2172.0723Q1990.4534,2172.529,1988.188,2173.2336Q1985.9226,2173.938,1983.3203,2175.3853Q1974.9675,2180.783,1973.926,2181.0088Q1970.6743,2182.4949,1968.0308,2181.7986Q1964.8638,2180.6516,1969.0879,2176.8564Q1971.5796,2174.4143,1985.6724,2166.2217Q1978.9023,2168.2888,1974.5691,2169.987Q1973.1772,2170.343,1962.4646,2175.5593Q1959.7961,2176.6577,1959.3921,2176.6985Q1957.0942,2177.4265,1955.4514,2176.6018Q1953.9827,2175.7036,1955.04,2173.5664Q1957.4358,2170.2224,1962.5894,2167.554Q1965.6526,2165.6475,1979.6892,2159.1016Q1961.3328,2168.2866,1953.8296,2170.8594Q1946.6697,2173.253,1947.4692,2169.7925Q1948.3076,2167.8486,1951.3882,2165.46Q1954.9045,2162.6826,1963.008,2157.7808L1978.3489,2153.0522Q1969.4575,2157.613,1961.8367,2161.2686Q1956.8342,2163.6494,1953.3376,2164.9575Q1949.6436,2166.2263,1948.9971,2166.0427Q1948.2739,2166.0386,1947.9263,2165.7861Q1947.5557,2165.7766,1947.6023,2164.598Q1951.6736,2155.8713,1973.396,2147.7651Q1978.7449,2145.984,1982.7517,2145.6313Q1986.1995,2145.1677,1994.2483,2145.4507L2002.124,2144.9116L2012.7734,2142.083L2019.1287,2158.808"/>
</g>
<g style="fill:rgb(255,184,165); fill-opacity:1.0; stroke-linejoin: miter">
<path d="M1931.2002,2127.6143L1931.2002,2127.6152Q1925.0391,2135.9924,1921.7256,2139.1855Q1920.3977,2140.4968,1919.0955,2141.4668L1917.8013,2142.3298L1916.523,2142.9792L1915.2625,2143.394Q1914.0842,2143.6853,1912.6833,2143.473L1911.5957,2143.2104Q1910.5146,2142.862,1909.4543,2142.2332Q1908.9148,2142.0474,1906.3098,2139.8704Q1904.749,2138.533,1901.1699,2134.5806L1931.2002,2127.6143"/>
</g>
<g style="fill:rgb(255,184,165); fill-opacity:1.0; stroke-linejoin: miter">
<path d="M1951.2053,2131.8936L1932.8179,2132.582Q1917.2563,2137.1592,1908.8464,2137.8303Q1904.5046,2138.0771,1901.9353,2137.4634Q1900.5195,2137.1646,1899.2773,2136.6665Q1898.553,2136.5417,1895.9233,2134.7249Q1895.3293,2134.451,1893.2869,2131.8887Q1891.7368,2129.6487,1890.8071,2126.72Q1888.8738,2120.5195,1890.627,2116.0994Q1891.875,2113.5098,1895.2107,2112.9722Q1898.0105,2112.3691,1905.3477,2113.4185Q1892.1636,2108.7798,1886.0095,2104.0046Q1883.1907,2101.9917,1882.1807,2098.779Q1881.9216,2097.4292,1882.6292,2096.685Q1883.7295,2095.9763,1884.2454,2096.124Q1886.3218,2096.2942,1888.7302,2097.435L1901.468,2103.8013Q1903.3,2104.6912,1905.2034,2105.5574Q1910.8196,2108.187,1925.3052,2113.8623L1948.2803,2110.9355L1951.2053,2131.8936"/>
</g>
<g style="fill:rgb(255,54,0); fill-opacity:0.10980392; stroke-linejoin: miter">
<path d="M1921.2739,2131.2666L1920.427,2131.4863Q1913.9949,2133.305,1909.3369,2132.9692Q1906.7117,2132.6785,1906.2493,2132.4966Q1905.2632,2132.2622,1904.4382,2131.9346Q1903.613,2131.607,1903.042,2131.1946L1902.5576,2130.7632Q1902.1484,2130.3115,1902.1328,2129.788Q1902.1272,2128.1987,1906.3987,2126.1204Q1908.6375,2124.8047,1921.1292,2120.2144Q1913.1387,2122.5254,1910.2649,2123.5286Q1908.2849,2124.1958,1906.594,2124.8699L1904.9993,2125.5464Q1903.489,2126.2246,1902.4126,2126.913L1901.4685,2127.6045L1900.7896,2128.3022L1900.3916,2129.0051L1900.258,2129.7058L1900.3638,2130.3948L1900.6843,2131.0637L1901.1946,2131.7031Q1901.7996,2132.3276,1902.6848,2132.8572L1903.6152,2133.3538Q1904.6033,2133.8223,1905.7227,2134.141Q1906.5842,2134.4358,1908.5078,2134.6418Q1909.5454,2134.7158,1910.5334,2134.645Q1911.0383,2134.6812,1913.5022,2134.174Q1913.9978,2134.1035,1916.4336,2133.2764Q1917.894,2132.7683,1921.2739,2131.2666"/>
</g>
<g style="fill:rgb(45,255,0); fill-opacity:0.99607843; stroke-linejoin: miter">
<path d="M1923.626,2121.835L1923.5034,2120.6677L1923.3809,2119.5005L1923.626,2121.835"/>
</g>
<g style="fill:rgb(255,97,202); fill-opacity:1.0; stroke-linejoin: miter">
<path d="M2030.2651,2036.2037L2028.7676,2036.9015Q2014.1973,2045.1053,2001.1582,2032.8949Q1996.2368,2028.9825,1986.8799,2019.7196Q1972.5278,1994.7733,1974.0469,1993.5829Q1974.06,1992.2284,1974.7122,1991.6166Q1976.7126,1990.5804,1979.6035,1986.8175L1980.8037,1986.0455L1986.6448,1985.8995L1990.0986,1983.5392Q1991.7861,1983.3673,1995.6335,1984.8263Q1995.0725,1973.3087,1996.8679,1967.0424Q1998.293,1960.8678,2005.2952,1947.5021Q1995.404,1911.5026,2001.1763,1888.401Q2003.7507,1876.691,2011.7314,1867.264Q2015.2214,1862.0597,2029.5149,1855.0033Q2031.5181,1853.7213,2042.5493,1851.0343Q2046.9829,1850.1859,2051.2874,1850.0314Q2059.965,1849.6837,2066.941,1852.4857Q2079.1914,1855.6053,2094.7737,1884.8942Q2105.4995,1902.454,2108.5046,1918.9935Q2110.3643,1927.849,2110.9543,1951.3387Q2117.3108,1965.2189,2117.5176,1968.7626Q2117.7595,1971.7831,2117.435,1972.034L2114.243,1977.7899Q2113.4358,1980.9115,2113.628,1982.1447Q2112.8066,1981.086,2117.156,2001.7308Q2118.3147,2010.1722,2118.0403,2011.7443Q2117.3901,2019.6129,2116.3455,2020.6923Q2113.915,2025.9271,2108.4434,2029.3253Q2102.973,2032.7245,2095.6763,2035.0204L2069.754,2042.5526Q2055.3376,2046.7047,2048.284,2045.4147Q2040.9797,2044.7035,2030.2651,2036.2037 Z"/>
</g>
<g style="fill:rgb(255,255,255); fill-opacity:1.0; stroke-linejoin: miter">
<path d="M2075.2175,1921.1635L2074.902,1916.7189Q2074.1633,1903.1759,2071.5947,1891.5065Q2069.7983,1883.8134,2066.1719,1877.993Q2061.0518,1870.6451,2054.4658,1867.8312Q2049.967,1865.7081,2045.0381,1864.9293Q2039.3208,1864.2184,2036.853,1864.5463Q2029.4519,1864.9073,2022.5515,1868.975Q2014.8298,1873.9474,2010.044,1881.7657Q2005.5972,1888.2853,2002.4932,1899.9618Q2000.3877,1908.8768,2000.031,1922.3085L2075.2175,1921.1635 Z"/>
</g>
<g style="fill:rgb(0,0,0); fill-opacity:0.14901961; stroke-linejoin: miter">
<path d="M2084.641,1874.6183L2084.641,1874.6188Q2085.368,1892.93,2085.4026,1902.6844Q2085.386,1912.3846,2085.2708,1914.1969Q2085.1562,1917.9537,2084.922,1921.5746Q2084.6843,1925.1923,2084.3284,1928.6749L2083.948,1932.1298Q2083.54,1935.5538,2083.0466,1938.8793Q2081.8337,1947.2181,2078.985,1961.4718Q2084.018,1945.7709,2085.9932,1936.9264Q2086.8015,1933.3922,2087.4194,1929.8282L2087.9766,1926.257L2088.414,1922.6666L2088.7197,1919.0577Q2088.9514,1915.4381,2088.9192,1911.7789L2088.8333,1908.111Q2088.6868,1904.4357,2088.3486,1900.732Q2087.2393,1889.6053,2085.2668,1878.3524L2084.6436,1874.6188 Z M2100.441,1909.2853L2099.4465,1913.0792Q2096.462,1924.6818,2093.3186,1935.0394Q2090.6548,1943.3207,2090.076,1944.6185Q2088.966,1947.5834,2087.808,1950.1686Q2086.648,1952.7421,2085.4395,1954.9352Q2084.8591,1956.2179,2081.728,1960.8319Q2078.5757,1965.2811,2072.6301,1971.161Q2079.5632,1966.3336,2083.059,1962.2521Q2086.507,1957.9752,2087.089,1956.6942Q2088.363,1954.5719,2089.524,1951.9999Q2090.6816,1949.4135,2091.725,1946.3766L2092.745,1943.2482Q2093.7385,1940.0172,2094.651,1936.4589Q2096.9468,1927.6512,2100.4429,1909.2858 Z M2006.815,1961.4191Q2008.4636,1968.5675,2009.644,1971.7594Q2010.8613,1974.8434,2011.1853,1975.2225Q2011.75,1976.2277,2012.4004,1976.9806Q2013.053,1977.7262,2013.7908,1978.2196L2014.5457,1978.663Q2015.3198,1979.048,2016.1558,1979.2509Q2016.5381,1979.3529,2016.9924,1979.422Q2019.0073,1979.7279,2022.4429,1979.393Q2018.74,1978.4406,2016.842,1977.411Q2014.9666,1976.3134,2014.6396,1975.9413Q2013.937,1975.3553,2013.2847,1974.609Q2010.3694,1971.1915,2007.2971,1962.6857L2006.8164,1961.4191 Z M2106.3777,1951.4691L2105.0024,1953.3187Q2096.3167,1965.6154,2086.8684,1972.0397Q2078.7148,1977.8998,2055.66,1985.514Q2068.9934,1982.6781,2075.612,1980.3685Q2082.12,1977.9574,2083.1812,1977.2521Q2085.5527,1976.0721,2087.6707,1974.6569Q2089.78,1973.2345,2091.636,1971.5756Q2092.6887,1970.8619,2096.7476,1966.1774Q2100.695,1961.3947,2106.38,1951.4691 Z M2016.2639,1993.8214L2016.2632,1993.8221Q2026.6411,2002.056,2032.4077,2005.6849Q2034.7148,2007.159,2037.023,2008.412L2039.3301,2009.5958Q2041.6382,2010.7177,2043.9463,2011.5343Q2046.2537,2012.3422,2048.562,2012.8456L2050.8704,2013.287Q2051.0928,2013.3231,2051.3147,2013.3568Q2053.4001,2013.674,2055.4875,2013.8107Q2061.2585,2014.2435,2071.6482,2013.3187L2071.6462,2013.3192Q2061.0823,2012.9816,2055.2507,2012.1083Q2054.9377,2012.0629,2054.6255,2012.0157Q2052.6045,2011.7081,2050.59,2011.2806L2048.2678,2010.7372Q2045.948,2010.1488,2043.6394,2009.3395Q2041.332,2008.5236,2039.0359,2007.4867Q2037.8821,2007.0765,2032.1697,2003.9825Q2025.3289,2000.0267,2018.5264,1995.3497L2016.2651,1993.8217 Z M1996.8835,1988.6053L1996.8835,1988.6063Q2003.4346,2012.3932,2008.9648,2019.7167Q2010.3,2021.6449,2011.7837,2023.2706Q2012.4526,2024.2318,2016.5032,2027.6061Q2020.6191,2030.85,2028.8618,2034.994Q2017.3684,2025.1207,2012.0789,2017.1144Q2006.092,2008.3583,1998.116,1991.1957L1996.8845,1988.6053 Z"/>
</g>
<g style="fill:rgb(255,184,165); fill-opacity:1.0; stroke-linejoin: miter">
<path d="M2054.1914,1977.9528L2053.898,1978.1456Q2039.8911,1987.8578,2022.1248,1975.2831Q2014.4221,1968.9889,2009.8403,1960.118Q2008.3438,1957.2362,2007.2881,1954.2953Q2004.6277,1947.122,2002.4702,1939.3981Q1999.2122,1925.8488,1999.9312,1920.1688Q2000.532,1911.8671,2003.0454,1907.0851Q2008.7097,1894.6183,2028.8608,1880.2372Q2040.5957,1872.0468,2052.452,1878.018Q2061.079,1882.9305,2067.1873,1891.4342Q2073.851,1900.8461,2074.89,1906.85Q2079.1248,1923.8519,2073.0298,1947.1913Q2066.7239,1966.372,2054.1914,1977.9528 Z"/>
</g>
<g style="fill:rgb(254,97,201); fill-opacity:0.99607843; stroke-linejoin: miter">
<path d="M2003.5405,2000.93L2002.2925,2000.655Q1987.898,1997.3092,1982.1812,1999.6921Q1975.7183,2001.4989,1971.2705,2009.9849Q1963.4663,2022.7883,1959.9534,2088.482Q1977.6809,2083.2761,1982.6057,2086.1626Q1984.7832,2086.8518,1987.0002,2090.2998Q1992.761,2102.7112,1994.3853,2103.745Q1995.9272,2105.595,1998.1018,2107.0718Q2001.4844,2109.213,2005.2654,2110.0125Q2014.6941,2112.583,2034.4141,2109.6658Q2041.3064,2108.568,2049.4585,2106.0842L2070.7153,2098.63Q2075.606,2097.4363,2078.5083,2097.7415Q2089.6704,2098.4546,2107.1746,2117.0542Q2128.04,2060.6523,2127.9211,2038.5773Q2128.214,2032.15,2123.3835,2024.0499Q2118.5454,2017.9797,2111.9895,2014.0582L2003.5405,2000.93"/>
</g>
<g style="fill:rgb(0,0,0); fill-opacity:0.99607843; stroke-linejoin: miter">
<path d="M1749.8376,1616.9126L1752.4419,1618.0199Q1782.1702,1632.0243,1790.749,1620.716Q1793.9182,1616.218,1794.8318,1612.3872Q1795.8171,1610.91,1797.5391,1596.7434Q1798.9683,1581.9574,1797.7454,1547.31L1807.6399,1546.7499Q1817.7314,1577.9595,1829.654,1610.0115Q1831.2642,1614.8916,1832.3662,1619.7542Q1834.7366,1629.5516,1833.0784,1638.4099Q1832.166,1642.8029,1829.7478,1646.7437L1826.8696,1650.5354Q1816.4277,1660.78,1798.4392,1666.136Q1786.8696,1669.6934,1777.02,1670.9182Q1764.6167,1672.4309,1761.3828,1670.1744L1760.3359,1669.1161Q1759.6606,1667.9175,1760.0447,1666.3137Q1760.4287,1664.7097,1761.4453,1662.8552Q1765.605,1656.1163,1766.7427,1653.3702Q1768.0574,1649.8119,1767.21,1646.966Q1767.0381,1643.8973,1759.4951,1637.007L1762.7605,1627.6511L1749.9014,1630.0503L1749.8376,1616.9126"/>
</g>
</g>
</svg>