<?xml version="1.0" encoding="utf-8"?>
<svg xmlns="http://www.w3.org/2000/svg" xmlns:xlink="http://www.w3.org/1999/xlink" version= "1.1" width="1920px" height="1300px" viewBox="-600 64 1920 1300">
<g id="layer1">
<g style="fill:rgb(0,174,199); fill-opacity:1.0; stroke-linejoin: miter">
<path d="M-600.0009,62.33709C-600.44165,62.33709,-600.8643,62.51217,-601.17596,62.823814C-601.4876,63.13546,-601.6627,63.55814,-601.6627,63.998875L-601.66174,1363.9998C-601.66174,1364.9175,-600.9177,1365.6615,-599.99994,1365.6615L1320.0009,1365.6625C1320.4415,1365.6625,1320.8643,1365.4874,1321.1759,1365.1758C1321.4875,1364.8641,1321.6626,1364.4414,1321.6626,1364.0007L1321.6616,63.999874C1321.6616,63.082096,1320.9176,62.33809,1319.9999,62.33809L-600.0009,62.33709 Z"/>
</g>
<g style="fill:rgb(255,201,77); fill-opacity:0.99607843; stroke-linejoin: miter">
<path d="M422.4678,366.83246L392.6376,358.92322Q247.70204,322.41745,92.96732,405.00177Q75.211334,410.78204,9.467212,469.60306Q-15.486636,494.8758,-36.600685,525.1364Q-81.63448,588.07745,-100.08608,661.28735Q-138.06987,812.037,-65.06057,957.9148Q-48.75722,988.9313,-27.250784,1016.6921Q31.068556,1083.2449,48.976505,1092.6475Q106.62615,1137.7728,187.23367,1162.8468Q245.92885,1180.4662,305.75937,1179.9454Q320.53973,1182.6503,396.144,1168.9603Q449.33932,1156.3679,495.3857,1132.3501Q573.5091,1086.3942,599.33105,1054.4586Q438.8062,1130.8373,279.808,1056.6659Q215.66466,1030.2429,148.25024,950.57166Q129.46077,926.31836,115.216835,899.2201Q100.97405,872.1228,91.2761,842.1803L82.71401,811.5265Q48.19367,626.4891,159.3672,495.77188Q270.98514,372.1107,422.4678,366.83246 Z"/>
</g>
<g style="fill:rgb(255,201,77); fill-opacity:1.0; stroke-linejoin: miter">
<path d="M410.519,363.573C410.1486,363.573,409.918,363.80807,409.8143,363.9336L409.8143,363.93384C409.56235,364.23865,409.24234,364.94482,408.67633,366.20465L408.6754,366.2071C408.58612,366.40732,408.48206,366.64532,408.37476,366.8919C408.259,367.15668,408.13358,367.4435,408.02335,367.69098C407.95453,367.84598,407.88748,367.9949,407.8307,368.11816L407.8264,368.1267C407.58557,368.66913,407.27737,369.3672,407.13193,369.72083L407.13046,369.72195C407.0127,369.96173,406.78998,370.45374,406.54544,370.99365C406.38055,371.35855,406.22342,371.70523,406.052,372.08002C405.632,372.97314,405.27722,373.79022,405.20636,373.99268L405.20566,373.99335C405.19992,374.0091,405.18597,374.0516,405.17487,374.10626L405.16855,374.10718C405.0959,374.28717,404.87476,374.78857,404.59668,375.39352L404.59412,375.39984C404.48883,375.63538,404.10547,376.49042,403.66736,377.46722L403.66736,377.4679L400.674,384.1494L400.674,384.1501C399.93253,385.80646,399.3104,387.19742,398.68216,388.60498C398.1878,389.7134,397.87747,390.40787,397.52518,391.1948L397.52518,391.1959C397.1991,391.9239,396.95984,392.45413,396.87918,392.62735L396.87964,392.6276C396.59326,393.24014,396.1854,394.15646,395.9636,394.6617L395.9636,394.66284L395.91095,394.7814L395.8491,394.92178C395.62726,395.4257,395.3436,396.0691,395.14023,396.50912L395.12738,396.53928C395.0096,396.82834,394.83618,397.21075,394.6604,397.59995C394.52496,397.8987,394.38324,398.2114,394.28256,398.44986L394.28256,398.45078C394.1035,398.8514,393.8122,399.51443,393.6149,399.96188L393.6149,399.96277L393.4581,400.3207L393.4581,400.32138C392.8761,401.6329,392.42212,402.56406,392.19525,402.95258L392.18918,402.95325C390.1988,403.10193,379.80972,403.96063,375.2917,404.34576L375.29102,404.34622C373.87778,404.4695,371.71878,404.64722,370.40646,404.7505L370.4034,404.75162C368.08832,404.9408,366.15677,405.1048,364.6415,405.23325C363.66605,405.31625,362.41608,405.42178,361.68112,405.4825L361.68112,405.48364C361.24365,405.51874,361.16617,405.52527,360.74683,405.55856L360.7431,405.559C356.0153,405.96103,353.10358,406.20694,351.5537,406.32593L351.54953,406.32617C350.77734,406.39117,350.18277,406.4699,349.81842,406.6492L349.81842,406.65012C349.60236,406.75516,349.3252,406.96664,349.25546,407.3493L349.25006,407.38776C349.21158,407.6944,349.38684,407.93915,349.38953,407.94342C349.6667,408.3891,350.80615,409.50784,352.02847,410.59082C352.03952,410.6005,352.04175,410.6025,352.04175,410.6025L352.04208,410.60364C352.04346,410.60364,352.04626,410.60703,352.05313,410.61264C355.07324,413.28812,355.46805,413.64896,356.6996,414.774L356.6996,414.77466L356.8908,414.94855L356.89352,414.95126C357.02826,415.07272,357.2646,415.2878,357.46494,415.47025C357.75467,415.73322,358.0757,416.02612,358.41833,416.33456C358.8577,416.7321,359.32684,417.15253,359.73157,417.5055L359.73157,417.50616C360.66742,418.34012,361.49564,419.0897,361.59595,419.1905L361.6433,419.23346C361.74814,419.32095,362.7066,420.1792,363.76358,421.13464L363.76358,421.136L364.02475,421.36993L364.02475,421.36993L364.29663,421.61627C365.20358,422.43582,366.18127,423.3181,366.59982,423.68683L366.59915,423.68796C366.92197,423.98334,367.66165,424.64877,368.63858,425.52817L368.63858,425.5293C369.31268,426.13513,370.17902,426.91574,370.9377,427.60123L370.9402,427.60345C372.83112,429.29272,375.20828,431.4463,376.18765,432.3461L376.19327,432.35107C376.34793,432.4912,376.58484,432.70404,376.76593,432.86713L376.76593,432.86826C377.0026,433.08063,377.21158,433.26913,377.4622,433.49457L377.4622,433.4957C378.2318,434.18723,379.04852,434.91812,379.5999,435.39212L379.59958,435.3935C381.16815,436.78555,380.9882,436.77252,380.76062,437.49286L380.76007,437.49512C380.65085,437.84515,380.363,438.9378,380.13837,439.95914L380.13837,439.9596C379.9961,440.5913,379.77158,441.56134,379.55402,442.50528L379.55402,442.5062C379.43796,443.00494,379.30566,443.5797,379.2104,443.99408C378.5904,446.62842,378.348,447.6637,378.00156,449.14194C377.78793,450.05148,377.73947,450.26,377.574,450.96213L377.57208,450.97025C377.41113,451.6964,377.19315,452.58548,377.0938,452.965C377.02722,453.2172,376.93433,453.6172,376.8496,453.98386L376.8496,453.98453C376.80103,454.19354,376.7477,454.4221,376.70575,454.59622L376.7045,454.60318L376.70193,454.61243L376.70148,454.61533C376.37695,456.05667,375.6745,459.08582,375.4772,459.83517L375.47498,459.8435L375.47498,459.84485C375.37082,460.2419,375.18713,461.01578,375.06558,461.58475C374.9448,462.12848,374.76505,462.9046,374.66885,463.27063C374.5665,463.65894,374.41882,464.2679,374.3537,464.6409L374.35324,464.64203C374.2954,464.94595,374.16068,465.52545,374.0628,465.89777C373.961,466.2845,373.81247,466.89545,373.74667,467.2678L373.74667,467.2689C373.68954,467.56943,373.5532,468.15613,373.45657,468.52484C373.35287,468.9199,373.16718,469.70276,373.04443,470.27374L373.04443,470.27484C372.92297,470.8213,372.74536,471.59067,372.64774,471.95938C372.54468,472.35217,372.35876,473.1389,372.23636,473.7087L372.23602,473.70984C372.09747,474.31454,372.01343,474.66122,371.84146,475.3701L371.84146,475.37122C371.72873,475.8344,371.62943,476.24564,371.4318,477.06653L371.4312,477.0672C371.30783,477.5187,371.23978,478.033,371.27194,478.35626L371.27194,478.35672C371.27847,478.41946,371.2958,478.5603,371.36554,478.69955L371.44586,478.82532C371.66687,479.1018,371.9789,479.10382,372.03763,479.10382L372.03964,479.1045C372.13794,479.10382,372.222,479.08673,372.2761,479.07367L372.27698,479.07526C372.726,478.96906,373.77197,478.43793,374.9545,477.76505L374.96024,477.7617C376.31714,476.97205,377.71866,476.17142,378.07983,475.97095L378.12112,475.94598C378.29376,475.8344,378.5517,475.68683,378.82965,475.52982C379.02917,475.41666,379.24167,475.29584,379.40903,475.1937L379.4087,475.19507C379.63895,475.0583,380.20193,474.73322,380.99033,474.27676L380.99033,474.27744C381.30392,474.09543,382.20795,473.57147,382.5772,473.3571L382.57834,473.3564C385.07825,471.9018,385.67203,471.56052,387.08008,470.7529L387.08008,470.75403C388.48276,469.95114,399.5043,463.5894,400.11847,463.23325L400.14716,463.21527C400.36862,463.07196,400.73047,462.867,401.07806,462.6695L401.0777,462.67062C401.22913,462.5847,401.3443,462.519,401.47153,462.44522L401.47153,462.4459C401.6461,462.34442,401.9301,462.18222,402.17352,462.0441C402.40692,461.91113,402.71466,461.73636,402.8854,461.63736L402.88687,461.6367L403.43198,461.3195L403.43198,461.32037L403.9765,461.00388C404.75543,460.55124,405.41806,460.16745,406.7241,459.41495L406.72678,459.41336C407.09717,459.19806,407.4012,459.01877,407.68896,458.84982L407.68896,458.8505C407.8849,458.73465,408.13696,458.5864,408.2869,458.49844C409.22354,457.95312,409.43716,457.88113,409.5143,457.87686L409.5204,457.87753C409.54367,457.88248,409.59225,457.90137,409.84457,458.05054L409.8449,458.05096C409.93546,458.1036,410.06232,458.17786,410.19394,458.25052L410.19394,458.25098C410.79944,458.5936,411.47287,458.9992,411.71976,459.1758C412.03436,459.40054,413.66544,460.39035,415.30383,461.3701L415.30383,461.3705C416.63507,462.1714,418.39767,463.23862,419.27368,463.76816L419.27368,463.76907L419.74622,464.055L419.74622,464.05566C422.45187,465.73032,431.47586,471.19403,432.203,471.58856L432.20255,471.5899C432.56992,471.80206,433.10455,472.14603,433.40115,472.34354L433.39813,472.3442C433.64108,472.5289,433.91644,472.69516,434.11792,472.77457L434.11792,472.77502C434.14096,472.78424,434.1944,472.80518,434.26593,472.82227L434.2594,472.82294C434.42365,472.9116,434.8669,473.18222,435.37253,473.5298L435.37253,473.53046C435.931,473.91357,436.512,474.27396,436.741,474.38016L436.7402,474.38083C436.75247,474.38623,436.8338,474.4256,436.94223,474.44717L436.93604,474.4483C437.0042,474.48117,437.15482,474.5682,437.31635,474.6951L437.36166,474.72818C437.66843,474.93243,438.25037,475.3068,438.65195,475.53915L438.65195,475.54028C438.66016,475.54413,438.667,475.54816,438.67377,475.55154L438.67273,475.552C439.07477,475.78528,440.6161,476.70673,442.0743,477.5922L442.07397,477.59354C444.6313,479.16516,445.5598,479.73746,445.96924,479.87042L445.96957,479.8713C446.05396,479.89764,446.16418,479.92487,446.29288,479.92487C446.5986,479.92487,446.78903,479.77097,446.86697,479.70148C446.88113,479.68933,446.86932,479.69968,446.88327,479.68753L446.886,479.68503C446.886,479.68503,446.8908,479.68033,446.89273,479.67853L446.89273,479.68008L446.95493,479.61597C447.1492,479.39325,447.15256,479.1168,447.1547,479.0781L447.1547,479.07764C447.18698,478.44412,446.70602,476.05545,445.43677,470.17468C445.0398,468.28656,444.77716,467.058,444.55325,466.0059C444.4059,465.31592,444.28983,464.7731,444.1732,464.22012L444.1732,464.22147C444.09625,463.85342,444.01907,463.48203,443.94214,463.1068L443.94125,463.10074C443.7426,462.16644,443.37332,460.42297,443.13406,459.26755L443.13284,459.26035L443.13205,459.25922C442.8893,458.08603,442.6062,456.77292,442.50427,456.32254L442.50427,456.3232C442.4035,455.87915,442.22522,455.06747,442.12668,454.53564C442.02332,453.9548,441.83783,453.0907,441.7142,452.57507L441.71274,452.56854L441.71274,452.56833L441.71274,452.569C441.5951,452.0777,441.41714,451.22916,441.3186,450.6962C441.21478,450.11444,441.0301,449.25238,440.9059,448.73587C440.78802,448.24387,440.6086,447.38834,440.5094,446.85223L440.50638,446.83627L440.47568,446.69025L440.47568,446.68958L440.44348,446.5366L440.44348,446.53772C440.25372,445.62393,440.0217,444.51688,439.67548,442.986L439.6748,442.9824C439.574,442.54077,439.39594,441.7273,439.29797,441.19843L439.29797,441.19864C439.2333,440.83603,439.13297,440.38205,439.0431,439.9735L439.04276,439.97464C438.98563,439.71188,438.93332,439.475,438.8953,439.286L438.89496,439.28647L438.88675,439.24597C438.58743,437.92587,438.5178,437.41183,438.52847,437.21118L438.5224,437.2123C438.7864,436.99902,439.51294,436.36734,440.1966,435.77386L440.2046,435.7669C440.69186,435.3316,442.03726,434.1665,443.62665,432.79037C444.49353,432.03992,445.41635,431.24084,446.33765,430.4413L446.3373,430.44244L447.48126,429.45734L448.50903,428.57324L448.50903,428.57413C450.0994,427.20566,451.3711,426.10895,451.68298,425.82346L451.68085,425.82437C451.84012,425.69254,452.10074,425.46823,452.39276,425.21674L452.39276,425.2174C452.7823,424.8804,453.18723,424.53104,453.6041,424.18393L453.60947,424.17987L453.61444,424.17514C454.30545,423.59903,454.92435,423.06296,455.042,422.9518C455.042,422.9518,455.05032,422.94394,455.05765,422.93674L455.05765,422.9372C455.09476,422.90164,455.289,422.73248,455.5979,422.46295L455.59824,422.46362C455.8349,422.25668,456.3053,421.84656,456.6488,421.5451L456.65152,421.5431L456.66275,421.53296C457.0824,421.1642,457.37857,420.90775,457.6959,420.63058L457.6959,420.6317C457.9079,420.4468,457.9943,420.37143,458.1268,420.25513L458.12726,420.25467C458.1926,420.19775,458.24155,420.1539,458.2736,420.1242L458.2736,420.12488C458.28046,420.11813,458.28574,420.1125,458.2926,420.106L458.29227,420.10666C458.3664,420.0358,458.95828,419.5204,459.66602,418.93054L459.67142,418.9258C460.10312,418.55844,460.19748,418.47858,460.53223,418.19516C460.73807,418.02103,461.00095,417.79788,461.24146,417.5938C462.00598,416.94345,463.24643,415.88477,466.30136,413.26596L466.3195,413.24976L466.32254,413.24728L466.32303,413.24817C468.43332,411.42822,470.3113,409.70834,470.65115,409.2629L470.65152,409.26358C470.65457,409.2629,470.8323,409.04648,470.8323,408.76865C470.8323,408.6935,470.8289,408.61884,470.82254,408.54752L470.8289,408.5482C470.8311,408.5527,470.8326,408.55606,470.83377,408.55698L470.83487,408.55765C470.85208,408.5403,470.74814,407.82156,470.13968,407.7806L470.1331,407.78128C470.0654,407.77454,469.56888,407.71536,468.89908,407.63486L468.89908,407.636L468.2903,407.56174L468.28116,407.5604C465.62357,407.2765,462.91135,406.9951,460.59512,406.7719L460.5924,406.77304L460.587,406.77124L460.586,406.77237C459.4768,406.6698,457.77798,406.49026,456.7715,406.36905L456.76962,406.36905C456.72598,406.3641,456.69955,406.36118,456.68448,406.35913L456.68515,406.3605C456.68515,406.35913,456.66513,406.3569,456.5838,406.3479L456.5829,406.34836C456.35333,406.32068,456.56244,406.34543,456.33286,406.3182L456.33328,406.31976C454.7599,406.13553,453.13226,405.9495,449.34634,405.57965L449.346,405.58078C449.27234,405.5722,448.05392,405.4424,447.96414,405.43274L447.96414,405.43387C447.65393,405.39944,446.3353,405.25885,445.6946,405.19113C444.67902,405.0836,443.32834,404.9414,441.506,404.75156L441.50568,404.75223C440.5805,404.653,438.81396,404.46628,437.66574,404.3475L437.66574,404.34842C437.66574,404.3475,437.60522,404.34076,437.60107,404.34076L437.6014,404.34143C436.4082,404.2168,434.74008,404.0447,433.73553,403.9239L433.7227,403.92255C433.27762,403.8771,432.7449,403.8265,432.1252,403.76733L432.1252,403.768C431.4789,403.7055,430.70145,403.63058,430.13037,403.57275L430.13004,403.57343C430.0494,403.5642,429.8764,403.54666,429.80487,403.5388L429.78857,403.53745C428.86453,403.46207,428.16962,403.33408,427.88333,403.25107L427.87683,403.2524C427.674,402.8729,427.17572,401.75977,426.6258,400.43607L426.6258,400.43677C425.66574,398.1095,424.4623,395.22998,423.844,393.75107L423.844,393.75082C423.6467,393.2784,423.6161,393.2053,423.5126,392.95694L423.5035,392.93576C423.46783,392.85703,423.42285,392.75516,423.3539,392.59903C423.26077,392.3878,423.11545,392.05887,422.9909,391.78555L422.9909,391.78577C422.95447,391.70523,422.93243,391.65707,422.89642,391.57858C422.71545,391.18692,422.5834,390.84903,422.53625,390.71066L422.53043,390.71133C422.52017,390.62766,422.49927,390.56375,422.497,390.55588C422.4393,390.36533,422.23865,389.88797,422.0563,389.4576L422.04944,389.44208C421.23834,387.64484,420.98727,387.0694,420.92056,386.88403L420.91516,386.88516C420.90628,386.80237,420.8876,386.7403,420.8857,386.7342L420.8857,386.73352C420.83014,386.53152,420.64374,386.05954,420.43048,385.59747L420.4207,385.57788L420.41992,385.57544L420.42035,385.5761C420.1802,385.05396,419.93567,384.48663,419.86694,384.29785C419.77808,384.05334,419.54514,383.50375,419.3673,383.08868L419.36224,383.0772C419.24448,382.81512,419.09216,382.4536,418.93884,382.0887L418.9385,382.0885C418.86844,381.92157,418.77655,381.70404,418.72076,381.57312L418.71536,381.56165C418.5357,381.16162,418.32123,380.6537,418.25037,380.45862L418.25037,380.4582C418.1578,380.20486,417.88397,379.5749,417.6419,379.05005L417.6419,379.04938C417.46124,378.6584,417.32953,378.32095,417.28207,378.18262L417.27655,378.18372C417.26733,378.10724,417.25,378.05078,417.24878,378.04492L417.24832,378.04492C417.1924,377.84042,417.00717,377.37183,416.79288,376.90817L416.79288,376.9093C416.54968,376.3804,416.2994,375.80115,416.22968,375.60925L416.22934,375.60834C416.13745,375.3557,415.86288,374.72467,415.62082,374.20007L415.62082,374.20142C415.44095,373.80975,415.30856,373.4707,415.2611,373.33215L415.25546,373.33304C415.24512,373.2489,415.2243,373.1859,415.22183,373.17694C415.16446,372.98706,414.96347,372.50967,414.78134,372.0793L414.77405,372.06134C414.05392,370.48206,413.83426,369.96265,413.39984,368.85828L413.39984,368.85852C413.19345,368.29407,412.85532,367.51907,412.64682,367.04172L412.64682,367.04126C412.64413,367.03564,412.5771,366.88177,412.57587,366.87863L412.5656,366.85614C412.35403,366.4134,412.02008,365.6087,411.82278,365.0769L411.81052,365.04675C411.63788,364.63818,411.40683,364.1669,411.21188,363.92395L411.21188,363.92462C411.2028,363.9118,411.0704,363.7271,410.8371,363.63553L410.8362,363.63623C410.75644,363.60315,410.648,363.573,410.519,363.573 Z"/>
</g>
<g style="fill:rgb(0,0,0); fill-opacity:0.99607843; stroke-linejoin: miter">
<path d="M27.138586,793.53735L27.138586,793.53876L27.138586,793.53735L27.138586,793.53735L27.138586,793.53876L27.138586,793.53735L27.138586,793.53735Q27.138586,793.53735,27.138586,793.53735 Z"/>
</g>
<g style="fill:rgb(0,0,0); fill-opacity:0.99607843; stroke-linejoin: miter">
<path d="M50.260532,800.65155L50.260532,800.65155L50.260532,800.65155L50.260532,800.6529L50.260532,800.65155L50.260532,800.65155L50.260532,800.6529Q50.260532,800.65155,50.260532,800.65155 Z"/>
</g>
<g style="fill:rgb(255,247,174); fill-opacity:0.99607843; stroke-linejoin: miter">
<path d="M416.66125,1228.5858L416.66125,1228.5864L416.66125,1228.588L416.66125,1228.5858 Z"/>
</g>
<g style="fill:rgb(255,255,255); fill-opacity:0.7058824; stroke-linejoin: miter">
<path d="M326.54474,235.1147C327.324,232.26755,327.7032,229.32997,327.6725,226.35121C327.49258,208.74123,313.0185,194.56038,295.4081,194.74059C288.08173,194.81506,280.95145,197.43343,275.32947,202.10997C270.33008,206.27025,266.70242,211.89163,264.96887,218.1074C253.17174,217.12656,242.59377,224.71353,239.37599,235.66098C237.58757,235.2729,235.7631,235.08618,233.92488,235.10553C220.37111,235.24434,209.45631,246.30403,209.59462,259.8572C209.73347,273.4109,220.87276,284.2447,234.42616,284.10632L320.23886,283.2298C333.79315,283.09036,344.70715,272.03085,344.569,258.477C344.45578,247.38853,337.02002,237.98863,326.54474,235.1147 Z"/>
</g>
<g style="fill:rgb(255,255,255); fill-opacity:0.7058824; stroke-linejoin: miter">
<path d="M-76.933784,673.0035C-75.72359,668.5811,-75.13514,664.0175,-75.18103,659.3898C-75.46195,632.0314,-97.947334,610.002,-125.3063,610.28143C-136.68805,610.3973,-147.7657,614.4629,-156.49928,621.73C-164.26707,628.19165,-169.90219,636.92535,-172.59657,646.5821C-190.9222,645.0586,-207.35617,656.8444,-212.35417,673.8516C-215.13234,673.2494,-217.96828,672.9589,-220.82356,672.98956C-241.87904,673.2041,-258.83493,690.3864,-258.62003,711.4414C-258.40402,732.49835,-241.10046,749.3285,-220.04404,749.1144L-86.7299,747.7524C-65.67335,747.53595,-48.71777,730.3535,-48.93301,709.2976C-49.109325,692.0713,-60.662155,677.46716,-76.933784,673.0035 Z"/>
</g>
<g style="fill:rgb(255,255,255); fill-opacity:0.7058824; stroke-linejoin: miter">
<path d="M814.2655,626.73425C815.21747,623.25336,815.68066,619.66296,815.64435,616.0224C815.4232,594.49493,797.72986,577.1606,776.20355,577.3811C767.2476,577.4725,758.5313,580.6724,751.6588,586.3896C745.5472,591.4744,741.11316,598.3462,738.9931,605.94415C724.5731,604.7457,711.6425,614.0195,707.7091,627.4019C705.52325,626.9277,703.29205,626.6995,701.04474,626.7227C684.4773,626.89264,671.13477,640.4123,671.3037,656.98047C671.47345,673.54834,685.09,686.79236,701.65765,686.62317L806.5572,685.5511C823.1254,685.38055,836.4676,671.86066,836.298,655.29205C836.15936,641.7375,827.0696,630.2471,814.2655,626.73425 Z"/>
</g>
<g style="fill:rgb(0,0,0); fill-opacity:0.14901961; stroke-linejoin: miter">
<path d="M1092.641,1265.0486L1086.6973,1270.371Q1044.4395,1286.4559,839.40515,1296.0996Q632.95197,1305.7356,353.17978,1303.9143Q86.17353,1301.3687,-73.911385,1289.0171Q-125.20438,1285.0245,-158.41087,1280.3163L-186.32002,1275.4758Q-209.31972,1270.4799,-209.57831,1265.0486Q-202.59625,1248.381,-18.872663,1237.3134Q164.85092,1226.2456,441.53146,1225.825Q718.21185,1226.2456,901.93555,1237.3134Q1085.659,1248.381,1092.641,1265.0486"/>
</g>
<g style="fill:rgb(187,64,38); fill-opacity:1.0; stroke-linejoin: miter">
<path d="M25.85652,1218.2113L64.561554,1285.2476L871.93915,819.0996L833.23566,752.06256L25.85652,1218.2113"/>
</g>
<g style="fill:rgb(255,255,255); fill-opacity:1.0; stroke-linejoin: miter">
<path d="M777.54865,770.98114L756.8033,735.05084L736.05774,699.12036Q562.5351,799.3057,389.0126,899.4911Q409.75732,935.422,430.502,971.35284Q604.0254,871.1671,777.54865,770.98114"/>
</g>
<g style="fill:rgb(187,64,38); fill-opacity:1.0; stroke-linejoin: miter">
<path d="M34.872166,823.6103L54.224674,790.0922L73.57719,756.5742L880.95514,1222.7224Q861.60345,1256.241,842.2517,1289.7594Q438.56177,1056.6847,34.872166,823.6103"/>
</g>
<g style="fill:rgb(255,255,255); fill-opacity:1.0; stroke-linejoin: miter">
<path d="M118.4203,773.1936L139.16573,737.26324L159.91116,701.33295Q333.43347,801.51843,506.95602,901.7038Q486.21133,937.6347,465.4667,973.5656Q291.94348,873.37964,118.4203,773.1936"/>
</g>
<g style="fill:rgb(255,255,255); fill-opacity:1.0; stroke-linejoin: miter">
<path d="M332.30756,568.07745L332.30753,568.07794L332.3075,568.07837L332.30753,568.07794L332.30756,568.07745L332.30753,568.07794L332.3075,568.07837Q332.30753,568.07794,332.30756,568.07745"/>
</g>
<g style="fill:rgb(201,214,222); fill-opacity:1.0; stroke-linejoin: miter">
<path d="M119.26828,773.4365L293.162,872.9063L467.05563,972.3758L443.81485,1013.0059Q269.92062,913.53705,96.026566,814.0681L119.26828,773.4365"/>
</g>
<g style="fill:rgb(255,255,255); fill-opacity:1.0; stroke-linejoin: miter">
<path d="M413.1214,802.14343L413.12137,802.1439L413.12134,802.14435L413.12137,802.1439L413.1214,802.14343L413.12137,802.1439L413.12134,802.14435Q413.12137,802.1439,413.1214,802.14343"/>
</g>
<g style="fill:rgb(255,255,255); fill-opacity:1.0; stroke-linejoin: miter">
<path d="M-229.25497,700.7021L-229.25473,700.7025L-229.25449,700.7029L-229.25473,700.7025L-229.25497,700.7021L-229.25473,700.7025L-229.25449,700.7029Q-229.25473,700.7025,-229.25497,700.7021"/>
</g>
<g style="fill:rgb(255,255,255); fill-opacity:1.0; stroke-linejoin: miter">
<path d="M409.0164,389.81372L409.01642,389.81418L409.01645,389.81467L409.01642,389.81418L409.0164,389.81372L409.01642,389.81418L409.01645,389.81467Q409.01642,389.81418,409.0164,389.81372"/>
</g>
<g style="fill:rgb(255,255,255); fill-opacity:1.0; stroke-linejoin: miter">
<path d="M-80.32502,300.83917L-80.32499,300.83963L-80.32496,300.84012L-80.32499,300.83963L-80.32502,300.83917L-80.32499,300.83963L-80.32496,300.84012Q-80.32499,300.83963,-80.32502,300.83917"/>
</g>
<g style="fill:rgb(255,255,255); fill-opacity:1.0; stroke-linejoin: miter">
<path d="M-80.32502,300.83917L-80.32499,300.83963L-80.32496,300.84012L-80.32499,300.83963L-80.32502,300.83917L-80.32499,300.83963L-80.32496,300.84012Q-80.32499,300.83963,-80.32502,300.83917"/>
</g>
<g style="fill:rgb(255,255,255); fill-opacity:1.0; stroke-linejoin: miter">
<path d="M-80.32502,300.83917L-80.32499,300.83963L-80.32496,300.84012L-80.32499,300.83963L-80.32502,300.83917L-80.32499,300.83963L-80.32496,300.84012Q-80.32499,300.83963,-80.32502,300.83917"/>
</g>
<g style="fill:rgb(255,255,255); fill-opacity:1.0; stroke-linejoin: miter">
<path d="M-80.32502,300.83917L-80.32499,300.83963L-80.32496,300.84012L-80.32499,300.83963L-80.32502,300.83917L-80.32499,300.83963L-80.32496,300.84012Q-80.32499,300.83963,-80.32502,300.83917"/>
</g>
<g style="fill:rgb(255,255,255); fill-opacity:1.0; stroke-linejoin: miter">
<path d="M-54.4722,252.98793L-54.4722,252.98839Q-54.4722,252.98953,-54.4722,252.98793"/>
</g>
<g style="fill:rgb(255,82,0); fill-opacity:1.0; stroke-linejoin: miter">
<path d="M187.48384,724.5282L187.48384,724.5282L159.14134,786.0923L158.44121,783.8773L428.31146,940.9444L425.716,942.4821L423.83817,870.4762L424.66852,871.90753L183.97997,725.79364C183.16455,725.2986,182.9048,724.2363,183.39983,723.42096C183.89482,722.6056,184.95714,722.34576,185.77255,722.8408L185.77255,722.8408L426.4611,868.95465C426.96332,869.2596,427.27612,869.7987,427.29144,870.386L427.29144,870.386L429.16928,942.39215C429.1856,943.0181,428.86182,943.6039,428.3231,943.92316C427.78433,944.2423,427.11505,944.245,426.57382,943.93L426.57382,943.93L156.70358,786.8628C155.93436,786.4152,155.63127,785.4562,156.00348,784.6478L156.00348,784.6478L184.34598,723.0836C184.74489,722.21704,185.77072,721.83795,186.6372,722.237C187.5037,722.63586,187.88277,723.6617,187.48384,724.5282 Z"/>
</g>
<g style="fill:rgb(201,214,222); fill-opacity:1.0; stroke-linejoin: miter">
<path d="M341.0605,906.9825L352.707,910.72363L364.35355,914.46484Q419.7491,944.7652,475.14468,975.06586Q457.26556,982.4746,439.38644,989.88324Q400.6156,969.67206,361.84482,949.461L341.0605,906.9825"/>
</g>
<g style="fill:rgb(201,214,222); fill-opacity:1.0; stroke-linejoin: miter">
<path d="M441.46274,1015.59296L441.46274,1015.59344L455.4561,1004.3898Q451.37308,1000.4956,447.29013,996.6013L441.46274,1015.59296"/>
</g>
<g style="fill:rgb(201,214,222); fill-opacity:1.0; stroke-linejoin: miter">
<path d="M408.57523,989.0154L411.07874,991.64514L413.58224,994.2749Q428.6356,1004.07184,443.68887,1013.86884Q462.06522,1001.4032,480.44156,988.9376L408.57523,989.0154"/>
</g>
<g style="fill:rgb(205,138,124); fill-opacity:1.0; stroke-linejoin: miter">
<path d="M66.79489,1287.5153L470.28946,1054.4972L873.78406,821.4792Q862.03485,801.1342,850.2855,780.78925Q446.7913,1013.808,43.2972,1246.8267Q55.04604,1267.1709,66.79489,1287.5153"/>
</g>
<g style="fill:rgb(255,255,255); fill-opacity:1.0; stroke-linejoin: miter">
<path d="M563.661,565.86487L563.661,565.8653L563.6611,565.8657L563.661,565.8653L563.661,565.86487L563.661,565.8653L563.6611,565.8657Q563.661,565.8653,563.661,565.86487"/>
</g>
<g style="fill:rgb(201,214,222); fill-opacity:1.0; stroke-linejoin: miter">
<path d="M776.7006,771.22406L602.8069,870.6937L428.913,970.16315L452.15393,1010.79333Q626.0481,911.3245,799.94244,811.85565L776.7006,771.22406"/>
</g>
<g style="fill:rgb(255,255,255); fill-opacity:1.0; stroke-linejoin: miter">
<path d="M482.84726,799.9309L482.84726,799.9312L482.84726,799.9317L482.84726,799.9312L482.84726,799.9309L482.84726,799.9312L482.84726,799.9317Q482.84726,799.9312,482.84726,799.9309"/>
</g>
<g style="fill:rgb(255,82,0); fill-opacity:1.0; stroke-linejoin: miter">
<path d="M708.48505,722.3157L708.48505,722.3157L736.82764,783.8799L737.52765,781.66473L467.6572,938.7317L470.25266,940.2696L472.13055,868.2637L471.3002,869.6951L711.9889,723.58124C712.8044,723.0862,713.0641,722.0239,712.56903,721.2084C712.0741,720.393,711.01166,720.1333,710.1963,720.62823L710.1963,720.62823L469.50757,866.7421C469.00534,867.04694,468.69254,867.5862,468.67722,868.17346L468.67722,868.17346L466.7994,940.17944C466.78308,940.8054,467.10684,941.3912,467.6456,941.71045C468.1843,942.0296,468.8536,942.0323,469.39487,941.71735L469.39487,941.71735L739.2653,784.6504C740.0346,784.20264,740.3377,783.2438,739.96545,782.43524L739.96545,782.43524L711.6229,720.87103C711.22394,720.0045,710.1981,719.62555,709.33167,720.0244C708.46515,720.42334,708.0861,721.4491,708.48505,722.3157 Z"/>
</g>
<g style="fill:rgb(201,214,222); fill-opacity:1.0; stroke-linejoin: miter">
<path d="M554.90826,904.76984L543.2617,908.51105L531.6151,912.2522Q476.21964,942.55273,420.824,972.8532Q438.70322,980.26196,456.58237,987.67065Q495.35312,967.45953,534.1239,947.24835L554.90826,904.76984"/>
</g>
<g style="fill:rgb(201,214,222); fill-opacity:1.0; stroke-linejoin: miter">
<path d="M454.50604,1013.38043L454.50604,1013.3808L440.5127,1002.1772Q444.5957,998.2829,448.67865,994.3887L454.50604,1013.38043"/>
</g>
<g style="fill:rgb(201,214,222); fill-opacity:1.0; stroke-linejoin: miter">
<path d="M487.3936,986.80273L484.89005,989.43256L482.3865,992.0623Q467.33316,1001.8593,452.2799,1011.6562Q433.90353,999.1906,415.52713,986.725L487.3936,986.80273"/>
</g>
<g style="fill:rgb(205,138,124); fill-opacity:1.0; stroke-linejoin: miter">
<path d="M58.894894,780.94977L865.8844,1246.9866L842.38574,1287.6765L35.397243,821.6383L58.894894,780.94977"/>
</g>
<g style="fill:rgb(83,93,102); fill-opacity:1.0; stroke-linejoin: miter">
<path d="M475.54825,1049.2498L475.29538,1052.7812Q473.49716,1063.4535,464.77216,1069.8518Q455.98688,1076.2452,444.08163,1075.0369Q432.71964,1073.3479,425.90747,1065.1526Q423.7248,1062.5037,422.3117,1059.3796L421.12405,1056.1682Q420.14536,1052.8533,420.13437,1049.2498Q420.4315,1038.1909,428.24957,1030.8474Q436.0676,1023.5041,447.8413,1023.22504Q459.615,1023.5041,467.433,1030.8474Q475.25113,1038.1909,475.54825,1049.2498"/>
</g>
<g style="fill:rgb(217,226,231); fill-opacity:1.0; stroke-linejoin: miter">
<path d="M457.28583,1048.7656L457.1942,1050.1277Q456.5428,1054.2435,453.38214,1056.7112Q450.19965,1059.177,445.88693,1058.7109Q441.771,1058.0596,439.30328,1054.8989Q438.51257,1053.8772,438.0007,1052.6724L437.5705,1051.4338Q437.21594,1050.1555,437.21194,1048.7656Q437.31958,1044.5006,440.1517,1041.6685Q442.98383,1038.8364,447.24887,1038.7288Q451.51395,1038.8364,454.34607,1041.6685Q457.1782,1044.5006,457.28583,1048.7656"/>
</g>
<g style="fill:rgb(0,0,0); fill-opacity:1.0; stroke-linejoin: miter">
<path d="M72.31248,975.8886L72.31248,975.8886L72.31248,975.8886C78.634895,975.8886,83.76023,981.0139,83.76023,987.33636C83.76023,993.65875,78.63489,998.78406,72.31247,998.78406L72.31247,998.78406L72.31247,998.78406C65.99006,998.78406,60.864727,993.65875,60.864727,987.33636C60.864727,981.0139,65.99006,975.8886,72.31248,975.8886 Z M71.54158,994.2482L71.54158,994.2482L71.54158,994.2482C77.86399,994.2482,82.98933,999.37354,82.98933,1005.6959C82.98933,1012.0184,77.86399,1017.1437,71.54158,1017.1437L71.54158,1017.1437L71.54158,1017.1437C65.21916,1017.1437,60.093838,1012.0184,60.093838,1005.6959C60.093838,999.37354,65.21916,994.2482,71.54158,994.2482 Z M70.515816,1012.59564L70.515816,1012.59564L70.515816,1012.59564C76.83823,1012.59564,81.96357,1017.72095,81.96357,1024.0433C81.96357,1030.3657,76.83823,1035.491,70.515816,1035.491L70.515816,1035.491L70.515816,1035.491C64.1934,1035.491,59.068066,1030.3657,59.068066,1024.0433C59.068066,1017.72095,64.1934,1012.59564,70.515816,1012.59564 Z M69.21634,1030.9253L69.21634,1030.9253L69.21634,1030.9253C75.53876,1030.9253,80.664085,1036.0507,80.664085,1042.373C80.664085,1048.6954,75.53875,1053.8208,69.21633,1053.8208L69.21633,1053.8208L69.21633,1053.8208C62.893917,1053.8208,57.76859,1048.6954,57.76859,1042.373C57.76859,1036.0507,62.893925,1030.9253,69.21634,1030.9253 Z M67.61428,1049.2314L67.61428,1049.2314L67.61428,1049.2314C73.9367,1049.2314,79.062035,1054.3567,79.062035,1060.6792C79.062035,1067.0015,73.9367,1072.1268,67.61428,1072.1268L67.61428,1072.1268L67.61428,1072.1268C61.291866,1072.1268,56.16654,1067.0015,56.16654,1060.6792C56.16654,1054.3567,61.291866,1049.2314,67.61428,1049.2314 Z M65.66521,1067.5034L65.66521,1067.5034L65.66521,1067.5034C71.987625,1067.5034,77.11296,1072.6287,77.11296,1078.951C77.11296,1085.2734,71.987625,1090.3988,65.66521,1090.3988L65.66521,1090.3988L65.66521,1090.3988C59.342793,1090.3988,54.217464,1085.2734,54.217464,1078.951C54.217464,1072.6287,59.342793,1067.5034,65.66521,1067.5034 Z M63.29759,1085.7258L63.29759,1085.7258L63.29759,1085.7258C69.62,1085.7258,74.74533,1090.8511,74.74533,1097.1736C74.74533,1103.4958,69.619995,1108.6213,63.29759,1108.6213L63.29759,1108.6213L63.29759,1108.6213C56.97517,1108.6213,51.849834,1103.4958,51.849834,1097.1736C51.849834,1090.8511,56.97517,1085.7258,63.29759,1085.7258 Z M60.38705,1103.8694L60.38705,1103.8694L60.38705,1103.8694C66.709465,1103.8694,71.8348,1108.9949,71.8348,1115.3173C71.8348,1121.6396,66.709465,1126.765,60.38705,1126.765L60.38705,1126.765L60.38705,1126.765C54.06464,1126.765,48.939297,1121.6396,48.939297,1115.3173C48.939297,1108.9949,54.06464,1103.8694,60.38705,1103.8694 Z M56.685802,1121.8662L56.685802,1121.8662L56.685802,1121.8662C63.00822,1121.8662,68.13355,1126.9916,68.13357,1133.3141C68.13357,1139.6365,63.00823,1144.7618,56.68581,1144.7618L56.68581,1144.7618L56.68581,1144.7618C50.3634,1144.7618,45.238064,1139.6365,45.238064,1133.3141C45.23805,1126.9916,50.36339,1121.8662,56.685802,1121.8662 Z M51.538822,1139.4955L51.538822,1139.4955L51.538822,1139.4955C57.86124,1139.4955,62.98657,1144.6207,62.98657,1150.9432C62.98657,1157.2656,57.861233,1162.391,51.538822,1162.391L51.538822,1162.391L51.538822,1162.391C45.216404,1162.391,40.09107,1157.2656,40.09107,1150.9432C40.09107,1144.6207,45.216404,1139.4955,51.538822,1139.4955 Z M40.988888,1153.5277L40.988888,1153.5277L40.988888,1153.5277C47.311306,1153.5277,52.436634,1158.6531,52.436634,1164.9755C52.436634,1171.298,47.311306,1176.4233,40.988888,1176.4233L40.988888,1176.4233L40.988888,1176.4233C34.66647,1176.4233,29.541136,1171.298,29.541136,1164.9755C29.541136,1158.6531,34.66647,1153.5277,40.988888,1153.5277 Z M30.94393,1139.211L30.94393,1139.211L30.94393,1139.211C37.266354,1139.211,42.39168,1144.3365,42.39168,1150.6588C42.39168,1156.9813,37.266354,1162.1066,30.94393,1162.1066L30.94393,1162.1066L30.94393,1162.1066C24.621511,1162.1066,19.496183,1156.9813,19.496183,1150.6588C19.496183,1144.3365,24.621511,1139.211,30.94393,1139.211 Z M26.565184,1121.3755L26.565184,1121.3755L26.565184,1121.3755C32.8876,1121.3755,38.012928,1126.501,38.012943,1132.8234C38.012943,1139.1459,32.887608,1144.2712,26.565191,1144.2712L26.565191,1144.2712L26.565191,1144.2712C20.242773,1144.2712,15.117446,1139.1459,15.117446,1132.8234C15.117438,1126.501,20.242765,1121.3755,26.565184,1121.3755 Z M23.659094,1103.2336L23.659094,1103.2336L23.659094,1103.2336C29.981504,1103.2336,35.10684,1108.3591,35.10684,1114.6815C35.10684,1121.0039,29.981504,1126.1293,23.659094,1126.1293L23.659094,1126.1293L23.659094,1126.1293C17.336672,1126.1293,12.211341,1121.0039,12.211341,1114.6815C12.211341,1108.3591,17.336672,1103.2336,23.659094,1103.2336 Z M21.553175,1084.9791L21.553175,1084.9791L21.553175,1084.9791C27.875593,1084.9791,33.00092,1090.1045,33.00092,1096.4268C33.00092,1102.7493,27.875593,1107.8746,21.553175,1107.8746L21.553175,1107.8746L21.553175,1107.8746C15.230758,1107.8746,10.10543,1102.7493,10.10543,1096.4268C10.10543,1090.1045,15.230762,1084.9791,21.553175,1084.9791 Z M19.994833,1066.6699L19.994833,1066.6699L19.994833,1066.6699C26.317251,1066.6699,31.442587,1071.7952,31.442587,1078.1177C31.442587,1084.44,26.317251,1089.5653,19.994833,1089.5653L19.994833,1089.5653L19.994833,1089.5653C13.67242,1089.5653,8.547088,1084.44,8.547088,1078.1177C8.5470915,1071.7952,13.672423,1066.6699,19.994833,1066.6699 Z M18.85777,1048.3293L18.85777,1048.3293L18.85777,1048.3293C25.18019,1048.3293,30.305517,1053.4547,30.305517,1059.7771C30.305517,1066.0996,25.18019,1071.2249,18.85777,1071.2249L18.85777,1071.2249L18.85777,1071.2249C12.535357,1071.2249,7.410026,1066.0996,7.410026,1059.7771C7.410026,1053.4547,12.535357,1048.3293,18.85777,1048.3293 Z M18.069464,1029.9702L18.069464,1029.9702L18.069464,1029.9702C24.391882,1029.9702,29.51721,1035.0957,29.51721,1041.418C29.51721,1047.7405,24.391882,1052.8657,18.069464,1052.8657L18.069464,1052.8657L18.069464,1052.8657C11.747046,1052.8657,6.621715,1047.7405,6.621715,1041.418C6.621715,1035.0957,11.747046,1029.9702,18.069464,1029.9702 Z M17.584845,1011.60095L17.584845,1011.60095L17.584845,1011.60095C23.907263,1011.60095,29.03259,1016.7263,29.03259,1023.0487C29.03259,1029.3711,23.907263,1034.4963,17.584845,1034.4963L17.584845,1034.4963L17.584845,1034.4963C11.262427,1034.4963,6.137096,1029.3711,6.137096,1023.0487C6.137096,1016.7263,11.262427,1011.60095,17.584845,1011.60095 Z M17.374685,993.2261L17.374685,993.2261L17.374685,993.2261C23.697104,993.2261,28.82244,998.3514,28.82244,1004.6738C28.82244,1010.9962,23.697104,1016.1215,17.374685,1016.1215L17.374685,1016.1215L17.374685,1016.1215C11.052272,1016.1215,5.9269404,1010.9962,5.9269404,1004.6738C5.9269404,998.3514,11.052272,993.2261,17.374685,993.2261 Z M17.419847,974.8502L17.419847,974.8502L17.419847,974.8502C23.74227,974.8502,28.867598,979.9755,28.867598,986.298C28.867598,992.62036,23.742262,997.74567,17.419844,997.74567L17.419844,997.74567L17.419844,997.74567C11.09743,997.74567,5.972099,992.62036,5.972099,986.298C5.972099,979.9755,11.09743,974.8502,17.419847,974.8502 Z M17.70806,956.4764L17.70806,956.4764L17.70806,956.4764C24.03047,956.4764,29.155806,961.60175,29.155806,967.92413C29.155813,974.24664,24.030478,979.37195,17.708067,979.37195L17.708067,979.37195L17.708067,979.37195C11.385646,979.37195,6.2603145,974.24664,6.260307,967.92413C6.2603106,961.60175,11.385642,956.4764,17.70806,956.4764 Z M18.23374,938.108L18.23374,938.108L18.23374,938.108C24.556158,938.108,29.681486,943.2333,29.681486,949.5557C29.681486,955.8781,24.55615,961.0034,18.233732,961.0034L18.233732,961.0034L18.233732,961.0034C11.911323,961.0034,6.785991,955.8781,6.785991,949.5557C6.785991,943.2333,11.911323,938.108,18.23374,938.108 Z M19.002142,919.7483L19.002142,919.7483L19.002142,919.7483C25.324553,919.7483,30.449888,924.8736,30.449888,931.196C30.449888,937.51843,25.324553,942.64374,19.002134,942.64374L19.002134,942.64374L19.002134,942.64374C12.679725,942.64374,7.5543933,937.51843,7.5543933,931.196C7.5543933,924.8736,12.679725,919.7483,19.002142,919.7483 Z M20.025267,901.40063L20.025267,901.40063L20.025267,901.40063C26.347685,901.40063,31.473013,906.526,31.473013,912.8484C31.473013,919.1708,26.347685,924.2961,20.025267,924.2961L20.025267,924.2961L20.025267,924.2961C13.702849,924.2961,8.5775175,919.1708,8.5775175,912.8484C8.5775175,906.526,13.702849,901.40063,20.025267,901.40063 Z M21.321867,883.07074L21.321867,883.07074L21.321867,883.07074C27.644285,883.07074,32.76961,888.19604,32.76961,894.5185C32.76961,900.8409,27.644278,905.9662,21.321867,905.9662L21.321867,905.9662L21.321867,905.9662C14.999446,905.9662,9.874118,900.8409,9.874118,894.5185C9.874118,888.19604,14.99945,883.07074,21.321867,883.07074 Z M22.92069,864.76447L22.92069,864.76447L22.92069,864.76447C29.243109,864.76447,34.368435,869.8898,34.368435,876.2122C34.368435,882.5346,29.243101,887.6599,22.92069,887.6599L22.92069,887.6599L22.92069,887.6599C16.598272,887.6599,11.472941,882.5346,11.472941,876.2122C11.472941,869.8898,16.598272,864.76447,22.92069,864.76447 Z M24.865973,846.4919L24.865973,846.4919L24.865973,846.4919C31.18839,846.4919,36.313717,851.6172,36.313725,857.9397C36.313725,864.26215,31.188398,869.38745,24.86598,869.38745L24.86598,869.38745L24.86598,869.38745C18.543562,869.38745,13.418227,864.26215,13.418227,857.9397C13.418223,851.6172,18.543554,846.4919,24.865973,846.4919 Z M27.228903,828.2689L27.228903,828.2689L27.228903,828.2689C33.55131,828.2689,38.676647,833.3942,38.676647,839.7166C38.67664,846.039,33.55131,851.16437,27.228895,851.16437L27.228895,851.16437L27.228895,851.16437C20.906485,851.16437,15.78115,846.039,15.78115,839.7166C15.78115,833.3942,20.906485,828.2689,27.228903,828.2689 Z M30.133055,810.12415L30.133055,810.12415L30.133055,810.12415C36.455463,810.12415,41.5808,815.24945,41.5808,821.57184C41.5808,827.8943,36.455463,833.0196,30.133047,833.0196L30.133047,833.0196L30.133047,833.0196C23.810629,833.0196,18.685308,827.8943,18.685308,821.57184C18.685308,815.24945,23.810637,810.12415,30.133055,810.12415 Z M33.824245,792.1255L33.824245,792.1255L33.824245,792.1255C40.146664,792.1255,45.27199,797.2508,45.27199,803.57324C45.27199,809.8956,40.146664,815.02094,33.824245,815.02094L33.824245,815.02094L33.824245,815.02094C27.50183,815.02094,22.376501,809.8956,22.376501,803.57324C22.376501,797.2508,27.50183,792.1255,33.824245,792.1255 Z M38.949688,774.4897L38.949688,774.4897L38.949688,774.4897C45.272106,774.4897,50.397427,779.615,50.397427,785.9374C50.397427,792.2598,45.272106,797.38513,38.949688,797.38513L38.949688,797.38513L38.949688,797.38513C32.62727,797.38513,27.501944,792.2598,27.501944,785.9374C27.501944,779.615,32.62727,774.4897,38.949688,774.4897 Z M49.377514,760.28894L49.377514,760.28894L49.377514,760.28894C55.699924,760.28894,60.825253,765.41425,60.825253,771.73663C60.825253,778.059,55.699924,783.1843,49.377514,783.1843L49.377514,783.1843L49.377514,783.1843C43.055096,783.1843,37.929768,778.059,37.929768,771.73663C37.929768,765.41425,43.055096,760.28894,49.377514,760.28894 Z M59.551533,774.42505L59.551533,774.42505L59.551533,774.42505C65.87395,774.42505,70.999275,779.55035,70.999275,785.8728C70.999275,792.1952,65.87395,797.3205,59.551533,797.3205L59.551533,797.3205L59.551533,797.3205C53.229115,797.3205,48.103794,792.1952,48.103794,785.8728C48.103794,779.55035,53.229115,774.42505,59.551533,774.42505 Z M63.952625,792.25476L63.952625,792.25476L63.952625,792.25476C70.27504,792.25476,75.40037,797.38007,75.40037,803.70245C75.40037,810.0249,70.27504,815.1502,63.952625,815.1502L63.952625,815.1502L63.952625,815.1502C57.630207,815.1502,52.50488,810.0249,52.50488,803.70245C52.50488,797.38007,57.630207,792.25476,63.952625,792.25476 Z M66.86896,810.3951L66.86896,810.3951L66.86896,810.3951C73.191376,810.3951,78.3167,815.5204,78.3167,821.8428C78.3167,828.16516,73.191376,833.2905,66.86896,833.2905L66.86896,833.2905L66.86896,833.2905C60.546543,833.2905,55.421215,828.16516,55.421215,821.8428C55.421215,815.5204,60.546543,810.3951,66.86896,810.3951 Z M68.98134,828.649L68.98134,828.649L68.98134,828.649C75.30376,828.649,80.429085,833.7743,80.429085,840.0967C80.429085,846.4191,75.30376,851.54443,68.98134,851.54443L68.98134,851.54443L68.98134,851.54443C62.658924,851.54443,57.533596,846.4191,57.533596,840.0967C57.533596,833.7743,62.658924,828.649,68.98134,828.649 Z M70.544426,846.9579L70.544426,846.9579L70.544426,846.9579C76.866844,846.9579,81.99218,852.0832,81.992195,858.40576C81.992195,864.72815,76.86686,869.85345,70.54444,869.85345L70.54444,869.85345L70.54444,869.85345C64.22202,869.85345,59.0967,864.72815,59.0967,858.40576C59.096684,852.0832,64.22201,846.9579,70.544426,846.9579 Z M71.685326,865.2983L71.685326,865.2983L71.685326,865.2983C78.007744,865.2983,83.13308,870.4236,83.13308,876.746C83.13308,883.0684,78.007744,888.1937,71.685326,888.1937L71.685326,888.1937L71.685326,888.1937C65.36291,888.1937,60.237576,883.0684,60.237576,876.746C60.237576,870.4236,65.36291,865.2983,71.685326,865.2983 Z M72.47688,883.65717L72.47688,883.65717L72.47688,883.65717C78.7993,883.65717,83.92463,888.78253,83.92463,895.1049C83.92463,901.4273,78.7993,906.5526,72.47688,906.5526L72.47688,906.5526L72.47688,906.5526C66.154465,906.5526,61.02914,901.4273,61.02914,895.1049C61.02914,888.78253,66.154465,883.65717,72.47688,883.65717 Z M72.96439,902.0264L72.96439,902.0264L72.96439,902.0264C79.286804,902.0264,84.41213,907.15173,84.41213,913.4741C84.41213,919.7965,79.286804,924.9218,72.96439,924.9218L72.96439,924.9218L72.96439,924.9218C66.641975,924.9218,61.516644,919.7965,61.516644,913.4741C61.516644,907.15173,66.641975,902.0264,72.96439,902.0264 Z M73.1772,920.4013L73.1772,920.4013L73.1772,920.4013C79.49961,920.4013,84.62495,925.5266,84.62495,931.849C84.62495,938.17145,79.49961,943.29675,73.1772,943.29675L73.1772,943.29675L73.1772,943.29675C66.85478,943.29675,61.729458,938.17145,61.729458,931.849C61.729458,925.5266,66.85478,920.4013,73.1772,920.4013 Z M73.13454,938.77704L73.13454,938.77704L73.13454,938.77704C79.45695,938.77704,84.58228,943.90234,84.58228,950.22473C84.58228,956.5472,79.45695,961.6725,73.13454,961.6725L73.13454,961.6725L73.13454,961.6725C66.81212,961.6725,61.686794,956.5472,61.686794,950.22473C61.686794,943.90234,66.81212,938.77704,73.13454,938.77704 Z M72.84872,957.1508L72.84872,957.1508L72.84872,957.1508C79.171135,957.1508,84.29647,962.2761,84.29647,968.5985C84.296486,974.921,79.17115,980.0464,72.84873,980.0464L72.84873,980.0464L72.84873,980.0464C66.52631,980.0464,61.40099,974.921,61.400974,968.5985C61.400974,962.2761,66.5263,957.1508,72.84872,957.1508 Z"/>
</g>
<g style="fill:rgb(0,0,0); fill-opacity:1.0; stroke-linejoin: miter">
<path d="M48.984707,718.2552L48.984707,718.2561Q52.809765,720.89404,55.741703,723.53217Q57.880383,725.73047,58.003796,726.17004Q58.56487,727.0493,58.795147,727.9284L58.926197,728.8075L58.867138,729.6869L58.64327,730.5685Q58.336994,731.45105,57.835743,732.3469Q55.89741,735.506,55.288998,736.98615Q54.88937,737.9538,54.766018,738.9657L54.745396,739.9909L54.91876,741.0421Q55.19486,742.1066,55.74119,743.22015L58.30408,747.8494Q58.968853,749.0484,59.481808,750.284Q59.994762,751.5195,60.21523,752.7874L60.327396,754.0624L60.231853,755.35144L59.937763,756.6534L59.463192,757.9671Q58.898373,759.2867,58.044765,760.62506Q55.982952,763.9664,50.04807,770.1253L48.984707,718.2552"/>
</g>
<g style="fill:rgb(0,0,0); fill-opacity:1.0; stroke-linejoin: miter">
<path d="M55.937397,719.1958L55.937397,719.1967Q51.85822,721.42163,48.667347,723.73987Q46.31123,725.7033,46.14269,726.1277Q45.493053,726.94366,45.172413,727.79407L44.95048,728.6547L44.917583,729.53546L45.048374,730.43555Q45.261013,731.34534,45.666195,732.2885Q47.264797,735.6323,47.715664,737.1678Q48.012295,738.1718,48.029537,739.1911L47.94322,740.2129L47.66126,741.24036Q47.275745,742.2703,46.616352,743.32086L43.585056,747.6578Q42.79897,748.78107,42.16006,749.95636Q41.521152,751.1318,41.169773,752.3698L40.925365,753.6261L40.886074,754.9181L41.042896,756.24365L41.378002,757.5996L41.873554,758.9831Q42.449345,760.3803,43.274723,761.8201Q45.893497,766.1641,49.474995,770.6727L55.937397,719.1958"/>
</g>
<g style="fill:rgb(0,0,0); fill-opacity:1.0; stroke-linejoin: miter">
<path d="M67.695595,699.9341L65.12173,701.97406L63.05183,704.895L62.714924,705.46594L61.233624,708.4094L60.831036,709.451L58.94161,712.2153L55.8175,715.0439L55.049915,716.55145L54.502308,718.3566L54.962627,717.79913L54.868633,718.77435L55.36455,718.89343L56.67799,717.24347L55.851353,719.71674L56.251095,721.8309L56.163853,722.9423L54.952587,725.8266L54.97166,726.94135L55.880062,726.808L56.5927,726.1934L57.124447,726.2366L57.60117,725.7586L59.084034,721.70514L60.863903,718.2743L63.26878,715.74255L63.655704,713.3745L64.08167,709.63367L64.68179,708.83936L66.90293,704.405L68.33903,702.24097L67.85107,700.6678L67.695595,699.9341"/>
</g>
<g style="fill:rgb(0,0,0); fill-opacity:1.0; stroke-linejoin: miter">
<path d="M57.614742,703.9329L56.059933,706.7341L54.917675,710.7338L54.652607,715.13824L54.901882,714.9101L54.382114,718.4194L52.60876,721.9678L52.16109,723.7464L52.250027,727.5053L52.440815,725.0993L52.609165,728.4308L53.76173,725.9812L54.772556,727.42395L54.3766,728.08527L55.3309,730.3488L55.456104,732.20953L55.35944,734.67584L56.14622,734.46716L56.87637,735.3681L57.38261,733.1586L57.6609,732.40826L58.006924,732.2439L57.81255,727.87305L58.208492,724.1224L59.414867,720.87213L58.992825,718.5322L57.892376,715.01764L58.171886,714.2536L58.345806,709.838L58.76795,708.20935L58.893658,706.9297L58.42677,705.04974L57.81689,704.69244L57.614742,703.9329"/>
</g>
<g style="fill:rgb(0,0,0); fill-opacity:1.0; stroke-linejoin: miter">
<path d="M46.161495,703.7835L45.548695,707.2386L45.654964,709.78705L46.412647,711.9679L46.807674,712.5565L47.484997,716.39233L46.99133,720.2455L47.425602,722.2097L48.609867,724.1096Q48.96301,723.5801,49.197918,722.80597L49.380314,722.7254L51.778774,724.74524L52.69965,726.3845L53.446087,728.5141L54.402256,728.8103L55.26639,728.66644L55.456684,727.644L55.352375,726.6778L53.66557,722.4828L52.689533,718.7243L52.253475,715.3167Q50.488743,713.27856,50.198307,712.7042L48.630222,708.5212L48.433308,706.8433L48.04101,704.4174L46.69682,704.26215L46.161495,703.7835"/>
</g>
<g style="fill:rgb(0,0,0); fill-opacity:1.0; stroke-linejoin: miter">
<path d="M36.9939,705.2243L37.475483,708.52576L38.60583,711.3261Q39.606777,712.7194,40.567333,713.93976L42.314587,716.5069L43.042225,719.4443L44.32426,723.64233L45.41518,724.5461L45.275097,724.0706L46.9882,725.87244Q46.912357,724.9618,46.759136,723.98926L46.909412,723.9592L48.838047,724.149L48.718113,724.70166L50.333485,725.5244L52.417683,728.0907L53.441113,728.74225L53.42264,727.2953Q53.78777,727.13586,54.060383,726.58435L53.674915,725.651L50.894512,722.3404L48.82986,719.172L47.733135,715.7922L45.744686,714.282L42.919865,711.9505L42.13387,711.2164L40.38516,707.26276L40.312435,708.1312L38.60574,705.3301L37.59511,705.5604L36.9939,705.2243"/>
</g>
<g style="fill:rgb(0,0,0); fill-opacity:1.0; stroke-linejoin: miter">
<path d="M83.22401,708.69293L81.03512,707.69775L76.66454,706.68463L73.5668,706.44507L74.87771,706.17487Q69.273346,706.349,67.49539,706.5294L68.10582,706.66895Q62.167492,707.2565,60.693684,707.18115L56.27827,707.7034L51.575375,711.524L51.580402,712.0687L50.49609,716.794L50.99468,714.264L51.157253,714.35767L50.821224,718.7942L51.31666,715.8511L51.59461,716.0889Q51.989895,714.7905,52.908924,713.4857L52.55476,715.07794L53.22008,717.9083L52.71628,718.0045Q53.425,720.0506,53.76801,721.5793L54.022877,724.1286L54.993473,728.9474L55.35857,727.5151L55.757084,726.724L56.374104,728.0425L56.25976,725.8573L56.483135,725.4585L56.36394,723.5965L56.47041,722.4379L55.90659,718.45013L56.68153,715.56354L58.142056,713.39386L60.441517,712.9194L62.333256,711.8009Q64.212776,711.16064,67.65742,709.6379L66.71189,710.00793L71.0055,709.31726L75.04062,709.66846L78.32533,710.12823L75.83488,709.4473L80.23513,710.1679L81.511696,709.86975L81.41161,708.9554L83.22401,708.69293"/>
</g>
</g>
</svg>