<?xml version="1.0" ?><svg id="Layer_1" style="enable-background:new 0 0 152 152;" version="1.1" viewBox="0 0 152 152" xml:space="preserve" xmlns="http://www.w3.org/2000/svg" xmlns:xlink="http://www.w3.org/1999/xlink"><style type="text/css">
	.st0{fill:#3374BA;}
	.st1{opacity:0.2;fill:#2D3079;}
	.st2{opacity:0.2;fill:#FFFFFF;}
	.st3{opacity:0.1;fill:#FFFFFF;}
	.st4{fill:#FFFFFF;}
	.st5{opacity:0.2;}
	.st6{fill:#202020;}
</style><g id="XMLID_7_"><path class="st0" d="M139.9,152h-128c-6.6,0-12-5.4-12-12V12c0-6.6,5.4-12,12-12h128c6.6,0,12,5.4,12,12v128   C151.9,146.6,146.5,152,139.9,152z" id="XMLID_16_"/><path class="st1" d="M139.9,151h-128c-6.6,0-12-5.4-12-12v1c0,6.6,5.4,12,12,12h128c6.6,0,12-5.4,12-12v-1   C151.9,145.6,146.5,151,139.9,151z" id="XMLID_14_"/><path class="st2" d="M139.9,0h-128c-6.6,0-12,5.4-12,12v1c0-6.6,5.4-12,12-12h128c6.6,0,12,5.4,12,12v-1   C151.9,5.4,146.5,0,139.9,0z" id="XMLID_15_"/><path class="st3" d="M139.9,152h-64V0l64,0c6.6,0,12,5.4,12,12v128C151.9,146.6,146.5,152,139.9,152z" id="XMLID_3_"/></g><path class="st4" d="M57.5,76.7c0-4.7,0-9.3,0-14c2.6,0,5.1,0,7.8,0c0-0.4,0-0.8,0-1.1c0-3.3-0.1-6.6,0.1-9.9  c0.4-5.3,2.6-9.8,7.4-12.5c2.3-1.3,4.7-2,7.3-2c4.7-0.1,9.3,0,14,0c0,4.5,0,9,0,13.6c-0.3,0-0.6,0-0.9,0c-2.6,0-5.2,0-7.9,0  c-2.1,0-3.5,1.2-3.5,3.3c-0.1,2.9,0,5.8,0,8.7c4.2,0,8.3,0,12.6,0c-0.5,4.7-1,9.3-1.4,14c-3.7,0-7.4,0-11.1,0c0,13.2,0,26.4,0,39.6  c-5.6,0-11,0-16.6,0c0-0.4,0-0.8,0-1.2c0-12.4,0-24.9,0-37.3c0-0.9-0.2-1.2-1.2-1.2c-1.9,0.1-3.8,0-5.7,0  C58.2,76.7,57.9,76.7,57.5,76.7z" id="XMLID_2_"/><g class="st5" id="XMLID_18_"><path class="st4" d="M81.9,62.6c0-1.4,0-2.8,0-4.2c0,1.7,0,3.4,0,5.2c4.2,0,8.3,0,12.5,0c0-0.3,0.1-0.7,0.1-1   C90.3,62.6,86.1,62.6,81.9,62.6z" id="XMLID_19_"/><path class="st4" d="M65.4,78.8c0,6.2,0,12.4,0,18.6C65.3,91.2,65.4,85,65.4,78.8C65.4,78.8,65.4,78.8,65.4,78.8z" id="XMLID_20_"/><path class="st4" d="M65.3,62.6c0-0.3,0-0.6,0-0.9c0,0.3,0,0.6,0,1c-2.7,0-5.2,0-7.8,0c0,0.3,0,0.7,0,1   c2.6,0,5.1,0,7.8,0C65.3,63.3,65.3,62.9,65.3,62.6z" id="XMLID_21_"/><path class="st4" d="M65.5,52.7c0.4-5.3,2.6-9.8,7.4-12.5c2.3-1.3,4.7-2,7.3-2c4.7-0.1,9.3,0,14,0c0-0.3,0-0.7,0-1   c-4.7,0-9.4-0.1-14,0c-2.6,0.1-5.1,0.7-7.3,2c-4.8,2.8-7,7.2-7.4,12.5c-0.2,1.9-0.2,3.7-0.2,5.6C65.3,55.7,65.4,54.2,65.5,52.7z" id="XMLID_22_"/></g><g class="st5" id="XMLID_23_"><path class="st6" d="M65.3,61.6c0-1.4,0-2.9,0-4.3C65.3,58.7,65.3,60.2,65.3,61.6C65.3,61.6,65.3,61.6,65.3,61.6z" id="XMLID_24_"/><path class="st6" d="M85.5,51.6c2.6,0,5.2,0,7.9,0c0.3,0,0.6,0,0.9,0c0-0.3,0-0.7,0-1c-0.3,0-0.6,0-0.9,0   c-2.6,0-5.2,0-7.9,0c-2.1,0-3.5,1.2-3.5,3.3c-0.1,1.5-0.1,3,0,4.5c0-1.2,0-2.4,0-3.5C82,52.8,83.4,51.7,85.5,51.6z" id="XMLID_25_"/><path class="st6" d="M65.4,77.8c0-0.9-0.2-1.2-1.2-1.2c-1.9,0.1-3.8,0-5.7,0c-0.3,0-0.7,0-1,0c0,0.3,0,0.7,0,1   c0.4,0,0.7,0,1,0c1.9,0,3.8,0.1,5.7,0c0.9,0,1.2,0.2,1.2,1.1C65.4,78.5,65.4,78.2,65.4,77.8z" id="XMLID_26_"/><path class="st6" d="M93.1,76.7c-3.7,0-7.4,0-11.1,0c0,0.3,0,0.7,0,1c3.8,0,7.4,0,11.1,0c0.5-4.7,1-9.3,1.4-14   c0,0-0.1,0-0.1,0C94,68,93.5,72.3,93.1,76.7z" id="XMLID_27_"/><path class="st6" d="M65.3,117.3c5.6,0,11.1,0,16.6,0c0-0.3,0-0.7,0-1c-5.6,0-11,0-16.6,0   C65.3,116.6,65.3,116.9,65.3,117.3z" id="XMLID_28_"/><path class="st6" d="M65.3,115.1c0-5.9,0-11.8,0-17.7c0,6.2,0,12.5,0,18.7C65.3,115.8,65.3,115.5,65.3,115.1z" id="XMLID_29_"/></g></svg>