<?xml version="1.0" ?><svg id="Layer_1" style="enable-background:new 0 0 152 152;" version="1.1" viewBox="0 0 152 152" xml:space="preserve" xmlns="http://www.w3.org/2000/svg" xmlns:xlink="http://www.w3.org/1999/xlink"><style type="text/css">
	.st0{fill:#43C1E8;}
	.st1{opacity:0.2;fill:#2D3079;}
	.st2{opacity:0.2;fill:#FFFFFF;}
	.st3{opacity:0.1;fill:#FFFFFF;}
	.st4{fill:#FFFFFF;}
	.st5{opacity:0.2;}
	.st6{fill:#202020;}
</style><g id="XMLID_7_"><path class="st0" d="M140,152H12c-6.6,0-12-5.4-12-12V12C0,5.4,5.4,0,12,0h128c6.6,0,12,5.4,12,12v128   C152,146.6,146.6,152,140,152z" id="XMLID_2_"/><path class="st1" d="M140,151H12c-6.6,0-12-5.4-12-12v1c0,6.6,5.4,12,12,12h128c6.6,0,12-5.4,12-12v-1   C152,145.6,146.6,151,140,151z" id="XMLID_14_"/><path class="st2" d="M140,0H12C5.4,0,0,5.4,0,12v1C0,6.4,5.4,1,12,1h128c6.6,0,12,5.4,12,12v-1   C152,5.4,146.6,0,140,0z" id="XMLID_15_"/><path class="st3" d="M140,152H76V0l64,0c6.6,0,12,5.4,12,12v128C152,146.6,146.6,152,140,152z" id="XMLID_3_"/></g><g id="XMLID_16_"><path class="st4" d="M56.8,97.5c-8.9-0.8-15-5.3-18.3-13.7c3,0.3,5.7,0.4,8.6-0.3c-9.7-3-14.9-9.4-15.6-19.6   c2.9,1.4,5.6,2.3,8.7,2.4C31.5,59,29.5,50.4,34.3,40C45.1,52.6,58.5,59.5,75,60.6c-0.1-0.8-0.2-1.5-0.3-2.1   c-1-8.2,3.3-16.2,10.7-20c7.5-3.8,16.5-2.4,22.5,3.4c0.6,0.6,1.1,0.7,1.9,0.5c3.6-0.9,6.9-2.1,10.2-3.9c0.3-0.2,0.6-0.3,1.2-0.6   c-0.7,2.4-1.7,4.4-3.2,6.1c-1.5,1.7-3.1,3.1-4.7,4.6c3.5-0.4,7-1.5,10.6-2.9c-2.3,3.4-4.7,6.2-7.7,8.5c-1.6,1.2-2,2.4-2,4.3   c0,22.2-13.6,43.4-33.6,51.5c-17.5,7.1-34.7,5.9-51.3-3.5c-0.3-0.2-0.6-0.4-0.9-0.6c0,0-0.1-0.1-0.1-0.2c7.3,0.7,14.4-0.4,21-3.5   C51.9,100.9,54.4,99.4,56.8,97.5z" id="XMLID_31_"/><g class="st5" id="XMLID_24_"><path class="st4" d="M114.5,48.5c-0.4,0.4-0.8,0.8-1.2,1.2c3.2-0.4,6.3-1.3,9.6-2.6c0.3-0.4,0.6-0.9,1-1.4    C120.6,47,117.5,48,114.5,48.5z" id="XMLID_30_"/><path class="st4" d="M85.4,39.5c7.5-3.8,16.5-2.4,22.5,3.4c0.6,0.6,1.1,0.7,1.9,0.5c3.6-0.9,6.9-2.1,10.2-3.9    c0.2-0.1,0.4-0.2,0.7-0.4c0.1-0.4,0.3-0.8,0.4-1.2c-0.5,0.3-0.9,0.4-1.2,0.6c-3.2,1.8-6.6,3-10.2,3.9c-0.8,0.2-1.3,0.1-1.9-0.5    c-6-5.8-15-7.1-22.5-3.4C78.7,42,74.5,48.9,74.6,56.4C74.9,49.3,79,42.8,85.4,39.5z" id="XMLID_29_"/><path class="st4" d="M38.5,83.8c0.1,0.4,0.3,0.7,0.4,1c2.8,0.3,5.4,0.4,8.2-0.4c-0.6-0.2-1.2-0.4-1.8-0.6    C43,84.2,40.8,84.1,38.5,83.8z" id="XMLID_28_"/><path class="st4" d="M34.3,41C45.1,53.6,58.5,60.5,75,61.6c0-0.4-0.1-0.7-0.1-1C58.5,59.4,45.1,52.6,34.3,40    c-1.8,4-2.6,7.7-2.5,11.1C31.8,47.9,32.7,44.6,34.3,41z" id="XMLID_27_"/><path class="st4" d="M29.2,106.5c0.2,0.1,0.3,0.2,0.5,0.3c6.8,0.4,13.3-0.7,19.5-3.6c2.7-1.2,5.2-2.7,7.6-4.6    c-0.4,0-0.8-0.1-1.2-0.1c-2.1,1.5-4.2,2.7-6.4,3.8c-6.7,3.1-13.7,4.2-21,3.5c0.1,0.1,0.1,0.2,0.1,0.2    C28.6,106.1,28.9,106.3,29.2,106.5z" id="XMLID_26_"/><path class="st4" d="M40.2,67.3c-0.4-0.4-0.8-0.7-1.2-1.1c-2.6-0.3-5-1.1-7.5-2.3c0,0.4,0.1,0.7,0.1,1    C34.4,66.3,37.2,67.2,40.2,67.3z" id="XMLID_25_"/></g><g class="st5" id="XMLID_17_"><path class="st6" d="M38.9,84.9c-0.2,0-0.3,0-0.4,0c3.2,8.1,8.9,12.5,17.2,13.6c0.4-0.3,0.8-0.6,1.2-0.9    C48.2,96.7,42.3,92.6,38.9,84.9z" id="XMLID_23_"/><path class="st6" d="M74.9,60.6c0,0,0.1,0,0.1,0c-0.1-0.8-0.2-1.5-0.3-2.1c-0.1-0.7-0.1-1.4-0.1-2.2    c0,1,0,2.1,0.1,3.2C74.8,59.9,74.8,60.3,74.9,60.6z" id="XMLID_22_"/><path class="st6" d="M117.9,45c1.5-1.7,2.5-3.7,3.2-6.1c-0.2,0.1-0.3,0.2-0.4,0.2c-0.7,1.8-1.6,3.5-2.8,4.8    c-1.5,1.7-3.1,3.1-4.7,4.6c0.4,0,0.8-0.1,1.2-0.2C115.6,47.4,116.8,46.3,117.9,45z" id="XMLID_21_"/><path class="st6" d="M39,66.2c0.4,0,0.8,0.1,1.2,0.1c-5.4-4.5-8.2-9.5-8.4-15.2C31.7,56.7,34.1,61.7,39,66.2z" id="XMLID_20_"/><path class="st6" d="M116.1,54.2c-1.6,1.2-2,2.4-2,4.3c0,22.2-13.6,43.4-33.6,51.5c-17.4,7.1-34.4,6-50.8-3.2    c-0.5,0-1-0.1-1.5-0.1c0.1,0.1,0.1,0.2,0.1,0.2c0.3,0.2,0.6,0.4,0.9,0.6c16.5,9.5,33.7,10.6,51.3,3.5c20-8.1,33.7-29.3,33.6-51.5    c0-1.9,0.5-3.1,2-4.3c3-2.2,5.4-5.1,7.7-8.5c-0.3,0.1-0.6,0.3-1,0.4C120.9,49.9,118.7,52.3,116.1,54.2z" id="XMLID_19_"/><path class="st6" d="M45.3,83.9c0.6-0.1,1.2-0.2,1.8-0.4c-9.4-2.9-14.5-9-15.5-18.6c0,0-0.1,0-0.1,0    C32.1,74.4,36.7,80.7,45.3,83.9z" id="XMLID_18_"/></g></g></svg>