<?xml version="1.0" ?><svg id="Layer_1" style="enable-background:new 0 0 152 152;" version="1.1" viewBox="0 0 152 152" xml:space="preserve" xmlns="http://www.w3.org/2000/svg" xmlns:xlink="http://www.w3.org/1999/xlink"><style type="text/css">
	.st0{opacity:0.2;fill:#FFFFFF;}
	.st1{fill:#B32024;}
	.st2{opacity:0.2;fill:#BE3A26;}
	.st3{opacity:0.1;fill:#FFFFFF;}
	.st4{fill:#FFFFFF;}
	.st5{opacity:0.2;}
	.st6{fill:#202020;}
</style><g id="XMLID_121_"><path class="st0" d="M140,0H12C5.4,0,0,5.4,0,12v1C0,6.4,5.4,1,12,1h128c6.6,0,12,5.4,12,12v-1   C152,5.4,146.6,0,140,0z" id="XMLID_126_"/><path class="st1" d="M140,152H12c-6.6,0-12-5.4-12-12V12C0,5.4,5.4,0,12,0h128c6.6,0,12,5.4,12,12v128   C152,146.6,146.6,152,140,152z" id="XMLID_125_"/><path class="st2" d="M140,151H12c-6.6,0-12-5.4-12-12v1c0,6.6,5.4,12,12,12h128c6.6,0,12-5.4,12-12v-1   C152,145.6,146.6,151,140,151z" id="XMLID_124_"/><path class="st0" d="M140,0H12C5.4,0,0,5.4,0,12v1C0,6.4,5.4,1,12,1h128c6.6,0,12,5.4,12,12v-1   C152,5.4,146.6,0,140,0z" id="XMLID_123_"/><path class="st3" d="M140,152H76V0l64,0c6.6,0,12,5.4,12,12v128C152,146.6,146.6,152,140,152z" id="XMLID_122_"/></g><path class="st4" d="M114.9,105.8c-0.8,6.9-7.3,11.7-14.6,11.7c-13.6,0-27.2,0-40.8,0c-3.8,0-7.5,0.1-11.3-0.1  c-6.8-0.5-12.7-6.4-12.9-13.2c-0.2-4.7-0.2-9.5,0-14.2c0.3-7.3,6.7-13.3,14-13.4c8.7-0.1,17.4,0,26.1,0c0,0,0,0,0,0  c8.4,0,16.8,0,25.2,0c7.6,0,13.8,4.9,14.6,12.4C115.7,94.5,115.6,100.2,114.9,105.8z M60.4,81.7c-4.7,0-9.3,0-13.9,0  c0,1.3,0,2.6,0,4c1.5,0,3,0,4.7,0c0,7.9,0,15.6,0,23.4c1.5,0,3,0,4.5,0c0-0.4,0-0.8,0-1.1c0-6.2,0-12.5,0-18.7  c0-1.2,0.1-2.3,0.1-3.5c1.1,0,2.3-0.1,3.4-0.1c0.4,0,0.8,0,1.1,0C60.4,84.2,60.4,83,60.4,81.7z M73.8,88.9c-1.3,0-2.6,0-4,0  c0,0.4,0,0.7,0,1c0,4.4,0,8.8,0,13.2c0,1.1-0.4,1.8-1.2,2.2c-0.5,0.2-1.2,0.5-1.7,0.3c-0.3-0.1-0.5-1-0.5-1.5c0-4.7,0-9.5,0-14.2  c0-0.3,0-0.6,0-1c-1.4,0-2.7,0-4,0c0,0.2,0,0.4,0,0.6c0,5.4,0,10.8,0,16.3c0,0.5,0.1,1,0.2,1.4c0.3,1.5,1.3,2.4,2.8,2.2  c1.1-0.2,2.1-0.7,3.1-1.2c0.5-0.2,0.9-0.7,1.5-1.2c0,0.8,0,1.4,0,2.1c1.4,0,2.7,0,3.9,0C73.8,102.3,73.8,95.6,73.8,88.9z M88.6,97.5  c0-1.8,0-3.6-0.2-5.3c-0.4-3.3-3.6-4.6-6.3-2.7c-0.3,0.2-0.6,0.5-1.1,0.9c0-3,0-5.9,0-8.8c-1.2,0-2.3,0-3.5,0c-0.2,0-0.4,0-0.6,0  c0,9.2,0,18.3,0,27.4c1.4,0,2.7,0,4,0c0-0.4,0.1-0.8,0.1-1.3c0.3,0.2,0.4,0.4,0.6,0.6c1.4,1.1,3,1.4,4.7,0.8c1.6-0.6,2-2,2.2-3.6  c0-0.3,0-0.7,0-1C88.6,102.2,88.6,99.8,88.6,97.5z M98.5,103.6c0,0.4,0,0.8-0.1,1.2c-0.2,1-0.7,1.4-1.7,1.4c-0.9,0-1.6-0.4-1.6-1.4  c-0.1-1.7,0-3.5,0-5.3c2.5,0,5,0,7.5,0c0-2.3,0.1-4.5,0-6.7c-0.1-1.5-0.8-2.7-2.1-3.5C98.3,88,96,88,93.8,89c-2.1,1-3.1,2.8-3.1,5.1  c0,3.2,0,6.3,0,9.5c0,2,0.6,3.8,2.3,5c1.9,1.3,5.3,1.3,7.3,0c1.8-1.1,2.7-3.8,2.1-6.3c-1.3,0-2.6,0-4,0  C98.5,102.9,98.5,103.2,98.5,103.6z M95,93.3c0.1-1,0.7-1.4,1.6-1.5c1,0,1.7,0.4,1.8,1.4c0.1,0.9,0,1.9,0,2.9c-1.1,0-2.3,0-3.4,0  C95,95.2,94.9,94.3,95,93.3z M83.5,106.1c-0.9,0.2-1.6-0.1-2.2-0.7c-0.2-0.2-0.2-0.5-0.2-0.8c0-1.9,0-3.8,0-5.7c0-1.8,0-3.7,0-5.5  c0-0.9,0.4-1.4,1.4-1.5c1-0.1,1.7,0.3,1.9,1.1c0.1,0.4,0.1,0.8,0.1,1.3c0,3.3,0,6.5,0,9.8c0,0.2,0,0.3,0,0.5  C84.4,105.2,84.3,105.9,83.5,106.1z M93.4,67.1c-0.7,0.6-1.3,1.1-1.9,1.5c-1.1,0.8-2.4,1.3-3.8,1.2c-1.5-0.2-2.4-1-2.6-2.5  c-0.1-0.5-0.1-1-0.1-1.5c0-5.9,0-11.9,0-17.8c0-0.2,0-0.4,0.1-0.7c1.5,0,2.9,0,4.5,0c0,0.4,0,0.7,0,1.1c0,5.1,0,10.2,0,15.3  c0,0.3,0,0.6,0,0.9c0.1,1.2,0.8,1.6,1.8,1.2c1.5-0.6,2-1.3,2-2.9c0-4.8,0-9.6,0-14.5c0-0.3,0-0.7,0-1.1c1.5,0,3,0,4.5,0  c0,7.4,0,14.8,0,22.2c-1.5,0-2.9,0-4.5,0C93.4,68.7,93.4,68,93.4,67.1z M75.7,69.9c-1.2,0.1-2.4,0-3.6-0.3c-2.5-0.6-4.1-2.7-4.1-5.3  c-0.1-2.1,0-4.2,0-6.2c0,0,0,0,0,0c0-1.9,0-3.7,0-5.6c0-3.1,1.5-5,4.5-5.7c1.7-0.4,3.3-0.4,5,0.2c2.3,0.9,3.7,2.8,3.8,5.3  c0,3.8,0,7.5,0,11.3C81.2,67.3,79.4,69.5,75.7,69.9z M76.6,52.3c0-1.3-0.7-1.9-2-1.9c-1.3,0-1.9,0.6-1.9,1.9c0,3.9,0,7.8,0,11.7  c0,1.4,0.6,2.1,1.9,2.1c1.3,0,1.9-0.7,2-2.1c0-2,0-3.9,0-5.9C76.6,56.2,76.6,54.3,76.6,52.3z M61.9,56c-0.2,0.5-0.3,1.1-0.3,1.7  c0,3.6,0,7.1,0,10.7c0,0.3,0,0.6,0,1c-1.8,0-3.4,0-5.2,0c0-0.3,0-0.7,0-1c0-3.4,0-6.7,0-10.1c0-0.6-0.1-1.2-0.3-1.8  c-1.8-5.5-3.6-10.9-5.5-16.3c-0.1-0.3-0.2-0.6-0.3-1c1.3,0,2.6,0.1,3.8,0c1-0.1,1.4,0.3,1.7,1.3c0.8,3.4,1.8,6.7,2.7,10  c0.1,0.3,0.2,0.5,0.4,1.1c0.2-0.4,0.3-0.6,0.3-0.8c1-3.6,1.9-7.1,2.8-10.7c0.1-0.6,0.4-0.8,1-0.8c1.4,0,2.9,0,4.4,0  c-0.3,1-0.6,1.9-0.9,2.8C65.1,46.6,63.5,51.3,61.9,56z" id="XMLID_109_"/><g class="st5" id="XMLID_24_"><path class="st4" d="M55.9,86.7c1.1,0,2.3-0.1,3.4-0.1c0.4,0,0.8,0,1.1,0c0-0.3,0-0.7,0-1c-0.4,0-0.8,0-1.1,0   c-1.1,0-2.3,0.1-3.4,0.1c0,1.2-0.1,2.3-0.1,3.5c0,6.2,0,12.5,0,18.7c0,0.3,0,0.6,0,1c0-6.2,0-12.5,0-18.7   C55.8,89,55.9,87.9,55.9,86.7z" id="XMLID_108_"/><path class="st4" d="M54.2,40.1c1-0.1,1.4,0.3,1.7,1.3c0.8,3.4,1.8,6.7,2.7,10c0.1,0.3,0.2,0.5,0.4,1.1   c0.2-0.4,0.3-0.6,0.3-0.8c1-3.6,1.9-7.1,2.8-10.7c0.1-0.6,0.4-0.8,1-0.8c1.3,0,2.7,0,4.1,0c0.1-0.3,0.2-0.7,0.3-1c-1.6,0-3,0-4.4,0   c-0.6,0-0.8,0.2-1,0.8c-0.9,3.6-1.9,7.2-2.8,10.7c-0.1,0.2-0.2,0.4-0.3,0.8c-0.2-0.5-0.3-0.8-0.4-1.1c-0.9-3.3-1.9-6.7-2.7-10   c-0.3-1-0.7-1.4-1.7-1.3c-1.2,0.1-2.5,0-3.8,0c0.1,0.4,0.2,0.7,0.3,1C51.9,40.2,53.1,40.2,54.2,40.1z" id="XMLID_107_"/><path class="st4" d="M68,59.1C68,59.1,68,59.1,68,59.1c0,0.8,0,1.7,0,2.5C68,60.7,68,59.9,68,59.1z" id="XMLID_106_"/><path class="st4" d="M35.3,90.9c0.3-7.3,6.7-13.3,14-13.4c8.7-0.1,17.4,0,26.1,0c0,0,0,0,0,0c8.4,0,16.8,0,25.2,0   c7.6,0,13.8,4.9,14.6,12.4c0.3,2.5,0.4,5.1,0.4,7.6c0-2.9-0.1-5.8-0.4-8.6c-0.8-7.5-7.1-12.4-14.6-12.4c-8.4,0-16.8,0-25.2,0   c0,0,0,0,0,0c-8.7,0-17.4-0.1-26.1,0c-7.3,0.1-13.6,6.2-14,13.4c-0.1,2.5-0.2,5-0.1,7.6C35.1,95.3,35.2,93.1,35.3,90.9z" id="XMLID_105_"/><path class="st4" d="M72.7,65c0,1.4,0.6,2.1,1.9,2.1c1.3,0,1.9-0.7,2-2.1c0-2,0-3.9,0-5.9c0-0.2,0-0.4,0-0.6   c0,1.8,0,3.6,0,5.5c0,1.3-0.7,2-2,2.1c-1.3,0-1.9-0.6-1.9-2.1c0-3.6,0-7.2,0-10.7c0,0,0,0,0,0C72.7,57.2,72.7,61.1,72.7,65z" id="XMLID_104_"/><path class="st4" d="M89.5,49.2c0,5.1,0,10.2,0,15.3c0,0.3,0,0.6,0,0.9c0.1,1.2,0.8,1.6,1.8,1.2   c1.5-0.6,2-1.3,2-2.9c0-0.3,0-0.7,0-1c0,1.6-0.5,2.3-2,2.9c-1.1,0.4-1.8,0-1.8-1.2c0-0.3,0-0.6,0-0.9c0-5.1,0-10.2,0-15.3   C89.5,48.6,89.5,48.9,89.5,49.2z" id="XMLID_103_"/><path class="st4" d="M97.9,47.2c-1.5,0-3,0-4.5,0c0,0.4,0,0.7,0,1c1.5,0,3,0,4.5,0C97.9,47.8,97.9,47.5,97.9,47.2z   " id="XMLID_102_"/><path class="st4" d="M51.2,86.6c0-0.3,0-0.7,0-1c-1.6,0-3.1,0-4.7,0c0,0.3,0,0.7,0,1   C48.1,86.6,49.6,86.6,51.2,86.6z" id="XMLID_101_"/><path class="st4" d="M85,48.1c1.5,0,2.9,0,4.5,0c0-0.3,0-0.6,0-1c-1.6,0-3,0-4.5,0c0,0.3-0.1,0.5-0.1,0.7   c0,0.3,0,0.7,0,1C84.9,48.7,85,48.4,85,48.1z" id="XMLID_100_"/><path class="st4" d="M68,53.5c0-3.1,1.5-5,4.5-5.7c1.7-0.4,3.3-0.4,5,0.2c2.3,0.9,3.7,2.8,3.8,5.3   c0,3.4,0,6.9,0,10.3c0,0,0,0,0,0c0-3.8,0-7.5,0-11.3c0-2.5-1.4-4.4-3.8-5.3c-1.6-0.6-3.3-0.6-5-0.2c-3,0.7-4.5,2.6-4.5,5.7   c0,1.9,0,3.7,0,5.6c0,0,0,0,0,0C68,56.6,68,55,68,53.5z" id="XMLID_99_"/><path class="st4" d="M56.5,69.4L56.5,69.4c0-1.7,0-3.5,0-5.2c0,1.4,0,2.8,0,4.2C56.5,68.7,56.5,69,56.5,69.4z" id="XMLID_98_"/><path class="st4" d="M81,110c0-0.4,0.1-0.8,0.1-1.3c0.3,0.2,0.4,0.4,0.6,0.6c1.4,1.1,3,1.4,4.7,0.8   c1.6-0.6,2-2,2.2-3.6c0-0.3,0-0.7,0-1c0-0.3,0-0.7,0-1c0,0.3,0,0.7,0,1c-0.1,1.5-0.5,3-2.2,3.6c-1.7,0.6-3.3,0.3-4.7-0.8   c-0.2-0.1-0.4-0.3-0.6-0.6c0,0.5-0.1,0.9-0.1,1.3c-1.3,0-2.6,0-4,0c0,0.3,0,0.7,0,1C78.4,110,79.7,110,81,110z" id="XMLID_97_"/><path class="st4" d="M95,99.5c0,1.2,0,2.3,0,3.4c0-0.8,0-1.6,0-2.4c2.5,0,5,0,7.5,0c0-1.4,0-2.8,0-4.1   c0,1,0,2.1,0,3.1C100,99.5,97.5,99.5,95,99.5z" id="XMLID_96_"/><path class="st4" d="M84.4,94.3c0-0.4,0-0.8-0.1-1.3c-0.2-0.9-0.9-1.3-1.9-1.1c-1,0.1-1.4,0.6-1.4,1.5   c0,1.8,0,3.7,0,5.5c0,0,0,0.1,0,0.1c0-1.5,0-3.1,0-4.6c0-0.9,0.4-1.4,1.4-1.5c1-0.1,1.7,0.3,1.9,1.1c0.1,0.4,0.1,0.8,0.1,1.3   c0,2.9,0,5.9,0,8.8c0,0,0,0,0,0C84.4,100.8,84.4,97.5,84.4,94.3z" id="XMLID_95_"/><path class="st4" d="M96.6,92.9c1,0,1.7,0.4,1.8,1.4c0,0.2,0,0.5,0,0.7c0-0.6,0-1.1,0-1.7c-0.1-1-0.8-1.4-1.8-1.4   c-1,0-1.5,0.5-1.6,1.5c-0.1,0.7,0,1.4,0,2.1c0-0.4,0-0.7,0-1.1C95.1,93.4,95.7,92.9,96.6,92.9z" id="XMLID_31_"/><path class="st4" d="M90.7,104.6c0,2,0.6,3.8,2.3,5c1.9,1.3,5.3,1.3,7.3,0c1.5-1,2.4-3.2,2.3-5.4   c-0.1,1.8-1,3.5-2.3,4.4c-2,1.3-5.5,1.3-7.3,0c-1.7-1.2-2.3-3-2.3-5c0-1.4,0-2.8,0-4.2C90.7,101.1,90.7,102.9,90.7,104.6z" id="XMLID_30_"/><path class="st4" d="M62.3,106.8c0,0.5,0.1,1,0.2,1.4c0.3,1.5,1.3,2.4,2.8,2.2c1.1-0.2,2.1-0.7,3.1-1.2   c0.5-0.2,0.9-0.7,1.5-1.2c0-0.3,0-0.6,0-1c-0.6,0.5-1,1-1.5,1.2c-1,0.5-2,1-3.1,1.2c-1.5,0.2-2.5-0.7-2.8-2.2   c-0.1-0.5-0.2-1-0.2-1.4c0-5.1,0-10.2,0-15.3c0,0,0,0,0,0C62.3,95.9,62.3,101.3,62.3,106.8z" id="XMLID_29_"/><path class="st4" d="M51.2,110c1.5,0,3,0,4.5,0c0-0.4,0-0.7,0-1c-1.5,0-3,0-4.5,0C51.2,109.4,51.2,109.7,51.2,110z" id="XMLID_28_"/><path class="st4" d="M69.8,96.7c0,2.2,0,4.3,0,6.4c0,0,0,0,0-0.1C69.8,101,69.8,98.8,69.8,96.7z" id="XMLID_27_"/><path class="st4" d="M69.9,110c1.4,0,2.7,0,3.9,0c0-0.3,0-0.7,0-1c-1.3,0-2.6,0-3.9,0   C69.9,109.4,69.9,109.7,69.9,110z" id="XMLID_26_"/><path class="st4" d="M66.4,89.9L66.4,89.9c0,2.4,0,4.8,0,7.2c0-2.1,0-4.1,0-6.2C66.4,90.6,66.4,90.2,66.4,89.9z" id="XMLID_25_"/></g><g class="st5" id="XMLID_2_"><path class="st6" d="M69.8,88.9c0,0.4,0,0.7,0,1c1.4,0,2.7,0,4,0c0-0.3,0-0.7,0-1C72.5,88.9,71.2,88.9,69.8,88.9z" id="XMLID_23_"/><path class="st6" d="M68.6,105.3c-0.5,0.2-1.2,0.5-1.7,0.3c-0.3-0.1-0.5-1-0.5-1.5c0-2.3,0-4.7,0-7c0,2.7,0,5.3,0,8   c0,0.5,0.2,1.4,0.5,1.5c0.5,0.2,1.2,0,1.7-0.3c0.9-0.4,1.3-1.1,1.2-2.2c0-0.3,0-0.6,0-0.9C69.9,104.2,69.5,104.9,68.6,105.3z" id="XMLID_22_"/><path class="st6" d="M56.5,70.4c1.8,0,3.4,0,5.2,0c0-0.4,0-0.7,0-1c-1.8,0-3.4,0-5.2,0c0,0,0,0,0,0   C56.5,69.7,56.5,70,56.5,70.4z" id="XMLID_21_"/><path class="st6" d="M46.5,81.7c0,0.3,0,0.7,0,1c4.6,0,9.2,0,13.9,0c0-0.3,0-0.7,0-1C55.8,81.7,51.2,81.7,46.5,81.7   z" id="XMLID_20_"/><path class="st6" d="M88.6,97.5c0-1.8,0-3.6-0.2-5.3c-0.4-3.3-3.6-4.6-6.3-2.7c-0.3,0.2-0.6,0.5-1.1,0.9   c0,0.3,0,0.7,0,1c0.5-0.4,0.8-0.7,1.1-0.9c2.7-2,6-0.6,6.3,2.7c0.2,1.8,0.1,3.5,0.2,5.3c0,2,0,4,0,6.1c0,0,0,0,0,0   C88.6,102.2,88.6,99.8,88.6,97.5z" id="XMLID_19_"/><path class="st6" d="M81,81.6c-1.2,0-2.3,0-3.5,0c-0.2,0-0.4,0-0.6,0c0,0.3,0,0.7,0,1c0.2,0,0.4,0,0.6,0   c1.1,0,2.2,0,3.5,0C81,82.3,81,82,81,81.6z" id="XMLID_18_"/><path class="st6" d="M69.8,89.9c0,2.3,0,4.5,0,6.8c0-1.9,0-3.9,0-5.8C69.8,90.6,69.8,90.3,69.8,89.9z" id="XMLID_17_"/><path class="st6" d="M81.1,105.6c0,0.3,0,0.7,0.2,0.8c0.6,0.6,1.4,0.9,2.2,0.7c0.8-0.2,0.9-1,0.9-1.7   c0-0.1,0-0.3,0-0.5c0-0.3,0-0.7,0-1c0,0.1,0,0.3,0,0.4c-0.1,0.7-0.1,1.4-0.9,1.7c-0.9,0.2-1.6-0.1-2.2-0.7   c-0.2-0.2-0.2-0.5-0.2-0.8c0-1.9,0-3.7,0-5.6c0,0.3,0,0.6,0,0.9C81,101.8,81,103.7,81.1,105.6z" id="XMLID_16_"/><path class="st6" d="M61.9,56c-0.2,0.5-0.3,1.1-0.3,1.7c0,3.6,0,7.1,0,10.7c0,0.3,0,0.6,0,1c0-3.6,0-7.1,0-10.7   c0-0.6,0.1-1.1,0.3-1.7c1.6-4.7,3.2-9.4,4.8-14.1c0.3-0.9,0.6-1.7,0.9-2.8c-0.1,0-0.2,0-0.3,0c-0.2,0.6-0.4,1.2-0.6,1.8   C65.1,46.6,63.5,51.3,61.9,56z" id="XMLID_15_"/><path class="st6" d="M66.4,89.9C66.4,89.9,66.4,89.9,66.4,89.9c0-0.3,0-0.7,0-1c-1.4,0-2.7,0-4,0c0,0.2,0,0.4,0,0.6   c0,0.3,0,0.7,0,1c0-0.2,0-0.4,0-0.6C63.7,89.9,65,89.9,66.4,89.9z" id="XMLID_14_"/><path class="st6" d="M68,58.1C68,58.1,68,58.1,68,58.1c0,0.3,0,0.7,0,1c0,0,0,0,0,0C68,58.8,68,58.4,68,58.1z" id="XMLID_7_"/><path class="st6" d="M72.2,70.6c1.1,0.3,2.4,0.4,3.6,0.3c3.7-0.4,5.5-2.6,5.5-6.3c0-0.3,0-0.7,0-1   c0,3.7-1.8,5.9-5.5,6.3c-1.2,0.1-2.4,0-3.6-0.3c-2.5-0.6-4.1-2.7-4.1-5.3c0-0.9,0-1.8,0-2.8c0,1.3,0,2.5,0,3.8   C68.1,67.9,69.7,70,72.2,70.6z" id="XMLID_3_"/><path class="st6" d="M76.6,52.3c0-1.3-0.7-1.9-2-1.9c-1.3,0-1.9,0.6-1.9,1.9c0,0.3,0,0.7,0,1c0-1.3,0.6-1.9,1.9-1.9   c1.3,0,2,0.6,2,1.9c0,1.8,0,3.5,0,5.3c0-0.1,0-0.3,0-0.4C76.6,56.2,76.6,54.3,76.6,52.3z" id="XMLID_87_"/><path class="st6" d="M56.2,57.5c0.2,0.6,0.3,1.2,0.3,1.8c0,1.6,0,3.3,0,4.9c0-2,0-3.9,0-5.9c0-0.6-0.1-1.2-0.3-1.8   c-1.8-5.5-3.6-10.9-5.5-16.3c0,0,0,0,0,0c-0.1,0-0.2,0-0.3,0c0.1,0.5,0.2,0.8,0.3,1C52.5,46.6,54.4,52.1,56.2,57.5z" id="XMLID_88_"/><path class="st6" d="M114.9,105.8c-0.8,6.9-7.3,11.7-14.6,11.7c-13.6,0-27.2,0-40.8,0c-3.8,0-7.5,0.1-11.3-0.1   c-6.8-0.5-12.7-6.4-12.9-13.2c-0.1-2.2-0.1-4.4-0.1-6.6c0,2.5,0,5.1,0.1,7.6c0.3,6.8,6.2,12.8,12.9,13.2c3.8,0.2,7.5,0.1,11.3,0.1   c13.6,0,27.2,0,40.8,0c7.3,0,13.8-4.8,14.6-11.7c0.4-3,0.5-6.1,0.5-9.2C115.4,100.3,115.3,103.1,114.9,105.8z" id="XMLID_89_"/><path class="st6" d="M98.4,95c0,0.4,0,0.8,0,1.3c-1.1,0-2.3,0-3.4,0c0-0.3,0-0.5,0-0.8c0,0.6,0,1.2,0,1.8   c1.2,0,2.3,0,3.4,0C98.4,96.5,98.5,95.7,98.4,95z" id="XMLID_90_"/><path class="st6" d="M102.5,92.8c-0.1-1.5-0.8-2.7-2.1-3.5C98.3,88,96,88,93.8,89c-2.1,1-3.1,2.8-3.1,5.1   c0,1.7,0,3.5,0,5.2c0-1.4,0-2.8,0-4.2c0-2.3,1-4.1,3.1-5.1c2.2-1,4.4-1,6.6,0.2c1.3,0.8,2,2.1,2.1,3.5c0.1,0.8,0.1,1.7,0.1,2.5   C102.6,95.1,102.6,94,102.5,92.8z" id="XMLID_91_"/><path class="st6" d="M85.1,68.2c0.3,1.5,1.2,2.4,2.6,2.5c1.4,0.1,2.7-0.4,3.8-1.2c0.6-0.4,1.2-0.9,1.9-1.5   c0-0.3,0-0.6,0-1c-0.7,0.6-1.3,1.1-1.9,1.5c-1.1,0.8-2.4,1.3-3.8,1.2c-1.5-0.2-2.4-1-2.6-2.5c-0.1-0.5-0.1-1-0.1-1.5   c0-5.6,0-11.2,0-16.8c0,0,0,0,0,0c0,5.9,0,11.9,0,17.8C84.9,67.2,85,67.7,85.1,68.2z" id="XMLID_92_"/><path class="st6" d="M93.4,69.4c0,0.3,0,0.7,0,1c1.6,0,3,0,4.5,0c0-0.3,0-0.7,0-1C96.4,69.4,95,69.4,93.4,69.4z" id="XMLID_93_"/><path class="st6" d="M102.5,102.4c-1.3,0-2.6,0-4,0c0,0.5,0,0.8,0,1.2c0,0.4,0,0.8-0.1,1.2c-0.2,1-0.7,1.4-1.7,1.4   c-0.9,0-1.6-0.4-1.6-1.4c0-0.6,0-1.3,0-1.9c0,1,0,1.9,0,2.9c0,0.9,0.7,1.3,1.6,1.4c1,0,1.5-0.4,1.7-1.4c0.1-0.4,0.1-0.8,0.1-1.2   c0-0.4,0-0.7,0-1.2c1.4,0,2.7,0,4,0c0.1,0.3,0.1,0.6,0.1,0.9C102.7,103.7,102.6,103,102.5,102.4z" id="XMLID_94_"/></g></svg>