<svg width="300" height="28" viewBox="0 0 300 28" fill="none" xmlns="http://www.w3.org/2000/svg">
<path d="M26.5082 3C26.5082 6.46 15 8.26921 15 13.4608C15 15.1908 16.2693 17 17.5468 17H35.4356C36.7143 17 38 15.1908 38 13.4608C38 8.26842 26.5082 6.46 26.5082 3Z" fill="#F4900C"/>
<path d="M40 26.1063C40 27.1524 39.6628 28 37.4508 28H14.5142C12.3033 28 12 27.1524 12 26.1063V16.6415C12 15.5963 12.3033 15 14.5153 15H37.452C39.6628 15 40 15.5963 40 16.6415V26.1063Z" fill="#FFD983"/>
<path d="M25 26.4C25 26.8243 24.7606 27.2313 24.3343 27.5314C23.9081 27.8314 23.33 28 22.7273 28H2.27273C1.66996 28 1.09189 27.8314 0.665666 27.5314C0.239447 27.2313 0 26.8243 0 26.4V25.6C0 25.1757 0.239447 24.7687 0.665666 24.4686C1.09189 24.1686 1.66996 24 2.27273 24H22.7273C23.33 24 23.9081 24.1686 24.3343 24.4686C24.7606 24.7687 25 25.1757 25 25.6V26.4Z" fill="#FFD983"/>
<path d="M29.6667 22.1667C29.6667 19.6667 27.3493 18 26 18C24.6507 18 22.3333 19.6667 22.3333 22.1667V28H29.6667V22.1667ZM19.8889 24.1108C19.8889 22.4442 18.344 21.3333 17.4444 21.3333C16.5449 21.3333 15 22.4442 15 24.1108V28H19.8889V24.1108ZM37 24.1108C37 22.4442 35.4551 21.3333 34.5556 21.3333C33.656 21.3333 32.1111 22.4442 32.1111 24.1108V28H37V24.1108Z" fill="white"/>
<path d="M9 26.4C9 26.8243 8.75417 27.2313 8.31658 27.5314C7.879 27.8314 7.2855 28 6.66667 28H4.33333C3.71449 28 3.121 27.8314 2.68342 27.5314C2.24583 27.2313 2 26.8243 2 26.4V5.6C2 5.17565 2.24583 4.76869 2.68342 4.46863C3.121 4.16857 3.71449 4 4.33333 4H6.66667C7.2855 4 7.879 4.16857 8.31658 4.46863C8.75417 4.76869 9 5.17565 9 5.6V26.4Z" fill="#FFD983"/>
<path d="M5.50247 0C5.50247 1.43609 2 2.28117 2 4.43648C2 5.15492 2.38587 6 2.77544 6H8.21961C8.60795 6 9 5.15492 9 4.43648C9 2.28117 5.50247 1.43609 5.50247 0Z" fill="#F4900C"/>
<path d="M10 9C10 9.26522 9.88147 9.51957 9.6705 9.70711C9.45952 9.89464 9.17337 10 8.875 10H2.125C1.82663 10 1.54048 9.89464 1.3295 9.70711C1.11853 9.51957 1 9.26522 1 9C1 8.73478 1.11853 8.48043 1.3295 8.29289C1.54048 8.10536 1.82663 8 2.125 8H8.875C9.17337 8 9.45952 8.10536 9.6705 8.29289C9.88147 8.48043 10 8.73478 10 9ZM10 5C10 5.26522 9.88147 5.51957 9.6705 5.70711C9.45952 5.89464 9.17337 6 8.875 6H2.125C1.82663 6 1.54048 5.89464 1.3295 5.70711C1.11853 5.51957 1 5.26522 1 5C1 4.73478 1.11853 4.48043 1.3295 4.29289C1.54048 4.10536 1.82663 4 2.125 4H8.875C9.17337 4 9.45952 4.10536 9.6705 4.29289C9.88147 4.48043 10 4.73478 10 5Z" fill="#FFAC33"/>
<path d="M49.6236 27H45.6861L52.8551 6.63636H57.4091L64.5881 27H60.6506L55.2116 10.8125H55.0526L49.6236 27ZM49.7528 19.0156H60.4915V21.9787H49.7528V19.0156ZM67.2702 27V6.63636H70.9592V23.9077H79.9279V27H67.2702ZM90.8058 15.3366V18.2997H81.6381V15.3366H90.8058ZM107.587 6.63636H111.276V19.9403C111.276 21.3987 110.932 22.6813 110.242 23.7884C109.559 24.8954 108.598 25.7604 107.359 26.3835C106.119 27 104.671 27.3082 103.013 27.3082C101.35 27.3082 99.898 27 98.6584 26.3835C97.4188 25.7604 96.4576 24.8954 95.7749 23.7884C95.0921 22.6813 94.7507 21.3987 94.7507 19.9403V6.63636H98.4396V19.6321C98.4396 20.4806 98.6252 21.2363 98.9964 21.8991C99.3743 22.562 99.9046 23.0824 100.587 23.4602C101.27 23.8314 102.079 24.017 103.013 24.017C103.948 24.017 104.757 23.8314 105.44 23.4602C106.129 23.0824 106.659 22.562 107.031 21.8991C107.402 21.2363 107.587 20.4806 107.587 19.6321V6.63636ZM115.286 27V6.63636H118.975V23.9077H127.944V27H115.286ZM148.548 16.8182C148.548 19.0123 148.137 20.8916 147.315 22.456C146.5 24.0137 145.386 25.2069 143.974 26.0355C142.569 26.8641 140.975 27.2784 139.192 27.2784C137.409 27.2784 135.811 26.8641 134.399 26.0355C132.994 25.2003 131.88 24.0038 131.058 22.446C130.243 20.8816 129.835 19.0057 129.835 16.8182C129.835 14.6241 130.243 12.7481 131.058 11.1903C131.88 9.62595 132.994 8.42945 134.399 7.60085C135.811 6.77225 137.409 6.35795 139.192 6.35795C140.975 6.35795 142.569 6.77225 143.974 7.60085C145.386 8.42945 146.5 9.62595 147.315 11.1903C148.137 12.7481 148.548 14.6241 148.548 16.8182ZM144.839 16.8182C144.839 15.2737 144.598 13.9711 144.114 12.9105C143.636 11.8433 142.973 11.0379 142.125 10.4943C141.277 9.94413 140.299 9.66903 139.192 9.66903C138.085 9.66903 137.107 9.94413 136.259 10.4943C135.41 11.0379 134.744 11.8433 134.26 12.9105C133.783 13.9711 133.544 15.2737 133.544 16.8182C133.544 18.3627 133.783 19.6686 134.26 20.7358C134.744 21.7964 135.41 22.6018 136.259 23.152C137.107 23.6955 138.085 23.9673 139.192 23.9673C140.299 23.9673 141.277 23.6955 142.125 23.152C142.973 22.6018 143.636 21.7964 144.114 20.7358C144.598 19.6686 144.839 18.3627 144.839 16.8182ZM170.232 16.8182C170.232 19.0123 169.821 20.8916 168.999 22.456C168.184 24.0137 167.07 25.2069 165.658 26.0355C164.253 26.8641 162.658 27.2784 160.875 27.2784C159.092 27.2784 157.495 26.8641 156.083 26.0355C154.677 25.2003 153.564 24.0038 152.742 22.446C151.926 20.8816 151.519 19.0057 151.519 16.8182C151.519 14.6241 151.926 12.7481 152.742 11.1903C153.564 9.62595 154.677 8.42945 156.083 7.60085C157.495 6.77225 159.092 6.35795 160.875 6.35795C162.658 6.35795 164.253 6.77225 165.658 7.60085C167.07 8.42945 168.184 9.62595 168.999 11.1903C169.821 12.7481 170.232 14.6241 170.232 16.8182ZM166.523 16.8182C166.523 15.2737 166.281 13.9711 165.797 12.9105C165.32 11.8433 164.657 11.0379 163.809 10.4943C162.96 9.94413 161.982 9.66903 160.875 9.66903C159.768 9.66903 158.791 9.94413 157.942 10.4943C157.094 11.0379 156.427 11.8433 155.944 12.9105C155.466 13.9711 155.228 15.2737 155.228 16.8182C155.228 18.3627 155.466 19.6686 155.944 20.7358C156.427 21.7964 157.094 22.6018 157.942 23.152C158.791 23.6955 159.768 23.9673 160.875 23.9673C161.982 23.9673 162.96 23.6955 163.809 23.152C164.657 22.6018 165.32 21.7964 165.797 20.7358C166.281 19.6686 166.523 18.3627 166.523 16.8182ZM173.719 6.63636H178.234L184.279 21.392H184.518L190.563 6.63636H195.077V27H191.538V13.0099H191.349L185.721 26.9403H183.076L177.448 12.9801H177.259V27H173.719V6.63636ZM217.29 16.8182C217.29 19.0123 216.879 20.8916 216.058 22.456C215.242 24.0137 214.129 25.2069 212.717 26.0355C211.311 26.8641 209.717 27.2784 207.934 27.2784C206.151 27.2784 204.553 26.8641 203.141 26.0355C201.736 25.2003 200.622 24.0038 199.8 22.446C198.985 20.8816 198.577 19.0057 198.577 16.8182C198.577 14.6241 198.985 12.7481 199.8 11.1903C200.622 9.62595 201.736 8.42945 203.141 7.60085C204.553 6.77225 206.151 6.35795 207.934 6.35795C209.717 6.35795 211.311 6.77225 212.717 7.60085C214.129 8.42945 215.242 9.62595 216.058 11.1903C216.879 12.7481 217.29 14.6241 217.29 16.8182ZM213.582 16.8182C213.582 15.2737 213.34 13.9711 212.856 12.9105C212.379 11.8433 211.716 11.0379 210.867 10.4943C210.019 9.94413 209.041 9.66903 207.934 9.66903C206.827 9.66903 205.849 9.94413 205.001 10.4943C204.152 11.0379 203.486 11.8433 203.002 12.9105C202.525 13.9711 202.286 15.2737 202.286 16.8182C202.286 18.3627 202.525 19.6686 203.002 20.7358C203.486 21.7964 204.152 22.6018 205.001 23.152C205.849 23.6955 206.827 23.9673 207.934 23.9673C209.041 23.9673 210.019 23.6955 210.867 23.152C211.716 22.6018 212.379 21.7964 212.856 20.7358C213.34 19.6686 213.582 18.3627 213.582 16.8182ZM237.512 6.63636V27H234.231L224.636 13.1293H224.467V27H220.778V6.63636H224.079L233.664 20.517H233.843V6.63636H237.512ZM241.532 27V6.63636H245.221V23.9077H254.19V27H241.532ZM261.08 6.63636V27H257.391V6.63636H261.08ZM281.809 6.63636V27H278.528L268.933 13.1293H268.764V27H265.075V6.63636H268.376L277.961 20.517H278.14V6.63636H281.809ZM285.829 27V6.63636H299.073V9.72869H289.518V15.2571H298.387V18.3494H289.518V23.9077H299.153V27H285.829Z" fill="#17A43B" fill-opacity="0.76"/>
</svg>
