<svg xmlns="http://www.w3.org/2000/svg" width="80" height="80" viewBox="0 0 211 239.593">
  <g id="Group_1" data-name="Group 1" transform="translate(87 178.593)">
    <path id="Icon_map-mosque" data-name="Icon map-mosque" d="M34.576,19.189A13.613,13.613,0,0,1,8.353,20.655,13.582,13.582,0,0,1,16.964,3.473a13.625,13.625,0,0,1,9.871.5L27.508,2.7A18.144,18.144,0,0,0,12.332.927,18,18,0,1,0,36,19.4l-1.423-.207ZM25.7,10.514l-3.61-6.756L20.256,11.3l-7.509,1.476,6.874,3.9-1.182,7.773,5.837-5.309,7.233,3.47L27.814,15.4l5.849-5.646Z" transform="translate(-39.999 -178.607)" fill="green"/>
    <path id="Icon_awesome-mosque" data-name="Icon awesome-mosque" d="M0,171c0,6.295,4.442,11.4,9.92,11.4H29.76c5.478,0,9.92-5.105,9.92-11.4V57H0Zm179.54-68.4c5.537-6.2,8.94-13.3,8.94-20.987,0-18.831-12.955-33.413-27.255-43.783-13-9.43-25-20.581-34.708-34.278L124,0l-2.517,3.552C111.77,17.25,99.78,28.4,86.775,37.83,72.475,48.2,59.52,62.782,59.52,81.613c0,7.684,3.4,14.791,8.94,20.987Zm8.94,11.4H59.52c-5.478,0-9.92,5.105-9.92,11.4V171c0,6.295,4.442,11.4,9.92,11.4h9.92V159.6c0-6.295,4.442-11.4,9.92-11.4s9.92,5.105,9.92,11.4v22.8h19.84V156.75c0-17.1,14.88-25.65,14.88-25.65s14.88,8.55,14.88,25.65V182.4h19.84V159.6c0-6.295,4.442-11.4,9.92-11.4s9.92,5.105,9.92,11.4v22.8h9.92c5.478,0,9.92-5.105,9.92-11.4V125.4C198.4,119.105,193.958,114,188.48,114ZM19.84,0S0,11.4,0,34.2V45.6H39.68V34.2C39.68,11.4,19.84,0,19.84,0Z" transform="translate(-85.4 -174)" fill="green"/>
    <text id="An_Islamic_Education_Community" data-name="An Islamic Education Community" transform="translate(-87 57)" fill="#a9a9a9" font-size="15" font-family="Candara-Bold, Candara" font-weight="700"><tspan x="0" y="0">An Islamic Education Community</tspan></text>
    <path id="Icon_awesome-book-open" data-name="Icon awesome-book-open" d="M33.748,2.253c-3.411.185-10.19.86-14.375,3.313a.908.908,0,0,0-.452.785V28.037a.986.986,0,0,0,1.449.8c4.306-2.075,10.533-2.641,13.612-2.8a1.9,1.9,0,0,0,1.868-1.827V4.083A1.92,1.92,0,0,0,33.748,2.253ZM16.477,5.566C12.292,3.113,5.513,2.439,2.1,2.253A1.921,1.921,0,0,0,0,4.083V24.218a1.9,1.9,0,0,0,1.868,1.827c3.08.155,9.31.722,13.616,2.8a.983.983,0,0,0,1.445-.8V6.34A.89.89,0,0,0,16.477,5.566Z" transform="translate(-9.45 14.25)" fill="#7d7d7d"/>
    <text id="Deen" transform="translate(-85 38)" fill="#148423" font-size="31" font-family="Candara-Bold, Candara" font-weight="700"><tspan x="0" y="0">Deen</tspan></text>
    <text id="Online" transform="translate(33 38)" fill="#a9a9a9" font-size="31" font-family="Candara-Bold, Candara" font-weight="700"><tspan x="0" y="0">Online</tspan></text>
  </g>
</svg>
