<?xml version="1.0" encoding="utf-8"?>
<!-- Generator: Adobe Illustrator 22.1.0, SVG Export Plug-In . SVG Version: 6.00 Build 0)  -->
<svg version="1.1" xmlns="http://www.w3.org/2000/svg" xmlns:xlink="http://www.w3.org/1999/xlink" x="0px" y="0px"
	 viewBox="0 0 1400 980" style="enable-background:new 0 0 1400 980;" xml:space="preserve">
<style type="text/css">
	.st0{fill:#4DA8BB;}
	.st1{fill:#6B3D44;}
	.st2{fill:#9B616C;}
	.st3{fill:#7ADFED;}
	.st4{fill:#255C63;}
	.st5{fill:#44272E;}
	.st6{fill:#935460;}
	.st7{fill:#8681BD;}
	.st8{fill:#C6A46D;}
	.st9{fill:#A3A1E2;}
	.st10{fill:#FCE0AD;}
	.st11{fill:#AD8F64;}
	.st12{fill:#DDBD8A;}
	.st13{fill:#FFEBCA;}
	.st14{fill:#B23F39;}
	.st15{fill:#EC5946;}
</style>
<g id="Background">
	<path class="st0" d="M-0.5-0.5v981h1401v-981H-0.5z"/>
</g>
<g id="object">
	<g>
		<g>
			<circle class="st1" cx="1030.4" cy="533.6" r="18.3"/>
			<circle class="st2" cx="1035" cy="525.7" r="8.2"/>
		</g>
		<g>
			<circle class="st1" cx="850.8" cy="179.4" r="18.3"/>
			<circle class="st2" cx="855.4" cy="171.6" r="8.2"/>
		</g>
		<g>
			<path class="st3" d="M217.9,731.1c-27.1-24-45.9-59-44.4-95.2c1.2-30,15.8-57.5,27.3-85.2c14.2-34.4,24.1-70.6,29.3-107.4
				c6.7-47.7,5.6-96.2,14-143.6c8.4-47.4,28.1-95.5,66.8-124c61.7-45.6,148.2-28.1,222.8-46.2c43.5-10.6,82.9-33.4,124.4-50.3
				c41.5-16.9,88.4-27.8,130.7-13.3c32.6,11.1,58.7,35.8,89.6,51c37.9,18.6,81.1,22.1,121.9,32.7s83.1,31.9,99.5,70.7
				c17.5,41.4,0.4,88.8,3.4,133.7c4.1,61.5,44.9,113.2,75.6,166.7c30.7,53.5,51.3,123.5,16.3,174.2c-18.8,27.2-50.4,43.1-82.5,51.4
				c-32,8.3-65.3,10.2-97.9,16c-83.2,14.7-159.7,54-240,80.1c-75.4,24.5-155.4,37.3-234.4,29.9c-63.2-6-126.4-25.4-179.9-59.9
				c-19.4-12.5-35.3-27.4-56.5-36.7C273,762,243.7,754,217.9,731.1z"/>
			<path class="st4" d="M424.3,708.7c-8.4,6.4-170.8,26.3-246.9,35.3c-13.7,1.6-18.3,19.3-7.1,27.3l271,195.5l824.9-158.2
				c15.1-2.9,18.9-22.7,6-31L979.1,590.2L424.3,708.7z"/>
			<g>
				<path class="st1" d="M772.1,629.9L1153,811.5c4.8,2.7,10.9,1.3,14-3.2v0c3.2-4.7,2.2-11-2.3-14.5l-52.5-40.4
					c-1.3-1-2.6-1.8-4-2.6l-124.5-88.8c0,0-2.9-1.8,0-4.7s83.3,34.6,83.3,34.6v-9.5l-79.5-83c0,0-152.6-82.5-152-87.5
					C836.2,506.9,772.1,629.9,772.1,629.9z"/>
				<path class="st5" d="M1164.7,793.9c0,0-239.3-106.3-378.7-169c-8.4,3.1-13.9,5.2-13.9,5.2L1153,811.6c4.8,2.7,10.9,1.3,14-3.2
					c2.4-3.5,2.5-8.1,0.3-11.5L1164.7,793.9z"/>
				<path class="st1" d="M1196.7,381.7l-228.1-122L552.5,510c0,0-93.1,62.2-119.7,78.6c-26.6,16.4-106.2,106.8-149.4,121.6v24.6
					l73.5,65.7c0,0,161-144.4,175.8-145.3c14.8-0.9,42.7,4.4,29.6,31.3c-11,22.5-114,112.3-147.5,141.1
					c-6.7,5.7-10.5,14.1-10.5,22.9c0,7.9,3.4,15.4,9.2,20.7l54.6,49.2h28.6c0,0,158.6-136.4,168.7-146.2
					c10.1-9.9,225.6-138,225.6-138l42.2-30.5L1199.9,401L1196.7,381.7z"/>
				<path class="st5" d="M663.7,703.4c6,0.3,11.9-2,17.5-4.2c84.9-33.5,169.8-67,254.7-100.4L641.2,456.6L552.5,510
					c0,0-44.9,30-81.3,53.8c58.8,36.1,116.5,74.2,165.2,122.8C644.1,694.4,652.7,702.9,663.7,703.4z"/>
				<path class="st6" d="M580.1,664.2c0.6-17-27.6-28-43.5-28.9c-16-1-184.7,143.7-184.7,143.7l-68.5-68.8v24.6l73.5,65.7
					c0,0,161-144.4,175.8-145.3c14.8-0.9,42.7,4.4,29.6,31.3c-2.3,4.7-8.6,12.3-17.4,21.7l0,0C544.9,708.3,579.5,681.2,580.1,664.2z
					"/>
				<path class="st6" d="M668.3,746.4L471.3,920.6h25.6c0,0,158.6-136.4,168.7-146.2c10.1-9.9,225.6-138,225.6-138l42.2-30.5
					L1199.9,401l-3.2-19.2L887.7,617.9L668.3,746.4z"/>
				<polygon class="st1" points="304.5,381.7 304.5,419.9 598.4,590.2 846.3,642.2 869.1,628.8 				"/>
				<line class="st5" x1="1181.7" y1="812.9" x2="1164.7" y2="793.9"/>
				<g>
					<path class="st7" d="M315.4,355h-32v13.7l324.1,200.8L840.3,630l47.5-12.1l294-262.9v-11.9L800.1,209.8
						c0,0-281.3,171.9-286.1,170.7C509.1,379.3,315.4,355,315.4,355z"/>
				</g>
				<g>
					<path class="st8" d="M629.7,545.1c-1.4,0.8,209.2,60.7,209.2,60.7l-8.1-21.9l-76.6-50.1C754.3,533.7,663.1,527.5,629.7,545.1z"
						/>
				</g>
				<g>
					<polygon class="st9" points="884.1,605.8 838.5,617.9 619.1,558.6 283.4,355 283.4,368.7 607.5,569.5 840.3,630 887.7,617.9 
						1181.7,355 1181.7,343.1 					"/>
				</g>
				<g>
					<path class="st10" d="M288.6,346.9l330.5,211.7c0,0,133.5-66.8,219.8,47.2l40.7-11.4c0,0,130.3-249.1,293.1-247.5v-29.3
						l-337-135.1c0,0-211.3,28.4-250.4,155.4C585.3,337.9,418.8,236.2,288.6,346.9z"/>
				</g>
				<g>
					<g>
						<path class="st11" d="M337.3,345.2c0.4-0.1,39.5-14,92.5-19.4c41.7-4.3,99.6-3.9,153.1,18.1c-41.7-9.5-83-9-114.9-5.7
							c-53.5,5.5-93.2,19.5-93.6,19.6c-1.2,0.4-1.8,1.7-1.4,2.9c0.4,1.2,1.7,1.8,2.9,1.4c0.4-0.1,39.6-14,92.6-19.4
							c37.7-3.8,88.6-3.9,137.6,12.4c1.2,0.7,2.4,1.3,3.5,2c0.4,0.2,0.7,0.3,1.1,0.3c0.3,0,0.6-0.1,0.9-0.2
							c-7.8-5.8-14.2-10.4-18.7-13.7c-56.6-25.9-119.1-26.5-163.6-22c-53.5,5.5-93.2,19.5-93.6,19.6c-1.2,0.4-1.8,1.7-1.4,2.9
							C334.9,345,336.2,345.6,337.3,345.2z"/>
					</g>
					<g>
						<path class="st11" d="M499.4,355c-53.5,5.5-93.2,19.5-93.6,19.6c-1.2,0.4-1.8,1.7-1.4,2.9c0.4,1.2,1.7,1.8,2.9,1.4
							c0.4-0.1,39.5-14,92.5-19.4c35.1-3.6,81.6-3.9,127.3,9.2c-3.3-2.5-6.5-4.9-9.5-7.1C574.8,351.2,532.2,351.7,499.4,355z"/>
					</g>
					<g>
						<path class="st11" d="M435.8,401.1c0.4-0.1,39.6-14,92.6-19.4c35.4-3.6,82.5-3.9,128.6,9.6c-3.2-2.4-6.3-4.8-9.3-7.1
							c-43.4-10.8-86.7-10.3-119.9-6.9c-53.5,5.5-93.2,19.5-93.6,19.6c-1.2,0.4-1.8,1.7-1.4,2.9
							C433.3,400.9,434.6,401.5,435.8,401.1z"/>
					</g>
					<g>
						<path class="st11" d="M471.2,420.2c0.4-0.1,39.5-14,92.5-19.4c31.3-3.2,71.6-3.8,112.4,5.4c-2.7-2.1-5.3-4.2-8-6.2
							c-38.2-7.3-75.5-6.6-104.9-3.6c-53.5,5.5-93.2,19.5-93.6,19.6c-1.2,0.4-1.8,1.7-1.4,2.9C468.8,420,470.1,420.6,471.2,420.2z"
							/>
					</g>
					<g>
						<path class="st11" d="M499.9,440.2c0.4-0.1,39.5-14,92.5-19.4c30-3.1,68.4-3.7,107.5,4.3c-2.5-2-5-4-7.4-6
							c-36.7-6.5-72.2-5.7-100.5-2.8c-53.5,5.5-93.2,19.5-93.6,19.6c-1.2,0.4-1.8,1.7-1.4,2.9C497.4,440,498.7,440.6,499.9,440.2z"
							/>
					</g>
					<g>
						<path class="st11" d="M527,458.7c0.4-0.1,38.8-11.2,91.1-13.9c33.2-1.7,76.7-0.2,120.3,12.3c-2.7-2.3-5.3-4.5-8-6.8
							c-41.1-10.4-81.4-11.6-112.7-10c-52.7,2.7-91.6,14-92,14.1c-1.2,0.3-1.9,1.6-1.5,2.8C524.5,458.4,525.8,459,527,458.7z"/>
					</g>
					<g>
						<path class="st11" d="M668.5,472.1c-48.7,0.5-82.8,11.5-83.2,11.6c-1.2,0.4-1.8,1.6-1.4,2.8c0.4,1.2,1.6,1.8,2.8,1.4
							c0.3-0.1,33.8-10.9,81.8-11.3c30.5-0.3,71.4,3.7,114.5,20.2c-2.8-2.6-5.6-5.2-8.5-7.9C734.6,475.3,697.1,471.9,668.5,472.1z"
							/>
					</g>
					<g>
						<path class="st11" d="M821.2,535.3c-3.2-3.5-6.5-7.1-10-10.7c-48.2-25.3-93.4-31.7-125.8-32c-45.4-0.3-76.2,11-76.5,11.1
							c-1.2,0.4-1.7,1.7-1.3,2.9c0.4,1.2,1.7,1.7,2.9,1.3c0.3-0.1,30.4-11.2,74.9-10.8C720,497.4,769.3,504.7,821.2,535.3z"/>
					</g>
				</g>
				<g>
					<path class="st12" d="M835.7,182.5c0,0-211.3,28.4-250.4,155.4c0,0,263.1,186.7,276,259.5c0.1,0.7,0.2,1.4,0.3,2.1l18-5
						c0,0,130.3-249.1,293.1-247.5v-29.3L835.7,182.5z"/>
				</g>
				<g>
					<path class="st13" d="M879.6,576.2l-40.7,11.4c-86.3-114-219.8-47.2-219.8-47.2L301.3,336.9c-4.3,3.2-8.6,6.5-12.8,10.1
						l330.5,211.7c0,0,133.5-66.8,219.8,47.2l40.7-11.4c0,0,130.3-249.1,293.1-247.5v-18.2C1009.9,327.1,879.6,576.2,879.6,576.2z"
						/>
				</g>
				<g>
					<path class="st15" d="M586.7,333.4c-2.9,2.7-8.9,0.1-5.8,2.5c81.8,61.5,158.8,129.5,230.1,203c6.1,6.3,12.3,12.7,17.3,20
						c22.9,32.9,20.1,76.7,14.5,116.4c3.6-5.1,8.9-6.8,10.9-12.7c2.6,7.7,3.4,16,2.3,24.1c7.9-32.9,10.3-67.6,1.9-100.4
						c0.4,0.5-39.1-55.4-67.5-89C744,442.2,586.7,333.4,586.7,333.4z"/>
				</g>
				<g>
					<path class="st11" d="M629.7,345.4c-0.3,0-0.7-0.1-1-0.2c-1.1-0.5-1.6-1.9-1-3c0.4-0.9,10.6-21.6,43.1-48.6
						c29.8-24.8,84.9-59.9,178.1-85.8c1.2-0.3,2.4,0.4,2.8,1.6c0.3,1.2-0.4,2.4-1.6,2.8c-50.9,14.2-122.8,40.4-176.1,84.7
						c-31.9,26.5-42.1,47.2-42.2,47.4C631.4,344.9,630.6,345.4,629.7,345.4z"/>
				</g>
				<g>
					<path class="st11" d="M665.6,367.9c-0.4,0-0.7-0.1-1.1-0.3c-1.1-0.6-1.5-1.9-0.9-3c0.5-0.9,12.2-22.1,46.1-49.8
						c31.2-25.4,88-61.1,181.2-87c1.2-0.3,2.4,0.4,2.8,1.6c0.3,1.2-0.4,2.4-1.6,2.8c-92.3,25.7-148.4,60.9-179.3,86
						c-33.4,27.1-45.2,48.4-45.3,48.7C667.2,367.5,666.4,367.9,665.6,367.9z"/>
				</g>
				<g>
					<path class="st11" d="M709.2,401c-0.3,0-0.5,0-0.8-0.1c-1.2-0.4-1.8-1.7-1.3-2.9c0.4-1,9.4-25,41.8-55.8
						c29.8-28.2,85.8-67.6,183.9-94.9c1.2-0.3,2.4,0.4,2.8,1.6c0.3,1.2-0.4,2.4-1.6,2.8c-53.6,14.9-128.7,43.3-182,93.8
						c-31.7,30-40.6,53.8-40.7,54.1C711,400.4,710.1,401,709.2,401z"/>
				</g>
				<g>
					<path class="st11" d="M747.6,429.2c-0.1,0-0.2,0-0.3,0c-1.2-0.1-2.1-1.3-2-2.5c0.1-1.1,3.7-28.4,33-63.1
						c26.9-31.8,81.6-76,189.6-106c1.2-0.3,2.4,0.4,2.8,1.6c0.3,1.2-0.4,2.4-1.6,2.8c-59,16.4-139.4,47.9-187.4,104.6
						c-28.5,33.7-31.9,60.5-32,60.7C749.6,428.4,748.7,429.2,747.6,429.2z"/>
				</g>
				<g>
					<path class="st11" d="M781.7,457.2c-0.1,0-0.1,0-0.2,0c-1.2-0.1-2.1-1.2-2-2.4c0.1-1.3,3.1-32.8,32-71.8
						c47.9-64.9,129.1-98.3,188.7-114.9c1.2-0.3,2.4,0.4,2.8,1.6c0.3,1.2-0.4,2.4-1.6,2.8c-58.9,16.4-138.9,49.3-186.1,113
						c-28.2,38-31.3,69.5-31.3,69.8C783.8,456.3,782.8,457.2,781.7,457.2z"/>
				</g>
				<g>
					<path class="st11" d="M817.9,485.8c-0.5,0-0.9-0.1-1.3-0.4c-0.8-0.5-2.9-1.9,0.6-18c5.6-25.5,42.6-154.1,226.2-181
						c1.2-0.2,2.4,0.7,2.5,1.9s-0.7,2.4-1.9,2.5c-109.2,16-165.2,68.8-192.9,110.4c-26.3,39.3-31.9,74.9-31.5,80.8
						c0.1,0.1,0.1,0.1,0.1,0.2c0.7,1,0.5,2.4-0.5,3.1C818.9,485.7,818.4,485.8,817.9,485.8z"/>
				</g>
				<g>
					<path class="st11" d="M849.3,518.3c-0.4,0-0.9-0.1-1.3-0.4c-1-0.6-2.4-1.6,0.4-14.4c3.8-17.5,42.8-171.6,236.7-200
						c1.2-0.2,2.4,0.7,2.5,1.9c0.2,1.2-0.7,2.4-1.9,2.5C980.6,323.3,922.5,377,892.3,419.3c-32.2,45-41.3,88.6-41.1,95.3
						c0,0,0,0,0,0c0.7,1,0.5,2.4-0.5,3.1C850.3,518.2,849.8,518.3,849.3,518.3z"/>
				</g>
				<g>
					<path class="st11" d="M871.6,540.1c-0.4,0-0.9-0.1-1.3-0.4c-1.4-0.9-1.5-2.6-0.4-7.6c4-18.3,21.2-64.4,58-108.2
						c49-58.4,114.7-94,195.1-105.8c1.2-0.2,2.4,0.7,2.5,1.9c0.2,1.2-0.7,2.4-1.9,2.5c-105.3,15.4-167.5,71.1-201.1,115.2
						c-35.6,46.6-48.5,91.9-48.9,98.9c0.6,1,0.3,2.3-0.6,2.9C872.6,540,872.1,540.1,871.6,540.1z"/>
				</g>
			</g>
		</g>
		<g>
			<circle class="st1" cx="796.9" cy="224.2" r="18.3"/>
			<circle class="st2" cx="801.5" cy="216.4" r="8.2"/>
		</g>
		<g>
			<circle class="st1" cx="819.9" cy="173.1" r="18.3"/>
			<circle class="st2" cx="824.5" cy="165.3" r="8.2"/>
		</g>
		<g>
			<circle class="st1" cx="793.3" cy="191.5" r="18.3"/>
			<circle class="st2" cx="797.9" cy="183.6" r="8.2"/>
		</g>
		<g>
			<circle class="st1" cx="819.9" cy="251.2" r="18.3"/>
			<circle class="st2" cx="824.5" cy="243.3" r="8.2"/>
		</g>
		<g>
			<circle class="st1" cx="842.8" cy="277.8" r="18.3"/>
			<circle class="st2" cx="847.4" cy="269.9" r="8.2"/>
		</g>
		<g>
			<circle class="st1" cx="858.1" cy="308.7" r="18.3"/>
			<circle class="st2" cx="862.7" cy="300.8" r="8.2"/>
		</g>
		<g>
			<circle class="st1" cx="869.1" cy="341.4" r="18.3"/>
			<circle class="st2" cx="873.8" cy="333.6" r="8.2"/>
		</g>
		<g>
			<circle class="st1" cx="873.8" cy="376.2" r="18.3"/>
			<circle class="st2" cx="878.4" cy="368.3" r="8.2"/>
		</g>
		<g>
			<circle class="st1" cx="876.4" cy="412.5" r="18.3"/>
			<circle class="st2" cx="881" cy="404.7" r="8.2"/>
		</g>
		<g>
			<circle class="st1" cx="879" cy="448.9" r="18.3"/>
			<circle class="st2" cx="883.6" cy="441" r="8.2"/>
		</g>
		<g>
			<circle class="st1" cx="881.6" cy="485.2" r="18.3"/>
			<circle class="st2" cx="886.2" cy="477.4" r="8.2"/>
		</g>
		<g>
			<circle class="st1" cx="887.5" cy="516.6" r="18.3"/>
			<circle class="st2" cx="892.1" cy="508.8" r="8.2"/>
		</g>
		<g>
			<circle class="st1" cx="889.2" cy="551.9" r="18.3"/>
			<circle class="st2" cx="893.9" cy="544.1" r="8.2"/>
		</g>
		<g>
			<circle class="st1" cx="894.7" cy="588.5" r="18.3"/>
			<circle class="st2" cx="899.4" cy="580.6" r="8.2"/>
		</g>
		<g>
			<circle class="st1" cx="1024.9" cy="570.1" r="18.3"/>
			<circle class="st2" cx="1029.6" cy="562.3" r="8.2"/>
		</g>
		<g>
			<circle class="st5" cx="909.5" cy="623.1" r="18.3"/>
			<circle class="st1" cx="914.1" cy="615.3" r="8.2"/>
		</g>
		<g>
			<circle class="st5" cx="927" cy="656.9" r="18.3"/>
			<circle class="st1" cx="931.6" cy="649" r="8.2"/>
		</g>
		<g>
			<circle class="st5" cx="963.7" cy="656.9" r="18.3"/>
			<circle class="st1" cx="968.3" cy="649" r="8.2"/>
		</g>
		<g>
			<circle class="st5" cx="997.4" cy="638.6" r="18.3"/>
			<circle class="st1" cx="1002" cy="630.7" r="8.2"/>
		</g>
		<g>
			<circle class="st5" cx="1012.1" cy="604.8" r="18.3"/>
			<circle class="st1" cx="1016.7" cy="596.9" r="8.2"/>
		</g>
	</g>
</g>
</svg>
