<svg width="344" height="28" viewBox="0 0 344 28" fill="none" xmlns="http://www.w3.org/2000/svg">
<path d="M26.5082 3C26.5082 6.46 15 8.26921 15 13.4608C15 15.1908 16.2693 17 17.5468 17H35.4356C36.7143 17 38 15.1908 38 13.4608C38 8.26842 26.5082 6.46 26.5082 3Z" fill="#F4900C"/>
<path d="M40 26.1063C40 27.1524 39.6628 28 37.4508 28H14.5142C12.3033 28 12 27.1524 12 26.1063V16.6415C12 15.5963 12.3033 15 14.5153 15H37.452C39.6628 15 40 15.5963 40 16.6415V26.1063Z" fill="#FFD983"/>
<path d="M25 26.4C25 26.8243 24.7606 27.2313 24.3343 27.5314C23.9081 27.8314 23.33 28 22.7273 28H2.27273C1.66996 28 1.09189 27.8314 0.665666 27.5314C0.239447 27.2313 0 26.8243 0 26.4V25.6C0 25.1757 0.239447 24.7687 0.665666 24.4686C1.09189 24.1686 1.66996 24 2.27273 24H22.7273C23.33 24 23.9081 24.1686 24.3343 24.4686C24.7606 24.7687 25 25.1757 25 25.6V26.4Z" fill="#FFD983"/>
<path d="M29.6667 22.1667C29.6667 19.6667 27.3493 18 26 18C24.6507 18 22.3333 19.6667 22.3333 22.1667V28H29.6667V22.1667ZM19.8889 24.1108C19.8889 22.4442 18.344 21.3333 17.4444 21.3333C16.5449 21.3333 15 22.4442 15 24.1108V28H19.8889V24.1108ZM37 24.1108C37 22.4442 35.4551 21.3333 34.5556 21.3333C33.656 21.3333 32.1111 22.4442 32.1111 24.1108V28H37V24.1108Z" fill="white"/>
<path d="M9 26.4C9 26.8243 8.75417 27.2313 8.31658 27.5314C7.879 27.8314 7.2855 28 6.66667 28H4.33333C3.71449 28 3.121 27.8314 2.68342 27.5314C2.24583 27.2313 2 26.8243 2 26.4V5.6C2 5.17565 2.24583 4.76869 2.68342 4.46863C3.121 4.16857 3.71449 4 4.33333 4H6.66667C7.2855 4 7.879 4.16857 8.31658 4.46863C8.75417 4.76869 9 5.17565 9 5.6V26.4Z" fill="#FFD983"/>
<path d="M5.50247 0C5.50247 1.43609 2 2.28117 2 4.43648C2 5.15492 2.38587 6 2.77544 6H8.21961C8.60795 6 9 5.15492 9 4.43648C9 2.28117 5.50247 1.43609 5.50247 0V0Z" fill="#F4900C"/>
<path d="M10 9C10 9.26522 9.88147 9.51957 9.67049 9.70711C9.45952 9.89464 9.17337 10 8.875 10H2.125C1.82663 10 1.54048 9.89464 1.3295 9.70711C1.11853 9.51957 1 9.26522 1 9C1 8.73478 1.11853 8.48043 1.3295 8.29289C1.54048 8.10536 1.82663 8 2.125 8H8.875C9.17337 8 9.45952 8.10536 9.67049 8.29289C9.88147 8.48043 10 8.73478 10 9ZM10 5C10 5.26522 9.88147 5.51957 9.67049 5.70711C9.45952 5.89464 9.17337 6 8.875 6H2.125C1.82663 6 1.54048 5.89464 1.3295 5.70711C1.11853 5.51957 1 5.26522 1 5C1 4.73478 1.11853 4.48043 1.3295 4.29289C1.54048 4.10536 1.82663 4 2.125 4H8.875C9.17337 4 9.45952 4.10536 9.67049 4.29289C9.88147 4.48043 10 4.73478 10 5Z" fill="#FFAC33"/>
<path d="M53.9091 27H47.0085V6.63636H54.0483C56.0701 6.63636 57.8068 7.04403 59.2585 7.85938C60.7169 8.66809 61.8371 9.83144 62.6193 11.3494C63.4015 12.8674 63.7926 14.6837 63.7926 16.7983C63.7926 18.9195 63.3982 20.7424 62.6094 22.267C61.8272 23.7917 60.697 24.9616 59.2188 25.777C57.7472 26.5923 55.9773 27 53.9091 27ZM50.6974 23.8082H53.7301C55.1487 23.8082 56.3319 23.5497 57.2798 23.0327C58.2277 22.509 58.9403 21.7301 59.4176 20.696C59.8949 19.6553 60.1335 18.3561 60.1335 16.7983C60.1335 15.2405 59.8949 13.9479 59.4176 12.9205C58.9403 11.8864 58.2344 11.1141 57.2997 10.6037C56.3717 10.0866 55.2183 9.82812 53.8395 9.82812H50.6974V23.8082ZM68.8189 27H64.8814L72.0504 6.63636H76.6044L83.7834 27H79.8459L74.407 10.8125H74.2479L68.8189 27ZM68.9482 19.0156H79.6868V21.9787H68.9482V19.0156ZM86.4656 27V6.63636H94.1019C95.6663 6.63636 96.9788 6.90814 98.0394 7.4517C99.1067 7.99526 99.9121 8.75757 100.456 9.73864C101.006 10.7131 101.281 11.8499 101.281 13.1491C101.281 14.455 101.002 15.5885 100.446 16.5497C99.8955 17.5043 99.0835 18.2434 98.0096 18.767C96.9357 19.2841 95.6166 19.5426 94.0522 19.5426H88.6133V16.4801H93.555C94.4698 16.4801 95.2189 16.3542 95.8022 16.1023C96.3855 15.8437 96.8164 15.4692 97.0948 14.9787C97.3799 14.4815 97.5224 13.8717 97.5224 13.1491C97.5224 12.4266 97.3799 11.8101 97.0948 11.2997C96.8098 10.7827 96.3756 10.3916 95.7923 10.1264C95.2089 9.85464 94.4566 9.71875 93.5352 9.71875H90.1545V27H86.4656ZM96.9854 17.7727L102.027 27H97.9102L92.9585 17.7727H96.9854ZM117.513 6.63636H121.202V19.9403C121.202 21.3987 120.857 22.6813 120.168 23.7884C119.485 24.8954 118.524 25.7604 117.284 26.3835C116.045 27 114.596 27.3082 112.939 27.3082C111.275 27.3082 109.824 27 108.584 26.3835C107.345 25.7604 106.383 24.8954 105.701 23.7884C105.018 22.6813 104.676 21.3987 104.676 19.9403V6.63636H108.365V19.6321C108.365 20.4806 108.551 21.2363 108.922 21.8991C109.3 22.562 109.83 23.0824 110.513 23.4602C111.196 23.8314 112.005 24.017 112.939 24.017C113.874 24.017 114.683 23.8314 115.365 23.4602C116.055 23.0824 116.585 22.562 116.956 21.8991C117.328 21.2363 117.513 20.4806 117.513 19.6321V6.63636ZM125.212 27V6.63636H128.901V23.9077H137.869V27H125.212ZM151.705 6.63636V27H148.016V6.63636H151.705ZM166.767 12.2344C166.674 11.366 166.283 10.6899 165.593 10.206C164.911 9.72206 164.022 9.48011 162.929 9.48011C162.16 9.48011 161.5 9.59612 160.95 9.82812C160.4 10.0601 159.979 10.375 159.687 10.7727C159.395 11.1705 159.246 11.6245 159.24 12.1349C159.24 12.5592 159.336 12.9271 159.528 13.2386C159.727 13.5502 159.995 13.8153 160.333 14.0341C160.672 14.2462 161.046 14.4252 161.457 14.571C161.868 14.7169 162.282 14.8395 162.7 14.9389L164.609 15.4162C165.378 15.5952 166.117 15.8371 166.826 16.142C167.542 16.447 168.182 16.8314 168.745 17.2955C169.315 17.7595 169.766 18.3196 170.098 18.9759C170.429 19.6321 170.595 20.401 170.595 21.2827C170.595 22.4759 170.29 23.5265 169.68 24.4347C169.07 25.3362 168.189 26.0421 167.035 26.5526C165.888 27.0563 164.5 27.3082 162.869 27.3082C161.285 27.3082 159.909 27.063 158.743 26.5724C157.583 26.0819 156.674 25.366 156.018 24.4247C155.368 23.4834 155.017 22.3366 154.964 20.9844H158.593C158.646 21.6937 158.865 22.2836 159.25 22.7543C159.634 23.2249 160.135 23.5762 160.751 23.8082C161.374 24.0402 162.07 24.1562 162.839 24.1562C163.641 24.1562 164.344 24.0369 164.947 23.7983C165.557 23.553 166.034 23.215 166.379 22.7841C166.724 22.3466 166.899 21.8362 166.906 21.2528C166.899 20.7225 166.743 20.285 166.439 19.9403C166.134 19.589 165.706 19.2973 165.156 19.0653C164.612 18.8267 163.976 18.6146 163.247 18.429L160.93 17.8324C159.253 17.4015 157.927 16.7486 156.953 15.8736C155.985 14.992 155.501 13.822 155.501 12.3636C155.501 11.1638 155.826 10.1132 156.475 9.21165C157.132 8.31013 158.023 7.6108 159.15 7.11364C160.277 6.60985 161.553 6.35795 162.978 6.35795C164.423 6.35795 165.69 6.60985 166.777 7.11364C167.87 7.6108 168.729 8.3035 169.352 9.19176C169.975 10.0734 170.297 11.0876 170.316 12.2344H166.767ZM173.884 27V6.63636H177.572V23.9077H186.541V27H173.884ZM193.124 27H189.186L196.355 6.63636H200.909L208.088 27H204.151L198.712 10.8125H198.553L193.124 27ZM193.253 19.0156H203.991V21.9787H193.253V19.0156ZM210.77 6.63636H215.284L221.33 21.392H221.569L227.614 6.63636H232.128V27H228.588V13.0099H228.4L222.772 26.9403H220.127L214.499 12.9801H214.31V27H210.77V6.63636ZM261.287 16.8182C261.287 19.0123 260.876 20.8916 260.054 22.456C259.238 24.0137 258.125 25.2069 256.713 26.0355C255.307 26.8641 253.713 27.2784 251.93 27.2784C250.147 27.2784 248.549 26.8641 247.137 26.0355C245.732 25.2003 244.618 24.0038 243.797 22.446C242.981 20.8816 242.574 19.0057 242.574 16.8182C242.574 14.6241 242.981 12.7481 243.797 11.1903C244.618 9.62595 245.732 8.42945 247.137 7.60085C248.549 6.77225 250.147 6.35795 251.93 6.35795C253.713 6.35795 255.307 6.77225 256.713 7.60085C258.125 8.42945 259.238 9.62595 260.054 11.1903C260.876 12.7481 261.287 14.6241 261.287 16.8182ZM257.578 16.8182C257.578 15.2737 257.336 13.9711 256.852 12.9105C256.375 11.8433 255.712 11.0379 254.863 10.4943C254.015 9.94413 253.037 9.66903 251.93 9.66903C250.823 9.66903 249.845 9.94413 248.997 10.4943C248.148 11.0379 247.482 11.8433 246.998 12.9105C246.521 13.9711 246.282 15.2737 246.282 16.8182C246.282 18.3627 246.521 19.6686 246.998 20.7358C247.482 21.7964 248.148 22.6018 248.997 23.152C249.845 23.6955 250.823 23.9673 251.93 23.9673C253.037 23.9673 254.015 23.6955 254.863 23.152C255.712 22.6018 256.375 21.7964 256.852 20.7358C257.336 19.6686 257.578 18.3627 257.578 16.8182ZM281.509 6.63636V27H278.227L268.632 13.1293H268.463V27H264.774V6.63636H268.075L277.661 20.517H277.839V6.63636H281.509ZM285.528 27V6.63636H289.217V23.9077H298.186V27H285.528ZM305.076 6.63636V27H301.387V6.63636H305.076ZM325.805 6.63636V27H322.524L312.929 13.1293H312.76V27H309.071V6.63636H312.372L321.957 20.517H322.136V6.63636H325.805ZM329.825 27V6.63636H343.069V9.72869H333.514V15.2571H342.383V18.3494H333.514V23.9077H343.149V27H329.825Z" fill="#333333" fill-opacity="0.76"/>
</svg>
