<?xml version="1.0" encoding="UTF-8"?>
<svg width="146.47mm" height="146.47mm" version="1.1" viewBox="0 0 518.97835 518.9784" xmlns="http://www.w3.org/2000/svg">
 <g transform="translate(-103.29 -368.05)">
  <path d="m596.95 630.78a231.59 235.39 0 0 1 -231.59 235.39 231.59 235.39 0 0 1 -231.59 -235.39 231.59 235.39 0 0 1 231.59 -235.39 231.59 235.39 0 0 1 231.59 235.39z" fill="#bbdefb" fill-rule="evenodd"/>
  <path d="m369.37 438.94c-32.122-0.21461-64.326 19.942-76.166 50.103-3.9527 13.963-3.4625 28.995-9.6194 42.36-3.6442 11.497-3.3968 24.113-7.2344 35.322-16.866 24.385-20.466 54.891-21.818 83.71-0.92795 4.1938-0.0444 9.8621-2.555 13.057-14.073 6.3298-30.997 12.136-38.429 26.803-1.1798 4.7533-7.7037 4.2992-10.836 7.4704-7.6622 4.7001-16.297 9.4093-21.01 17.272-6.5328 49.566-13.064 99.132-19.598 148.7h78.576c2.4516-0.82605 9.819 0.58982 14.018 0h236.82c0.27739-2.5276 0.28375-3.5017 1.8809-1.2578 4.7018 3.9335 11.142-0.11819 16.5 1.2578h55.994c-9.3319-51.319-18.662-102.64-27.99-153.96-9.4064-7.4279-19.829-13.794-31.312-17.258-9.0932-6.1578-18.329-12.635-29.295-15.092-4.7162-1.4926-9.4791-2.803-14.191-4.2402 9.8744-33.822 17.215-70.185 8.1719-105.04-4.4805-21.664-12.355-42.437-18.479-63.602-2.5446-14.792-7.7024-29.811-19.005-40.254-16.489-17.269-40.827-25.758-64.426-25.354z" fill="#fff" fill-rule="evenodd"/>
  <path d="m304.3 669.51c-43.473 15.781-81.755 16.295-116.64 46.316l-18.701 141.91h66.825l5.91-29.555c1.258 9.9917 2.1926 19.835 2.8752 29.555h241.48c0.64608-11.086 1.5213-22.096 2.6548-32.986l8.4827 32.986h61.529l-26.271-144.48c-32.261-21.928-75.996-31.002-113.21-43.743l-46.694 23.654-11.522 35.781-10.615-36.691z" fill="#fbe9e7" fill-rule="evenodd"/>
  <path d="m419.23 669.51-46.396 24.259-12.13 34.043v129.93h125.36c0.64527-11.084 1.5005-22.098 2.6337-32.986l8.4827 32.986h61.529l-26.269-144.48-14.152-9.864z" fill="#ffccbc" fill-rule="evenodd"/>
  <path d="m405.41 660.99-34.615 30.93-10.007 38.208-10.31-38.511-32.308-30.93-28.946 12.433 26.078 66.257 33.962-42.756 11.523 34.569 11.675-34.721 32.598 43.666 25.074-68.568z" fill="#ffccbc" fill-rule="evenodd"/>
  <path d="m405.41 660.99-34.613 30.931-10.007 38.208-0.0865-0.32361v1.1233l0.0865 0.26033 11.675-34.721 32.596 43.666 25.437-68.86c-4.3824-1.3972-11.489-4.1243-11.489-4.1243s-8.1994-3.7872-13.458-6.0996z" fill="#ffab91" fill-rule="evenodd"/>
  <path d="m306.58 495.58c41.598-61.404 85.668-37.976 130.24 2.6272-3.5388 59.236 3.4905 97.913-32.526 141.19-9.18 11.031-17.774 21.636-43.114 22.016-19.192-0.28416-26.126-9.0168-36.136-20.96-31.105-37.114-19.912-86.228-18.461-144.88z" fill="#ffe0b2"/>
  <path d="m305.55 543.3c11.812-4.091 19.353-6.7747 31.57-0.33418 6.2618 2.4338 8.336 4.6217 15.868 6.04 0 0 1.1029-4.2442 0.4032-5.0983-18.755-14.302-41.251-11.783-47.841-0.6075z" fill="#333" fill-rule="evenodd"/>
  <path d="m362.43 458.03c-0.5753 2e-3 -1.1506 0.0181-1.7253 0.0394v203.33c0.15844 4e-3 0.31058 0.0108 0.47071 0.0131 25.34-0.37944 33.935-10.983 43.114-22.015 36.016-43.28 28.987-81.958 32.526-141.19-25.07-22.839-49.983-40.245-74.386-40.174z" fill="#ffdaa2"/>
  <path d="m425.11 543.3c-11.812-4.091-19.353-6.7747-31.57-0.33418-6.2618 2.4338-8.336 4.6217-15.868 6.04 0 0-1.1028-4.2442-0.40317-5.0983 18.755-14.302 41.251-11.783 47.841-0.6075z" fill="#333" fill-rule="evenodd"/>
  <path d="m309.04 537.03 9-15s13.75-23.5 16.5-27.75 12.25-11 12.25-11c5.9078-2.0992 14.302-4.1104 17.5-3 3.25 0.75 8.9184 2.435 11.75 4.25 4.7296 3.6277 11.168 8.777 15 14.75 2 3.25 13.75 22 15 25.5 2.3275 5.1733 5.8039 7.474 7.5 13 0 0-2-13.75-4-21s4.75-24.5-8.5-32.75-24.25-17.25-28.25-19.5 1.25-3.5-12.5-2.75-6.5-10.5-26.25 5.5-19.5-1.25-20.25 16.5 1.5 6-0.75 19.25 0.5 8.5-2.5 13.5-4.75 8.5-4 12.75 1 5 1.5 6.5 1 1.25 1 1.25z" fill="#353535" fill-rule="evenodd"/>
  <path d="m371.14 444.94c-27.021-0.26984-54.663 12.131-71.663 43.251-2.3103 11.254-5.0573 22.06-4.9035 29.864-6.8946 17.612-8.9648 29.964-10.858 48.576-26.472 38.292-18.887 66.344-25.524 100.96-18.853 7.0642-38.029 16.844-39.782 27.022 4.2442 28.404 6.1042 29.205 19.22 53.173 6.0259 13.512 14.735 22.735 18.76 36.246 22.914 16.294 69.37 47.715 104.29 52.455 34.74-7.3789 65.35-28.377 90.116-50.296 25.084-20.995 33.96-60.563 51.048-88.555-11.644-11.937-25.654-13.878-46.169-20.492 10.243-31.446 17.848-74.9 11.676-97.665-4.1237-21.799-9.497-41.693-17.611-62.494-3.8794-12.385-5.6477-30.535-11.708-37.541-13.777-21.699-38.123-34.219-66.888-34.506zm-9.939 27.083c23.93 3.702 30.401 15.458 46.168 45.886 4.7364 13.281 8.1231 25.233 10.358 36.051 13.98 40.47-1.5678 70.317-19.118 90.544-6.3736 10.134-22.167 17.394-37.951 16.786-12.983-0.0478-20.711-4.6131-29.192-14.664-20.073-20.984-29.255-61.644-20.672-92.442 1.4364-10.818 3.2787-21.718 4.8023-32.553 13.08-30.982 22.09-45.912 45.605-49.608z" fill="#3949ab" fill-rule="evenodd"/>
  <path d="m371.14 444.94c-3.476-0.0347-6.9619 0.14633-10.434 0.54385v26.677c0.16596-0.0447 0.32817-0.0934 0.49509-0.13691 25.697 2.9949 30.402 15.458 46.169 45.886 4.7364 13.281 8.1223 25.232 10.358 36.05 13.98 40.47-1.5672 70.317-19.117 90.544-6.3673 10.124-22.136 17.378-37.905 16.786v175.19c34.728-7.3846 65.328-28.375 90.087-50.288 25.084-20.995 33.96-60.563 51.047-88.554-11.644-11.937-25.654-13.878-46.169-20.492 10.243-31.446 17.85-74.9 11.678-97.665-4.1236-21.799-9.4976-41.693-17.611-62.494-3.8794-12.385-5.6472-30.536-11.708-37.543-13.777-21.699-38.124-34.219-66.888-34.507z" fill="#303f9f" fill-rule="evenodd"/>
  <path d="m450.68 519.43c0.16868 1.3564 1.35 1.949 0.79244 4.5512-6.2742 36.867-12.015 80.804-33.399 120.34-10.09 12.952-23.641 21.25-30.401 27.023-3.9493 5.638-8.7023 10.358-13.512 15.013l4.1285 8.2571c25.549-0.56216 74.006-56.393 88.931-114.93 0.43702 1.218 0.60145 2.0103 0.2807 3.1954-30.072 125.73-72.659 100.9-88.085 127.5 0 0-9.6399-7.2841-12.01-15.764l-5.3111 4.9891c-3.5058 1.1886-6.2066-11.223-6.6992-10.244l-12.761-12.386c-41.36-18.913-50.925-91.546-49.918-154.26l2.0643-4.5039c3.467 44.433 4.1911 101.94 25.982 129.76 8.8005 11.237 25.599 31.178 42.086 33.251 17.141 0.33077 20.45-12.81 31.161-23.81 16.621-8.3212 14.114-9.5003 14.498-9.9136 24.863-26.762 29.351-82.095 42.172-128.07z" fill="#283593" fill-rule="evenodd"/>
  <path d="m454.86 678.1c-19.859 61.267-94.525 48.341-115.31 33.372-36.673-22.859-54.806-84.574-60.342-135.46 8.6708 99.432 33.817 180.43 159.14 149.38-7.6307 14.524-12.58 41.709-31.88 43.75-55.93 5.915-128.89-42.489-128.01-142.08-8.2294 59.084 13.489 144.8 132.11 153.13-43.598 18.367-87.196 14.841-130.79-4.989 28.308 25.934 65.423 44.446 139.8 11.745 25.64-19.289 52.556-59.906 35.28-108.84z" fill="#283593" fill-rule="evenodd"/>
  <path d="m258.65 666.99c-2.7663 37.127 3.9523 92.823 12.357 123.51-13.831-15.929-19.938-91.038-16.952-121.19z" fill="#283593" fill-rule="evenodd"/>
  <path d="m339.24 619.36c6.1079-0.1594 12.416-1.1182 18.206-6e-3l3.1798 1.8118 3.8491-1.8137c5.9236-1.1543 12.065-0.34793 18.155-6e-3 -4.2534 6.0608-7.9392 10.894-21.4 10.683-13.172-0.0243-15.928-3.1507-21.989-10.672z" fill="#ff8a80"/>
  <path d="m348.2 565.66c-8.5266-12.241-17.168-16.715-31.437-10.938l-1.8278 2.0819c10.96 14.247 18.053 10.306 33.265 8.8556z" fill="#f9f9f9" fill-rule="evenodd"/>
  <ellipse cx="330.33" cy="559.83" rx="5.3844" ry="5.593" fill="#333" fill-rule="evenodd"/>
  <path d="m313.91 554.72 1.0654 2.0695c10.706-5.0976 22.77-3.9984 33.254 8.7195-4.4242-6.8643-13.484-19.652-34.319-10.789z" fill="#333" fill-rule="evenodd"/>
  <ellipse cx="332.2" cy="558.53" rx="1.6325" ry="1.715" fill="#fff" fill-rule="evenodd"/>
  <path d="m381.43 565.66c8.5266-12.241 17.168-16.715 31.437-10.938l1.8277 2.0819c-10.96 14.247-17.772 10.166-33.265 8.8556z" fill="#f9f9f9" fill-rule="evenodd"/>
  <ellipse transform="scale(-1,1)" cx="-399.31" cy="559.83" rx="5.3844" ry="5.593" fill="#333" fill-rule="evenodd"/>
  <path d="m415.72 554.72-1.0655 2.0695c-10.706-5.0976-22.77-3.9984-33.254 8.7195 4.4242-6.8643 13.484-19.652 34.319-10.789z" fill="#333" fill-rule="evenodd"/>
  <ellipse transform="scale(-1,1)" cx="-401.51" cy="558.53" rx="1.6325" ry="1.715" fill="#fff" fill-rule="evenodd"/>
  <path d="m354.02 604.79c4.8789-7.5272 10.036-7.5275 15.473 0z" fill="#fad59d" fill-rule="evenodd"/>
  <path d="m428.86 494.33-10.292 59.18 10.721-31.305z" fill="#303f9f" fill-rule="evenodd"/>
  <path d="m454.86 678.1c-15.364 47.398-63.514 50.381-94.156 42.376v8.3678c20.307 5.0846 45.718 4.4587 77.642-3.4525-7.6307 14.524-12.58 41.709-31.879 43.75-14.631 1.5474-30.427-0.62946-45.762-6.4606v7.944c14.318 4.8893 30.84 8.226 49.868 9.5624-16.623 7.003-33.245 10.815-49.868 11.762v11.901c16.654-1.6427 36.001-6.8486 58.877-16.906 25.64-19.289 52.555-59.906 35.279-108.84z" fill="#1a237e" fill-rule="evenodd"/>
  <path d="m450.68 519.43c-12.821 45.975-17.31 101.31-42.173 128.07-0.38394 0.41327 2.1228 1.5919-14.498 9.9132-10.711 11-14.018 24.14-31.159 23.81-0.71635-0.0901-1.4342-0.22534-2.151-0.38069v18.542c0.44788 0.28052 0.91332 0.38094 1.3953 0.21754l5.311-4.9884c2.3704 8.4794 12.01 15.764 12.01 15.764 15.426-26.599 58.014-1.7713 88.086-127.5 0.32076-1.1851 0.1576-1.9758-0.27943-3.1937-14.924 58.541-63.382 114.37-88.931 114.93l-4.1295-8.2572c4.8093-4.6553 9.5626-9.3742 13.512-15.012 6.7598-5.7735 20.311-14.072 30.401-27.024 21.383-39.533 27.124-83.471 33.398-120.34 0.5576-2.6022-0.62272-3.1933-0.79141-4.5496z" fill="#1a237e" fill-rule="evenodd"/>
  <path d="m103.29 368.05v518.98h518.98v-518.98h-518.98zm259.49 30.985a228.5 228.5 0 0 1 228.51 228.51 228.5 228.5 0 0 1 -228.51 228.5 228.5 228.5 0 0 1 -228.5 -228.5 228.5 228.5 0 0 1 228.5 -228.51z" fill="#fff" fill-rule="evenodd"/>
  <path d="m353.88 469.22c-4.25 1.25-8.25 3.75-11 5.25s-7.25 3.75-10.25 8.25-8 9.75-9 12-5 9.25-6.25 11.25 4.75-12.5 4.75-12.5l3.875-6.75s2.5-2.25 4-3.75 3.625-4.75 5.375-5.5 6.5-4.5 6.5-4.5l6.25-3z" fill="#303f9f" fill-rule="evenodd"/>
 </g>
</svg>
