<svg xmlns="http://www.w3.org/2000/svg" viewBox="0 0 64 64" fill="#fff"><path fill="#fff" d="M63.51 38.44c-.47-.75-1.19-1.28-2.03-1.47-.25-.06-.5-.09-.75-.09-.61 0-1.21.17-1.73.49L44.31 46.2l.01.13c.01.07 0 .15-.01.25l.01.18-.04.05-.01.06c-.17.93-.61 1.76-1.25 2.4-.84.85-1.97 1.32-3.19 1.32H26.51c-.45 0-.82-.37-.82-.82 0-.45.37-.82.82-.82h13.32c.77 0 1.49-.3 2.04-.84.39-.39.67-.93.8-1.53l.03-.19v-.13c0-.1.01-.22-.01-.41-.01-.03-.01-.09-.01-.16-.2-1.42-1.49-2.49-3.01-2.49h-5.69c-2.58 0-5.08-.76-7.22-2.19-2.07-1.37-4.08-2.23-5.96-2.55-.6-.11-1.25-.17-1.98-.17-.27 0-.55.01-.85.02-.47.02-1.16.02-1.93.02-1.05 0-2.25-.01-3.21-.02h-.23l1.69 16.89v.14l.13.05c1.86.71 3.82 1.71 4.57 2.11l.1.05c1.42.75 2.2 1.16 2.63 1.46 2.49 1.28 5.13 1.92 7.85 1.92 3.87 0 6.91-1.33 8.08-2.11l24.8-15.89a3.277 3.277 0 0 0 1.56-2.89c-.02-.54-.19-1.1-.5-1.6zM12.69 55.92l-1.82-18.04v-.06l-.02-.04a.73.73 0 0 1-.06-.32c0-.06.01-.1.02-.24l-.23-2.3-7.48 1.09L0 61.88l13-2.79-.29-3-.02-.17z"/><g fill="#fff"><path d="M44.44 18.89c-.28-.27-.6-.5-.95-.69a9.95 9.95 0 0 0-1.05-.48c-.25-.1-1.02-.38-1.02-.38-.29-.1-.58-.22-.84-.37-.23-.13-.41-.28-.53-.44-.12-.16-.17-.34-.17-.57 0-.15.03-.28.08-.39.05-.12.12-.21.22-.29.12-.09.27-.16.48-.22.2-.05.46-.08.76-.08.33 0 .63.04.9.11.29.08.54.17.76.26.23.09.4.18.55.25.2.11.37.16.51.16.13 0 .25-.05.28-.09.09-.06.16-.16.2-.26.05-.12.06-.24.08-.39.01-.13.02-.29.02-.5l-.01-.42c-.01-.14-.03-.25-.04-.29a.987.987 0 0 0-.1-.33.968.968 0 0 0-.15-.19c-.08-.1-.2-.16-.4-.27-.15-.06-.31-.13-.48-.19-.19-.07-.38-.12-.58-.16-.1-.03-.2-.05-.3-.07l.16-1.54c0-.07 0-.17-.04-.28a.478.478 0 0 0-.27-.3c-.12-.07-.26-.09-.4-.12-.15-.02-.33-.03-.54-.03-.18 0-.31.01-.42.02-.14.01-.26.04-.35.09-.11.06-.19.12-.24.19-.06.08-.08.17-.09.28l-.16 1.66c-.47.07-.9.18-1.3.35-.47.19-.88.45-1.2.77-.33.32-.58.7-.75 1.12-.17.42-.26.9-.26 1.4 0 .6.09 1.07.26 1.45.17.41.4.76.68 1.04s.58.51.95.71c.34.18.68.34 1.03.48.34.13.68.26 1.01.37.3.1.57.23.83.38.22.12.4.26.53.43.11.14.16.32.16.56 0 .36-.13.63-.41.85-.3.23-.79.35-1.46.35-.43 0-.82-.05-1.16-.13-.33-.09-.62-.19-.84-.29-.22-.11-.41-.2-.58-.31-.21-.12-.37-.17-.51-.17-.09 0-.21.01-.36.1a.67.67 0 0 0-.21.28c-.04.1-.07.23-.1.42-.01.15-.01.33-.01.56 0 .33.01.53.05.69.04.2.12.36.24.47.1.1.25.2.41.28.15.08.33.16.53.24.2.08.43.14.69.2.16.04.33.08.5.11l-.16 1.62c-.01.08-.02.2.03.35.05.13.16.21.3.3.1.04.23.08.37.1.14.02.31.02.53.02.18 0 .33 0 .42-.02.14-.01.26-.05.31-.08a.49.49 0 0 0 .3-.25c.03-.06.07-.15.07-.24l.18-1.77a6.4 6.4 0 0 0 1.48-.35c.53-.2 1-.48 1.37-.82.38-.34.68-.75.9-1.23.21-.48.31-1.02.31-1.59 0-.54-.09-1.02-.26-1.43-.23-.38-.45-.72-.74-1z"/><path d="M40.98 2.12c-9.32 0-16.91 7.58-16.91 16.9 0 9.32 7.58 16.91 16.91 16.91 9.31 0 16.9-7.58 16.9-16.91-.01-9.31-7.59-16.9-16.9-16.9zm0 30.26c-7.36 0-13.36-6-13.36-13.36s6-13.36 13.36-13.36c7.36 0 13.36 6 13.36 13.36s-6 13.36-13.36 13.36z"/></g></svg>