<svg xmlns="http://www.w3.org/2000/svg" viewBox="0 0 32 32"><path fill="#fff" d="M11 22.75l1.55-1.55V24A.78.78 0 0 1 11 24zM12.56 17.66L11 19.23V14.29a.6.6 0 0 0-.31-.54 3.55 3.55 0 0 1-1.54-3.1c0-1.88 1.18-3.41 2.63-3.41s2.62 1.53 2.62 3.41a3.56 3.56 0 0 1-1.53 3.1.63.63 0 0 0-.32.54zM19.68 14.34h1.56V24.2c0 .3-.36.56-.79.56s-.77-.26-.77-.56zM21.35 13.09h-.68L22.8 11C22.73 12.14 22.09 13.09 21.35 13.09z"/><path fill="#fff" d="M9.76 20.48l-5.2 5.19A14.87 14.87 0 0 1 1 16 15 15 0 0 1 16 1a14.87 14.87 0 0 1 9.67 3.56L24 6.26a.59.59 0 0 0-.5-.27.61.61 0 0 0-.62.62V7.4l-1 1V6.61A.63.63 0 0 0 21.22 6a.62.62 0 0 0-.62.62v3l-.92.91V6.61a.63.63 0 0 0-1.25 0v4.8a.47.47 0 0 0 .1.3l-.62.61a3.31 3.31 0 0 1-.4-1.57V6.61A.61.61 0 0 0 16.89 6a.63.63 0 0 0-.63.62v4.14A4.31 4.31 0 0 0 17 13.23l-3.19 3.18V14.63a4.86 4.86 0 0 0 1.85-4C15.66 8.09 13.93 6 11.79 6s-3.88 2.1-3.88 4.66a4.86 4.86 0 0 0 1.85 4zM31 16A15 15 0 0 1 16 31a14.87 14.87 0 0 1-9.67-3.56L9.76 24a2 2 0 0 0 4.05 0V20l4.62-4.61V24.2a1.93 1.93 0 0 0 2 1.81 1.93 1.93 0 0 0 2-1.81V14a3.75 3.75 0 0 0 1.57-3.22V9.7l3.38-3.37A14.87 14.87 0 0 1 31 16z"/></svg>