<svg xmlns="http://www.w3.org/2000/svg" viewBox="0 0 64 64"><g data-name="Layer 10"><path fill="#fff" d="M61,17.57V52.12a3,3,0,0,1-2.82,2.99L27.06,57h-.15L5.74,55.15A2.9781,2.9781,0,0,1,3,52.17V17.42a3.0069,3.0069,0,0,1,2.01-2.83L26.67,7.06a.1268.1268,0,0,1,.06-.01,1.23,1.23,0,0,1,.17-.03,1.1094,1.1094,0,0,1,.26.01.2151.2151,0,0,1,.08,0l31.47,7.63A2.9764,2.9764,0,0,1,61,17.57Z"/><path fill="#fed402" d="M61,21.85V31.97L26.97,31,3,31.96V21.78l23.8-4.76a.9713.9713,0,0,1,.34-.01Z"/><polygon fill="#fed402" points="61 44.03 61 46.03 27.03 47 26.96 47 3 46 3 44 3.04 44 27.01 45 61 44.03"/><path fill="#e8b536" d="M36.1895 23.8311L33.2021 23.56a1.0008 1.0008 0 0 0-.1816 1.9922s3.0488.2754 3.0791.2754A1.0022 1.0022 0 0 0 36.1895 23.8311zM42.165 24.374l-2.9883-.2715a1.0008 1.0008 0 0 0-.1816 1.9922s3.05.2754 3.08.2754A1.0022 1.0022 0 0 0 42.165 24.374zM30.2134 23.2876s-3.1422-.311-3.1742-.3111c-.0863-.0107-3.1432.42-3.1432.42a1.0027 1.0027 0 0 0 .1279 1.9917c.039 0 2.5-.3182 3.0081-.3839l.0134.004s3.0483.2754 3.0786.2754A1.0021 1.0021 0 0 0 30.2134 23.2876zM48.14 24.9175l-2.9873-.2715a1.0008 1.0008 0 0 0-.1816 1.9922s3.0488.2754 3.0791.2754A1.0022 1.0022 0 0 0 48.14 24.9175zM54.1152 25.46l-2.9873-.2715a1.0008 1.0008 0 0 0-.1816 1.9922s3.0488.2754 3.0791.2754A1.0022 1.0022 0 0 0 54.1152 25.46zM60.0908 26.0039l-2.9873-.2715a1.0008 1.0008 0 0 0-.1816 1.9922S59.9707 28 60.001 28A1.0022 1.0022 0 0 0 60.0908 26.0039zM9.022 25.3364l-2.9751.3882a1.0027 1.0027 0 0 0 .1279 1.9917c.0435 0 3.106-.3965 3.106-.3965A1.0007 1.0007 0 0 0 9.022 25.3364zM20.9209 23.7842l-2.9746.3882a1.0027 1.0027 0 0 0 .1279 1.9917c.0435 0 3.1055-.3965 3.1055-.3965A1.0007 1.0007 0 0 0 20.9209 23.7842zM14.9712 24.5605l-2.9746.3877a1.0027 1.0027 0 0 0 .1279 1.9917c.0435 0 3.1055-.396 3.1055-.396A1.0007 1.0007 0 0 0 14.9712 24.5605z"/></g></svg>