<svg width="302" height="29" viewBox="0 0 302 29" fill="none" xmlns="http://www.w3.org/2000/svg">
<path d="M26.5082 3C26.5082 6.46 15 8.26921 15 13.4608C15 15.1908 16.2693 17 17.5468 17H35.4356C36.7143 17 38 15.1908 38 13.4608C38 8.26842 26.5082 6.46 26.5082 3Z" fill="#F4900C"/>
<path d="M40 26.1063C40 27.1524 39.6628 28 37.4508 28H14.5142C12.3033 28 12 27.1524 12 26.1063V16.6415C12 15.5963 12.3033 15 14.5153 15H37.452C39.6628 15 40 15.5963 40 16.6415V26.1063Z" fill="#FFD983"/>
<path d="M25 26.4C25 26.8243 24.7606 27.2313 24.3343 27.5314C23.9081 27.8314 23.33 28 22.7273 28H2.27273C1.66996 28 1.09189 27.8314 0.665666 27.5314C0.239447 27.2313 0 26.8243 0 26.4V25.6C0 25.1757 0.239447 24.7687 0.665666 24.4686C1.09189 24.1686 1.66996 24 2.27273 24H22.7273C23.33 24 23.9081 24.1686 24.3343 24.4686C24.7606 24.7687 25 25.1757 25 25.6V26.4Z" fill="#FFD983"/>
<path d="M29.6667 22.1667C29.6667 19.6667 27.3493 18 26 18C24.6507 18 22.3333 19.6667 22.3333 22.1667V28H29.6667V22.1667ZM19.8889 24.1108C19.8889 22.4442 18.344 21.3333 17.4444 21.3333C16.5449 21.3333 15 22.4442 15 24.1108V28H19.8889V24.1108ZM37 24.1108C37 22.4442 35.4551 21.3333 34.5556 21.3333C33.656 21.3333 32.1111 22.4442 32.1111 24.1108V28H37V24.1108Z" fill="white"/>
<path d="M9 26.4C9 26.8243 8.75417 27.2313 8.31658 27.5314C7.879 27.8314 7.2855 28 6.66667 28H4.33333C3.71449 28 3.121 27.8314 2.68342 27.5314C2.24583 27.2313 2 26.8243 2 26.4V5.6C2 5.17565 2.24583 4.76869 2.68342 4.46863C3.121 4.16857 3.71449 4 4.33333 4H6.66667C7.2855 4 7.879 4.16857 8.31658 4.46863C8.75417 4.76869 9 5.17565 9 5.6V26.4Z" fill="#FFD983"/>
<path d="M5.50247 0C5.50247 1.43609 2 2.28117 2 4.43648C2 5.15492 2.38587 6 2.77544 6H8.21961C8.60795 6 9 5.15492 9 4.43648C9 2.28117 5.50247 1.43609 5.50247 0Z" fill="#F4900C"/>
<path d="M10 9C10 9.26522 9.88147 9.51957 9.6705 9.70711C9.45952 9.89464 9.17337 10 8.875 10H2.125C1.82663 10 1.54048 9.89464 1.3295 9.70711C1.11853 9.51957 1 9.26522 1 9C1 8.73478 1.11853 8.48043 1.3295 8.29289C1.54048 8.10536 1.82663 8 2.125 8H8.875C9.17337 8 9.45952 8.10536 9.6705 8.29289C9.88147 8.48043 10 8.73478 10 9ZM10 5C10 5.26522 9.88147 5.51957 9.6705 5.70711C9.45952 5.89464 9.17337 6 8.875 6H2.125C1.82663 6 1.54048 5.89464 1.3295 5.70711C1.11853 5.51957 1 5.26522 1 5C1 4.73478 1.11853 4.48043 1.3295 4.29289C1.54048 4.10536 1.82663 4 2.125 4H8.875C9.17337 4 9.45952 4.10536 9.6705 4.29289C9.88147 4.48043 10 4.73478 10 5Z" fill="#FFAC33"/>
<path d="M53.6364 28H47.7216V10.5455H53.7557C55.4886 10.5455 56.9773 10.8949 58.2216 11.5938C59.4716 12.2869 60.4318 13.2841 61.1023 14.5852C61.7727 15.8864 62.108 17.4432 62.108 19.2557C62.108 21.0739 61.7699 22.6364 61.0938 23.9432C60.4233 25.25 59.4545 26.2528 58.1875 26.9517C56.9261 27.6506 55.4091 28 53.6364 28ZM50.8835 25.2642H53.483C54.6989 25.2642 55.7131 25.0426 56.5256 24.5994C57.3381 24.1506 57.9489 23.483 58.358 22.5966C58.767 21.7045 58.9716 20.5909 58.9716 19.2557C58.9716 17.9205 58.767 16.8125 58.358 15.9318C57.9489 15.0455 57.3438 14.3835 56.5426 13.946C55.7472 13.5028 54.7585 13.2812 53.5767 13.2812H50.8835V25.2642ZM66.4162 28H63.0412L69.1861 10.5455H73.0895L79.2429 28H75.8679L71.206 14.125H71.0696L66.4162 28ZM66.527 21.1562H75.7315V23.696H66.527V21.1562ZM81.5419 28V10.5455H88.0874C89.4283 10.5455 90.5533 10.7784 91.4624 11.2443C92.3771 11.7102 93.0675 12.3636 93.5334 13.2045C94.005 14.0398 94.2408 15.0142 94.2408 16.1278C94.2408 17.2472 94.0021 18.2187 93.5249 19.0426C93.0533 19.8608 92.3572 20.4943 91.4368 20.9432C90.5163 21.3864 89.3857 21.608 88.0447 21.608H83.3828V18.983H87.6186C88.4027 18.983 89.0447 18.875 89.5447 18.6591C90.0447 18.4375 90.4141 18.1165 90.6527 17.696C90.897 17.2699 91.0192 16.7472 91.0192 16.1278C91.0192 15.5085 90.897 14.9801 90.6527 14.5426C90.4084 14.0994 90.0362 13.7642 89.5362 13.5369C89.0362 13.304 88.3913 13.1875 87.6016 13.1875H84.7038V28H81.5419ZM90.5589 20.0909L94.88 28H91.3516L87.1072 20.0909H90.5589ZM108.154 10.5455H111.316V21.9489C111.316 23.1989 111.021 24.2983 110.43 25.2472C109.844 26.196 109.021 26.9375 107.958 27.4716C106.896 28 105.654 28.2642 104.234 28.2642C102.808 28.2642 101.563 28 100.501 27.4716C99.4382 26.9375 98.6143 26.196 98.0291 25.2472C97.4439 24.2983 97.1513 23.1989 97.1513 21.9489V10.5455H100.313V21.6847C100.313 22.4119 100.472 23.0597 100.79 23.6278C101.114 24.196 101.569 24.642 102.154 24.9659C102.739 25.2841 103.433 25.4432 104.234 25.4432C105.035 25.4432 105.728 25.2841 106.313 24.9659C106.904 24.642 107.359 24.196 107.677 23.6278C107.995 23.0597 108.154 22.4119 108.154 21.6847V10.5455ZM114.753 28V10.5455H117.915V25.3494H125.602V28H114.753ZM137.462 10.5455V28H134.3V10.5455H137.462ZM150.371 15.3438C150.292 14.5994 149.957 14.0199 149.366 13.6051C148.781 13.1903 148.019 12.983 147.082 12.983C146.423 12.983 145.857 13.0824 145.386 13.2812C144.914 13.4801 144.553 13.75 144.303 14.0909C144.053 14.4318 143.925 14.821 143.92 15.2585C143.92 15.6222 144.002 15.9375 144.167 16.2045C144.337 16.4716 144.567 16.6989 144.857 16.8864C145.147 17.0682 145.468 17.2216 145.82 17.3466C146.173 17.4716 146.528 17.5767 146.886 17.6619L148.522 18.071C149.181 18.2244 149.815 18.4318 150.423 18.6932C151.036 18.9545 151.585 19.2841 152.067 19.6818C152.556 20.0795 152.942 20.5597 153.227 21.1222C153.511 21.6847 153.653 22.3437 153.653 23.0994C153.653 24.1222 153.391 25.0227 152.869 25.8011C152.346 26.5739 151.59 27.179 150.602 27.6165C149.619 28.0483 148.428 28.2642 147.031 28.2642C145.673 28.2642 144.494 28.054 143.494 27.6335C142.499 27.2131 141.721 26.5994 141.158 25.7926C140.602 24.9858 140.3 24.0028 140.255 22.8438H143.366C143.411 23.4517 143.599 23.9574 143.928 24.3608C144.258 24.7642 144.687 25.0653 145.215 25.2642C145.749 25.4631 146.346 25.5625 147.005 25.5625C147.692 25.5625 148.295 25.4602 148.812 25.2557C149.335 25.0455 149.744 24.7557 150.039 24.3864C150.335 24.0114 150.485 23.5739 150.491 23.0739C150.485 22.6193 150.352 22.2443 150.09 21.9489C149.829 21.6477 149.462 21.3977 148.991 21.1989C148.525 20.9943 147.979 20.8125 147.354 20.6534L145.369 20.142C143.931 19.7727 142.795 19.2131 141.96 18.4631C141.13 17.7074 140.715 16.7045 140.715 15.4545C140.715 14.4261 140.994 13.5256 141.55 12.7528C142.113 11.9801 142.877 11.3807 143.843 10.9545C144.809 10.5227 145.903 10.3068 147.124 10.3068C148.363 10.3068 149.448 10.5227 150.38 10.9545C151.317 11.3807 152.053 11.9744 152.587 12.7358C153.121 13.4915 153.397 14.3608 153.414 15.3438H150.371ZM156.472 28V10.5455H159.634V25.3494H167.321V28H156.472ZM172.963 28H169.588L175.733 10.5455H179.636L185.79 28H182.415L177.753 14.125H177.616L172.963 28ZM173.074 21.1562H182.278V23.696H173.074V21.1562ZM188.089 10.5455H191.958L197.14 23.1932H197.344L202.526 10.5455H206.396V28H203.362V16.0085H203.2L198.376 27.9489H196.109L191.285 15.983H191.123V28H188.089V10.5455ZM231.388 19.2727C231.388 21.1534 231.036 22.7642 230.332 24.1051C229.633 25.4403 228.678 26.4631 227.468 27.1733C226.263 27.8835 224.897 28.2386 223.369 28.2386C221.84 28.2386 220.471 27.8835 219.261 27.1733C218.056 26.4574 217.102 25.4318 216.397 24.0966C215.698 22.7557 215.349 21.1477 215.349 19.2727C215.349 17.392 215.698 15.7841 216.397 14.4489C217.102 13.108 218.056 12.0824 219.261 11.3722C220.471 10.6619 221.84 10.3068 223.369 10.3068C224.897 10.3068 226.263 10.6619 227.468 11.3722C228.678 12.0824 229.633 13.108 230.332 14.4489C231.036 15.7841 231.388 17.392 231.388 19.2727ZM228.21 19.2727C228.21 17.9489 228.002 16.8324 227.587 15.9233C227.178 15.0085 226.61 14.3182 225.883 13.8523C225.156 13.3807 224.317 13.1449 223.369 13.1449C222.42 13.1449 221.582 13.3807 220.854 13.8523C220.127 14.3182 219.556 15.0085 219.141 15.9233C218.732 16.8324 218.528 17.9489 218.528 19.2727C218.528 20.5966 218.732 21.7159 219.141 22.6307C219.556 23.5398 220.127 24.2301 220.854 24.7017C221.582 25.1676 222.42 25.4006 223.369 25.4006C224.317 25.4006 225.156 25.1676 225.883 24.7017C226.61 24.2301 227.178 23.5398 227.587 22.6307C228.002 21.7159 228.21 20.5966 228.21 19.2727ZM248.722 10.5455V28H245.909L237.685 16.1108H237.54V28H234.378V10.5455H237.207L245.423 22.4432H245.577V10.5455H248.722ZM252.167 28V10.5455H255.329V25.3494H263.016V28H252.167ZM268.923 10.5455V28H265.761V10.5455H268.923ZM286.69 10.5455V28H283.878L275.653 16.1108H275.509V28H272.347V10.5455H275.176L283.392 22.4432H283.545V10.5455H286.69ZM290.136 28V10.5455H301.488V13.196H293.298V17.9347H300.9V20.5852H293.298V25.3494H301.556V28H290.136Z" fill="#333333" fill-opacity="0.76"/>
</svg>
