<svg width="228" height="29" viewBox="0 0 228 29" fill="none" xmlns="http://www.w3.org/2000/svg">
<path d="M26.5082 3C26.5082 6.46 15 8.26921 15 13.4608C15 15.1908 16.2693 17 17.5468 17H35.4356C36.7143 17 38 15.1908 38 13.4608C38 8.26842 26.5082 6.46 26.5082 3Z" fill="#F4900C"/>
<path d="M40 26.1063C40 27.1524 39.6628 28 37.4508 28H14.5142C12.3033 28 12 27.1524 12 26.1063V16.6415C12 15.5963 12.3033 15 14.5153 15H37.452C39.6628 15 40 15.5963 40 16.6415V26.1063Z" fill="#FFD983"/>
<path d="M25 26.4C25 26.8243 24.7606 27.2313 24.3343 27.5314C23.9081 27.8314 23.33 28 22.7273 28H2.27273C1.66996 28 1.09189 27.8314 0.665666 27.5314C0.239447 27.2313 0 26.8243 0 26.4V25.6C0 25.1757 0.239447 24.7687 0.665666 24.4686C1.09189 24.1686 1.66996 24 2.27273 24H22.7273C23.33 24 23.9081 24.1686 24.3343 24.4686C24.7606 24.7687 25 25.1757 25 25.6V26.4Z" fill="#FFD983"/>
<path d="M29.6667 22.1667C29.6667 19.6667 27.3493 18 26 18C24.6507 18 22.3333 19.6667 22.3333 22.1667V28H29.6667V22.1667ZM19.8889 24.1108C19.8889 22.4442 18.344 21.3333 17.4444 21.3333C16.5449 21.3333 15 22.4442 15 24.1108V28H19.8889V24.1108ZM37 24.1108C37 22.4442 35.4551 21.3333 34.5556 21.3333C33.656 21.3333 32.1111 22.4442 32.1111 24.1108V28H37V24.1108Z" fill="white"/>
<path d="M9 26.4C9 26.8243 8.75417 27.2313 8.31658 27.5314C7.879 27.8314 7.2855 28 6.66667 28H4.33333C3.71449 28 3.121 27.8314 2.68342 27.5314C2.24583 27.2313 2 26.8243 2 26.4V5.6C2 5.17565 2.24583 4.76869 2.68342 4.46863C3.121 4.16857 3.71449 4 4.33333 4H6.66667C7.2855 4 7.879 4.16857 8.31658 4.46863C8.75417 4.76869 9 5.17565 9 5.6V26.4Z" fill="#FFD983"/>
<path d="M5.50247 0C5.50247 1.43609 2 2.28117 2 4.43648C2 5.15492 2.38587 6 2.77544 6H8.21961C8.60795 6 9 5.15492 9 4.43648C9 2.28117 5.50247 1.43609 5.50247 0Z" fill="#F4900C"/>
<path d="M10 9C10 9.26522 9.88147 9.51957 9.6705 9.70711C9.45952 9.89464 9.17337 10 8.875 10H2.125C1.82663 10 1.54048 9.89464 1.3295 9.70711C1.11853 9.51957 1 9.26522 1 9C1 8.73478 1.11853 8.48043 1.3295 8.29289C1.54048 8.10536 1.82663 8 2.125 8H8.875C9.17337 8 9.45952 8.10536 9.6705 8.29289C9.88147 8.48043 10 8.73478 10 9ZM10 5C10 5.26522 9.88147 5.51957 9.6705 5.70711C9.45952 5.89464 9.17337 6 8.875 6H2.125C1.82663 6 1.54048 5.89464 1.3295 5.70711C1.11853 5.51957 1 5.26522 1 5C1 4.73478 1.11853 4.48043 1.3295 4.29289C1.54048 4.10536 1.82663 4 2.125 4H8.875C9.17337 4 9.45952 4.10536 9.6705 4.29289C9.88147 4.48043 10 4.73478 10 5Z" fill="#FFAC33"/>
<path d="M49.3026 28H46.4901L51.6108 13.4545H54.8636L59.9915 28H57.179L53.294 16.4375H53.1804L49.3026 28ZM49.3949 22.2969H57.0653V24.4134H49.3949V22.2969ZM61.9073 28V13.4545H64.5423V25.7912H70.9485V28H61.9073ZM78.7184 19.669V21.7855H72.1701V19.669H78.7184ZM90.7053 13.4545H93.3402V22.9574C93.3402 23.9991 93.094 24.9152 92.6016 25.706C92.1139 26.4967 91.4273 27.1146 90.5419 27.5597C89.6565 28 88.6219 28.2202 87.4382 28.2202C86.2498 28.2202 85.2128 28 84.3274 27.5597C83.442 27.1146 82.7554 26.4967 82.2678 25.706C81.7801 24.9152 81.5362 23.9991 81.5362 22.9574V13.4545H84.1712V22.7372C84.1712 23.3433 84.3037 23.883 84.5689 24.3565C84.8388 24.83 85.2176 25.2017 85.7053 25.4716C86.1929 25.7367 86.7706 25.8693 87.4382 25.8693C88.1058 25.8693 88.6835 25.7367 89.1712 25.4716C89.6636 25.2017 90.0424 24.83 90.3075 24.3565C90.5727 23.883 90.7053 23.3433 90.7053 22.7372V13.4545ZM96.2042 28V13.4545H98.8391V25.7912H105.245V28H96.2042ZM119.963 20.7273C119.963 22.2945 119.67 23.6368 119.082 24.7543C118.5 25.867 117.705 26.7192 116.696 27.3111C115.692 27.9029 114.554 28.1989 113.28 28.1989C112.006 28.1989 110.865 27.9029 109.857 27.3111C108.853 26.7145 108.057 25.8598 107.47 24.7472C106.888 23.6297 106.597 22.2898 106.597 20.7273C106.597 19.16 106.888 17.8201 107.47 16.7074C108.057 15.59 108.853 14.7353 109.857 14.1435C110.865 13.5516 112.006 13.2557 113.28 13.2557C114.554 13.2557 115.692 13.5516 116.696 14.1435C117.705 14.7353 118.5 15.59 119.082 16.7074C119.67 17.8201 119.963 19.16 119.963 20.7273ZM117.314 20.7273C117.314 19.6241 117.141 18.6937 116.795 17.9361C116.455 17.1738 115.981 16.5985 115.375 16.2102C114.769 15.8172 114.071 15.6207 113.28 15.6207C112.489 15.6207 111.791 15.8172 111.185 16.2102C110.579 16.5985 110.103 17.1738 109.757 17.9361C109.416 18.6937 109.246 19.6241 109.246 20.7273C109.246 21.8305 109.416 22.7633 109.757 23.5256C110.103 24.2831 110.579 24.8584 111.185 25.2514C111.791 25.6397 112.489 25.8338 113.28 25.8338C114.071 25.8338 114.769 25.6397 115.375 25.2514C115.981 24.8584 116.455 24.2831 116.795 23.5256C117.141 22.7633 117.314 21.8305 117.314 20.7273ZM135.451 20.7273C135.451 22.2945 135.158 23.6368 134.571 24.7543C133.988 25.867 133.193 26.7192 132.184 27.3111C131.181 27.9029 130.042 28.1989 128.768 28.1989C127.494 28.1989 126.353 27.9029 125.345 27.3111C124.341 26.7145 123.546 25.8598 122.958 24.7472C122.376 23.6297 122.085 22.2898 122.085 20.7273C122.085 19.16 122.376 17.8201 122.958 16.7074C123.546 15.59 124.341 14.7353 125.345 14.1435C126.353 13.5516 127.494 13.2557 128.768 13.2557C130.042 13.2557 131.181 13.5516 132.184 14.1435C133.193 14.7353 133.988 15.59 134.571 16.7074C135.158 17.8201 135.451 19.16 135.451 20.7273ZM132.802 20.7273C132.802 19.6241 132.629 18.6937 132.284 17.9361C131.943 17.1738 131.469 16.5985 130.863 16.2102C130.257 15.8172 129.559 15.6207 128.768 15.6207C127.977 15.6207 127.279 15.8172 126.673 16.2102C126.067 16.5985 125.591 17.1738 125.245 17.9361C124.904 18.6937 124.734 19.6241 124.734 20.7273C124.734 21.8305 124.904 22.7633 125.245 23.5256C125.591 24.2831 126.067 24.8584 126.673 25.2514C127.279 25.6397 127.977 25.8338 128.768 25.8338C129.559 25.8338 130.257 25.6397 130.863 25.2514C131.469 24.8584 131.943 24.2831 132.284 23.5256C132.629 22.7633 132.802 21.8305 132.802 20.7273ZM137.942 13.4545H141.167L145.485 23.9943H145.656L149.974 13.4545H153.198V28H150.67V18.0071H150.535L146.515 27.9574H144.626L140.606 17.9858H140.471V28H137.942V13.4545ZM169.065 20.7273C169.065 22.2945 168.771 23.6368 168.184 24.7543C167.602 25.867 166.806 26.7192 165.798 27.3111C164.794 27.9029 163.655 28.1989 162.381 28.1989C161.108 28.1989 159.967 27.9029 158.958 27.3111C157.954 26.7145 157.159 25.8598 156.572 24.7472C155.989 23.6297 155.698 22.2898 155.698 20.7273C155.698 19.16 155.989 17.8201 156.572 16.7074C157.159 15.59 157.954 14.7353 158.958 14.1435C159.967 13.5516 161.108 13.2557 162.381 13.2557C163.655 13.2557 164.794 13.5516 165.798 14.1435C166.806 14.7353 167.602 15.59 168.184 16.7074C168.771 17.8201 169.065 19.16 169.065 20.7273ZM166.415 20.7273C166.415 19.6241 166.243 18.6937 165.897 17.9361C165.556 17.1738 165.083 16.5985 164.477 16.2102C163.871 15.8172 163.172 15.6207 162.381 15.6207C161.591 15.6207 160.892 15.8172 160.286 16.2102C159.68 16.5985 159.204 17.1738 158.859 17.9361C158.518 18.6937 158.347 19.6241 158.347 20.7273C158.347 21.8305 158.518 22.7633 158.859 23.5256C159.204 24.2831 159.68 24.8584 160.286 25.2514C160.892 25.6397 161.591 25.8338 162.381 25.8338C163.172 25.8338 163.871 25.6397 164.477 25.2514C165.083 24.8584 165.556 24.2831 165.897 23.5256C166.243 22.7633 166.415 21.8305 166.415 20.7273ZM183.509 13.4545V28H181.165L174.311 18.0923H174.191V28H171.556V13.4545H173.914L180.76 23.3693H180.888V13.4545H183.509ZM186.38 28V13.4545H189.015V25.7912H195.421V28H186.38ZM200.343 13.4545V28H197.708V13.4545H200.343ZM215.15 13.4545V28H212.806L205.952 18.0923H205.831V28H203.196V13.4545H205.554L212.401 23.3693H212.529V13.4545H215.15ZM218.021 28V13.4545H227.481V15.6634H220.656V19.6122H226.991V21.821H220.656V25.7912H227.538V28H218.021Z" fill="black" fill-opacity="0.76"/>
</svg>
