<svg xmlns="http://www.w3.org/2000/svg" viewBox="0 0 64 64" fill="#fff"><path d="M3.615 39.923 23.4 48.167 13 52.5V46h-2v13a1 1 0 0 0 1.385.923l19.563-8.152-.022-.052 19.69 8.204A1 1 0 0 0 53 59V46h-2v6.5l-10.4-4.333 19.785-8.244A1 1 0 0 0 61 39V14a1 1 0 0 0-1.385-.923L54 15.417V7a1.001 1.001 0 0 0-1.406-.914 39.777 39.777 0 0 1-8.072 2.487c-2.66.457-5.044-.618-7.572.323A9.92 9.92 0 0 0 32 12.723a9.915 9.915 0 0 0-4.95-3.827c-2.527-.941-4.916.134-7.572-.323a39.772 39.772 0 0 1-8.072-2.487A1.001 1.001 0 0 0 10 7v8.41l-5.616-2.333A1 1 0 0 0 3 14v25a1 1 0 0 0 .615.923ZM13 57.5v-2.834l13-5.416 3.4 1.417Zm38 0L5 38.334V35.5l46 19.166Zm8-19.166-21 8.75-3.4-1.417L59 35.5Zm-47-9.845a39.164 39.164 0 0 0 7.14 2.055 14.804 14.804 0 0 0 3.83.042 7.785 7.785 0 0 1 3.383.185A7.423 7.423 0 0 1 31 35.15v3.016L12 30.25Zm21 6.661a7.424 7.424 0 0 1 4.647-4.38c1.953-.725 4.28.28 7.213-.225A39.164 39.164 0 0 0 52 28.489v1.761l-19 7.916Zm4.647-24.38c1.953-.725 4.28.28 7.213-.225A39.242 39.242 0 0 0 52 8.49v17.846a38.872 38.872 0 0 1-7.478 2.237c-2.65.457-5.048-.618-7.572.323A10.225 10.225 0 0 0 33 31.47V15.15a7.424 7.424 0 0 1 4.647-4.38ZM12 8.49a39.242 39.242 0 0 0 7.14 2.055 14.826 14.826 0 0 0 3.83.042 7.793 7.793 0 0 1 3.383.184A7.423 7.423 0 0 1 31 15.148V31.47a10.219 10.219 0 0 0-3.95-2.574c-2.517-.938-4.93.132-7.572-.324A38.872 38.872 0 0 1 12 26.337Zm-7 7.008 5 2.077v13.341a1 1 0 0 0 .615.923l21 8.75a.999.999 0 0 0 .77 0l21-8.75a1 1 0 0 0 .615-.922V17.582l5-2.083v17.834l-.055.022L32 44.583 5 33.333Z" data-name="Layer 2"/></svg>